<?xml version="1.0" encoding="UTF-8" standalone="no"?>
<!DOCTYPE svg PUBLIC "-//W3C//DTD SVG 1.1//EN"
 "http://www.w3.org/Graphics/SVG/1.1/DTD/svg11.dtd">
<!-- Generated by graphviz version 15.1.0 (20260618.0150)
 -->
<!-- Title: G Pages: 1 -->
<svg width="1660pt" height="582pt"
 viewBox="0.00 0.00 1660.00 582.00" xmlns="http://www.w3.org/2000/svg" xmlns:xlink="http://www.w3.org/1999/xlink">
<g id="graph0" class="graph" transform="scale(1 1) rotate(0) translate(4 578.44)">
<title>G</title><style>.edge>path:hover{stroke-width:8}</style>
<polygon fill="white" stroke="none" points="-4,4 -4,-578.44 1655.91,-578.44 1655.91,4 -4,4"/>
<!-- intro_skipper_application -->
<g id="node1" class="node">
<title>intro_skipper_application</title><style>.edge>path:hover{stroke-width:8}</style>
<ellipse fill="#8a2e2e" stroke="black" cx="901.88" cy="-185.14" rx="52.68" ry="22.63"/>
<text xml:space="preserve" text-anchor="middle" x="901.88" y="-187.64" font-family="Helvetica,sans-Serif" font-size="10.00" fill="#ffffff">intro_skipper.</text>
<text xml:space="preserve" text-anchor="middle" x="901.88" y="-175.64" font-family="Helvetica,sans-Serif" font-size="10.00" fill="#ffffff">application</text>
</g>
<!-- intro_skipper_entry_point -->
<g id="node8" class="node">
<title>intro_skipper_entry_point</title><style>.edge>path:hover{stroke-width:8}</style>
<ellipse fill="#6b2e2e" stroke="black" cx="1029.88" cy="-22.63" rx="52.68" ry="22.63"/>
<text xml:space="preserve" text-anchor="middle" x="1029.88" y="-25.13" font-family="Helvetica,sans-Serif" font-size="10.00" fill="#ffffff">intro_skipper.</text>
<text xml:space="preserve" text-anchor="middle" x="1029.88" y="-13.13" font-family="Helvetica,sans-Serif" font-size="10.00" fill="#ffffff">entry_point</text>
</g>
<!-- intro_skipper_application&#45;&gt;intro_skipper_entry_point -->
<g id="edge1" class="edge">
<title>intro_skipper_application&#45;&gt;intro_skipper_entry_point</title><style>.edge>path:hover{stroke-width:8}</style>
<path fill="none" stroke="black" d="M937.7,-168.12C972.96,-151.38 1022.56,-124.82 1029.88,-104.88"/>
</g>
<!-- intro_skipper_browser -->
<g id="node2" class="node">
<title>intro_skipper_browser</title><style>.edge>path:hover{stroke-width:8}</style>
<ellipse fill="#f91010" stroke="black" cx="820.88" cy="-274.88" rx="52.68" ry="22.63"/>
<text xml:space="preserve" text-anchor="middle" x="820.88" y="-277.38" font-family="Helvetica,sans-Serif" font-size="10.00" fill="#ffffff">intro_skipper.</text>
<text xml:space="preserve" text-anchor="middle" x="820.88" y="-265.38" font-family="Helvetica,sans-Serif" font-size="10.00" fill="#ffffff">browser</text>
</g>
<!-- intro_skipper_browser&#45;&gt;intro_skipper_application -->
<g id="edge2" class="edge">
<title>intro_skipper_browser&#45;&gt;intro_skipper_application</title><style>.edge>path:hover{stroke-width:8}</style>
<path fill="none" stroke="black" d="M839.67,-253.53C850.23,-242.09 863.58,-227.63 875.2,-215.04"/>
<polygon fill="#f91010" stroke="black" points="877.68,-217.51 881.89,-207.79 872.54,-212.77 877.68,-217.51"/>
</g>
<!-- intro_skipper_chrome_executable_prompt -->
<g id="node6" class="node">
<title>intro_skipper_chrome_executable_prompt</title><style>.edge>path:hover{stroke-width:8}</style>
<ellipse fill="#a13535" stroke="black" cx="782.88" cy="-103.88" rx="96.17" ry="22.63"/>
<text xml:space="preserve" text-anchor="middle" x="782.88" y="-106.38" font-family="Helvetica,sans-Serif" font-size="10.00" fill="#ffffff">intro_skipper.</text>
<text xml:space="preserve" text-anchor="middle" x="782.88" y="-94.38" font-family="Helvetica,sans-Serif" font-size="10.00" fill="#ffffff">chrome_executable_prompt</text>
</g>
<!-- intro_skipper_browser&#45;&gt;intro_skipper_chrome_executable_prompt -->
<g id="edge3" class="edge">
<title>intro_skipper_browser&#45;&gt;intro_skipper_chrome_executable_prompt</title><style>.edge>path:hover{stroke-width:8}</style>
<path fill="none" stroke="black" d="M815.99,-252.13C809.48,-223.18 797.91,-171.73 790.32,-137.96"/>
<polygon fill="#f91010" stroke="black" points="793.76,-137.28 788.15,-128.29 786.93,-138.81 793.76,-137.28"/>
</g>
<!-- intro_skipper_browser&#45;&gt;intro_skipper_entry_point -->
<g id="edge4" class="edge">
<title>intro_skipper_browser&#45;&gt;intro_skipper_entry_point</title><style>.edge>path:hover{stroke-width:8}</style>
<path fill="none" stroke="black" d="M812.56,-252.15C806.09,-231.15 801.16,-200.45 820.88,-186.14"/>
</g>
<!-- intro_skipper_remote_control -->
<g id="node12" class="node">
<title>intro_skipper_remote_control</title><style>.edge>path:hover{stroke-width:8}</style>
<ellipse fill="#8a2e2e" stroke="black" cx="1029.88" cy="-185.14" rx="56.92" ry="22.63"/>
<text xml:space="preserve" text-anchor="middle" x="1029.88" y="-187.64" font-family="Helvetica,sans-Serif" font-size="10.00" fill="#ffffff">intro_skipper.</text>
<text xml:space="preserve" text-anchor="middle" x="1029.88" y="-175.64" font-family="Helvetica,sans-Serif" font-size="10.00" fill="#ffffff">remote_control</text>
</g>
<!-- intro_skipper_browser&#45;&gt;intro_skipper_remote_control -->
<g id="edge5" class="edge">
<title>intro_skipper_browser&#45;&gt;intro_skipper_remote_control</title><style>.edge>path:hover{stroke-width:8}</style>
<path fill="none" stroke="black" d="M857.77,-258.39C892.15,-243.96 943.65,-222.34 981.36,-206.51"/>
<polygon fill="#f91010" stroke="black" points="982.34,-209.89 990.21,-202.79 979.63,-203.44 982.34,-209.89"/>
</g>
<!-- intro_skipper_browser_browser_connection -->
<g id="node3" class="node">
<title>intro_skipper_browser_browser_connection</title><style>.edge>path:hover{stroke-width:8}</style>
<ellipse fill="#f31616" stroke="black" cx="524.88" cy="-373.1" rx="72.83" ry="31.11"/>
<text xml:space="preserve" text-anchor="middle" x="524.88" y="-381.6" font-family="Helvetica,sans-Serif" font-size="10.00" fill="#ffffff">intro_skipper.</text>
<text xml:space="preserve" text-anchor="middle" x="524.88" y="-369.6" font-family="Helvetica,sans-Serif" font-size="10.00" fill="#ffffff">browser.</text>
<text xml:space="preserve" text-anchor="middle" x="524.88" y="-357.6" font-family="Helvetica,sans-Serif" font-size="10.00" fill="#ffffff">browser_connection</text>
</g>
<!-- intro_skipper_browser_browser_connection&#45;&gt;intro_skipper_application -->
<g id="edge6" class="edge">
<title>intro_skipper_browser_browser_connection&#45;&gt;intro_skipper_application</title><style>.edge>path:hover{stroke-width:8}</style>
<path fill="none" stroke="black" d="M587.91,-357.23C610.54,-352.11 636.3,-346.52 659.88,-341.99 758.48,-323.05 799.13,-361.34 882.88,-305.99 896.09,-297.26 893.03,-288.99 901.88,-275.88"/>
<path fill="none" stroke="black" d="M901.88,-273.88C912.53,-258.11 912.78,-236.84 910.26,-219.19"/>
<polygon fill="#f31616" stroke="black" points="913.71,-218.64 908.48,-209.43 906.83,-219.89 913.71,-218.64"/>
</g>
<!-- intro_skipper_browser_chrome_connection -->
<g id="node4" class="node">
<title>intro_skipper_browser_chrome_connection</title><style>.edge>path:hover{stroke-width:8}</style>
<ellipse fill="#913030" stroke="black" cx="248.88" cy="-274.88" rx="71.24" ry="31.11"/>
<text xml:space="preserve" text-anchor="middle" x="248.88" y="-283.38" font-family="Helvetica,sans-Serif" font-size="10.00" fill="#ffffff">intro_skipper.</text>
<text xml:space="preserve" text-anchor="middle" x="248.88" y="-271.38" font-family="Helvetica,sans-Serif" font-size="10.00" fill="#ffffff">browser.</text>
<text xml:space="preserve" text-anchor="middle" x="248.88" y="-259.38" font-family="Helvetica,sans-Serif" font-size="10.00" fill="#ffffff">chrome_connection</text>
</g>
<!-- intro_skipper_browser_browser_connection&#45;&gt;intro_skipper_browser_chrome_connection -->
<g id="edge7" class="edge">
<title>intro_skipper_browser_browser_connection&#45;&gt;intro_skipper_browser_chrome_connection</title><style>.edge>path:hover{stroke-width:8}</style>
<path fill="none" stroke="black" d="M468.91,-352.73C413.77,-333.65 337.26,-307.17 333.88,-305.99 327.39,-303.71 320.61,-301.33 313.85,-298.95"/>
<polygon fill="#f31616" stroke="black" points="315.3,-295.75 304.7,-295.72 312.97,-302.35 315.3,-295.75"/>
</g>
<!-- intro_skipper_browser_chrome_launcher -->
<g id="node5" class="node">
<title>intro_skipper_browser_chrome_launcher</title><style>.edge>path:hover{stroke-width:8}</style>
<ellipse fill="#ac2b2b" stroke="black" cx="477.88" cy="-274.88" rx="63.82" ry="31.11"/>
<text xml:space="preserve" text-anchor="middle" x="477.88" y="-283.38" font-family="Helvetica,sans-Serif" font-size="10.00" fill="#ffffff">intro_skipper.</text>
<text xml:space="preserve" text-anchor="middle" x="477.88" y="-271.38" font-family="Helvetica,sans-Serif" font-size="10.00" fill="#ffffff">browser.</text>
<text xml:space="preserve" text-anchor="middle" x="477.88" y="-259.38" font-family="Helvetica,sans-Serif" font-size="10.00" fill="#ffffff">chrome_launcher</text>
</g>
<!-- intro_skipper_browser_browser_connection&#45;&gt;intro_skipper_browser_chrome_launcher -->
<g id="edge8" class="edge">
<title>intro_skipper_browser_browser_connection&#45;&gt;intro_skipper_browser_chrome_launcher</title><style>.edge>path:hover{stroke-width:8}</style>
<path fill="none" stroke="black" d="M510.27,-342.18C506.16,-333.78 501.63,-324.5 497.29,-315.62"/>
<polygon fill="#f31616" stroke="black" points="500.52,-314.26 492.99,-306.81 494.23,-317.33 500.52,-314.26"/>
</g>
<!-- intro_skipper_browser_browser_connection&#45;&gt;intro_skipper_entry_point -->
<g id="edge9" class="edge">
<title>intro_skipper_browser_browser_connection&#45;&gt;intro_skipper_entry_point</title><style>.edge>path:hover{stroke-width:8}</style>
<path fill="none" stroke="black" d="M478.13,-348.89C455.44,-336.99 428.13,-321.72 404.88,-305.99 368.73,-281.53 363.5,-270.36 328.88,-243.76 294.14,-217.07 233.47,-227.16 248.88,-186.14"/>
</g>
<!-- intro_skipper_browser_browser_connection&#45;&gt;intro_skipper_remote_control -->
<g id="edge10" class="edge">
<title>intro_skipper_browser_browser_connection&#45;&gt;intro_skipper_remote_control</title><style>.edge>path:hover{stroke-width:8}</style>
<path fill="none" stroke="black" d="M587.86,-356.96C610.49,-351.81 636.26,-346.28 659.88,-341.99 772.93,-321.47 813.71,-358.54 915.88,-305.99 956.09,-285.31 989.96,-244.74 1010.08,-216.56"/>
<polygon fill="#f31616" stroke="black" points="1012.91,-218.61 1015.75,-208.41 1007.16,-214.62 1012.91,-218.61"/>
</g>
<!-- intro_skipper_browser_chrome_connection&#45;&gt;intro_skipper_entry_point -->
<g id="edge11" class="edge">
<title>intro_skipper_browser_chrome_connection&#45;&gt;intro_skipper_entry_point</title><style>.edge>path:hover{stroke-width:8}</style>
<path fill="none" stroke="black" d="M243.74,-243.7C242.03,-226.32 242.03,-204.39 248.88,-186.14"/>
</g>
<!-- intro_skipper_browser_chrome_launcher&#45;&gt;intro_skipper_chrome_executable_prompt -->
<g id="edge12" class="edge">
<title>intro_skipper_browser_chrome_launcher&#45;&gt;intro_skipper_chrome_executable_prompt</title><style>.edge>path:hover{stroke-width:8}</style>
<path fill="none" stroke="black" d="M487.1,-243.63C494.31,-224.69 506.13,-201.11 523.88,-186.14"/>
</g>
<!-- intro_skipper_browser_chrome_launcher&#45;&gt;intro_skipper_entry_point -->
<g id="edge13" class="edge">
<title>intro_skipper_browser_chrome_launcher&#45;&gt;intro_skipper_entry_point</title><style>.edge>path:hover{stroke-width:8}</style>
<path fill="none" stroke="black" d="M528.52,-255.44C592.8,-232.34 707.34,-192.18 806.88,-162.51 904.99,-133.27 993.86,-200.7 1029.88,-104.88"/>
<path fill="none" stroke="black" d="M1029.88,-102.88C1035.4,-88.37 1036.05,-71.25 1035.06,-56.65"/>
<polygon fill="#ac2b2b" stroke="black" points="1038.58,-56.69 1034.12,-47.08 1031.61,-57.37 1038.58,-56.69"/>
</g>
<!-- intro_skipper_chrome_executable_prompt&#45;&gt;intro_skipper_entry_point -->
<g id="edge14" class="edge">
<title>intro_skipper_chrome_executable_prompt&#45;&gt;intro_skipper_entry_point</title><style>.edge>path:hover{stroke-width:8}</style>
<path fill="none" stroke="black" d="M838.62,-85C880.33,-71.61 936.97,-53.44 977.78,-40.35"/>
<polygon fill="#a13535" stroke="black" points="978.68,-43.73 987.13,-37.34 976.54,-37.07 978.68,-43.73"/>
</g>
<!-- intro_skipper_command_line_arguments -->
<g id="node7" class="node">
<title>intro_skipper_command_line_arguments</title><style>.edge>path:hover{stroke-width:8}</style>
<ellipse fill="#993333" stroke="black" cx="1152.88" cy="-103.88" rx="91.92" ry="22.63"/>
<text xml:space="preserve" text-anchor="middle" x="1152.88" y="-106.38" font-family="Helvetica,sans-Serif" font-size="10.00" fill="#ffffff">intro_skipper.</text>
<text xml:space="preserve" text-anchor="middle" x="1152.88" y="-94.38" font-family="Helvetica,sans-Serif" font-size="10.00" fill="#ffffff">command_line_arguments</text>
</g>
<!-- intro_skipper_command_line_arguments&#45;&gt;intro_skipper_entry_point -->
<g id="edge15" class="edge">
<title>intro_skipper_command_line_arguments&#45;&gt;intro_skipper_entry_point</title><style>.edge>path:hover{stroke-width:8}</style>
<path fill="none" stroke="black" d="M1120.89,-82.27C1104.7,-71.84 1084.95,-59.11 1067.98,-48.18"/>
<polygon fill="#993333" stroke="black" points="1069.94,-45.27 1059.63,-42.8 1066.14,-51.16 1069.94,-45.27"/>
</g>
<!-- intro_skipper_helpers -->
<g id="node9" class="node">
<title>intro_skipper_helpers</title><style>.edge>path:hover{stroke-width:8}</style>
<ellipse fill="#f91010" stroke="black" cx="673.88" cy="-471.33" rx="52.68" ry="22.63"/>
<text xml:space="preserve" text-anchor="middle" x="673.88" y="-473.83" font-family="Helvetica,sans-Serif" font-size="10.00" fill="#ffffff">intro_skipper.</text>
<text xml:space="preserve" text-anchor="middle" x="673.88" y="-461.83" font-family="Helvetica,sans-Serif" font-size="10.00" fill="#ffffff">helpers</text>
</g>
<!-- intro_skipper_helpers&#45;&gt;intro_skipper_application -->
<g id="edge16" class="edge">
<title>intro_skipper_helpers&#45;&gt;intro_skipper_application</title><style>.edge>path:hover{stroke-width:8}</style>
<path fill="none" stroke="black" d="M703.14,-452.02C746.08,-424.19 827.09,-367.87 882.88,-305.99 893.48,-294.24 893.03,-288.99 901.88,-275.88"/>
</g>
<!-- intro_skipper_helpers&#45;&gt;intro_skipper_browser_chrome_connection -->
<g id="edge17" class="edge">
<title>intro_skipper_helpers&#45;&gt;intro_skipper_browser_chrome_connection</title><style>.edge>path:hover{stroke-width:8}</style>
<path fill="none" stroke="black" d="M620.94,-471.06C550.43,-469.69 424.13,-458.92 333.88,-404.22 319.25,-395.34 322.35,-385.83 309.88,-374.1"/>
</g>
<!-- intro_skipper_helpers&#45;&gt;intro_skipper_browser_chrome_launcher -->
<g id="edge18" class="edge">
<title>intro_skipper_helpers&#45;&gt;intro_skipper_browser_chrome_launcher</title><style>.edge>path:hover{stroke-width:8}</style>
<path fill="none" stroke="black" d="M678.5,-448.39C681.69,-428.26 683.78,-398.03 673.88,-374.1"/>
<path fill="none" stroke="black" d="M673.88,-372.1C668.05,-357.99 591.92,-323.53 536.29,-299.92"/>
<polygon fill="#f91010" stroke="black" points="537.79,-296.75 527.21,-296.09 535.07,-303.2 537.79,-296.75"/>
</g>
<!-- intro_skipper_helpers&#45;&gt;intro_skipper_chrome_executable_prompt -->
<g id="edge19" class="edge">
<title>intro_skipper_helpers&#45;&gt;intro_skipper_chrome_executable_prompt</title><style>.edge>path:hover{stroke-width:8}</style>
<path fill="none" stroke="black" d="M621.58,-468.4C570.08,-463.8 492.16,-449.23 442.88,-404.22 388.78,-354.79 365.96,-305.86 404.88,-243.76 436.09,-193.97 479.05,-224.13 523.88,-186.14"/>
<path fill="none" stroke="black" d="M523.88,-184.14C568.31,-145.41 631.32,-125.61 684.06,-115.48"/>
<polygon fill="#f91010" stroke="black" points="684.45,-118.97 693.66,-113.74 683.2,-112.08 684.45,-118.97"/>
</g>
<!-- intro_skipper_helpers&#45;&gt;intro_skipper_command_line_arguments -->
<g id="edge20" class="edge">
<title>intro_skipper_helpers&#45;&gt;intro_skipper_command_line_arguments</title><style>.edge>path:hover{stroke-width:8}</style>
<path fill="none" stroke="black" d="M714.92,-456.68C731.34,-451.35 750.45,-445.31 767.88,-440.22 827.9,-422.67 846.59,-429.27 903.88,-404.22 951.15,-383.54 953.18,-359.02 1001.88,-341.99 1072.56,-317.28 1275.81,-349.31 1336.88,-305.99 1348.91,-297.46 1404.19,-196.68 1393.88,-186.14"/>
<path fill="none" stroke="black" d="M1393.88,-184.14C1355.67,-145.05 1297.86,-125.23 1248.44,-115.19"/>
<polygon fill="#f91010" stroke="black" points="1249.35,-111.8 1238.87,-113.36 1248.04,-118.68 1249.35,-111.8"/>
</g>
<!-- intro_skipper_helpers&#45;&gt;intro_skipper_entry_point -->
<g id="edge21" class="edge">
<title>intro_skipper_helpers&#45;&gt;intro_skipper_entry_point</title><style>.edge>path:hover{stroke-width:8}</style>
<path fill="none" stroke="black" d="M194.88,-372.1C179.04,-365.64 185.37,-351.09 170.88,-341.99 109.9,-303.67 57.8,-362.29 12.88,-305.99 -4.36,-284.37 -4.2,-265.52 12.88,-243.76 79.56,-158.84 212.47,-287.78 248.88,-186.14"/>
<path fill="none" stroke="black" d="M248.88,-184.14C296.25,-47.34 787.55,-26.93 965.76,-24.04"/>
<polygon fill="#f91010" stroke="black" points="965.58,-27.55 975.53,-23.9 965.48,-20.55 965.58,-27.55"/>
<path fill="none" stroke="black" d="M621.94,-466.65C531.84,-458.81 342.15,-435.83 194.88,-374.1"/>
</g>
<!-- intro_skipper_logging_configuration -->
<g id="node11" class="node">
<title>intro_skipper_logging_configuration</title><style>.edge>path:hover{stroke-width:8}</style>
<ellipse fill="#b03a3a" stroke="black" cx="673.88" cy="-274.88" rx="76.01" ry="22.63"/>
<text xml:space="preserve" text-anchor="middle" x="673.88" y="-277.38" font-family="Helvetica,sans-Serif" font-size="10.00" fill="#ffffff">intro_skipper.</text>
<text xml:space="preserve" text-anchor="middle" x="673.88" y="-265.38" font-family="Helvetica,sans-Serif" font-size="10.00" fill="#ffffff">logging_configuration</text>
</g>
<!-- intro_skipper_helpers&#45;&gt;intro_skipper_logging_configuration -->
<g id="edge22" class="edge">
<title>intro_skipper_helpers&#45;&gt;intro_skipper_logging_configuration</title><style>.edge>path:hover{stroke-width:8}</style>
<path fill="none" stroke="black" d="M673.88,-372.1C665.69,-352.29 665.71,-328.15 667.77,-309.01"/>
<polygon fill="#f91010" stroke="black" points="671.21,-309.69 669.06,-299.32 664.27,-308.77 671.21,-309.69"/>
</g>
<!-- intro_skipper_helpers&#45;&gt;intro_skipper_remote_control -->
<g id="edge23" class="edge">
<title>intro_skipper_helpers&#45;&gt;intro_skipper_remote_control</title><style>.edge>path:hover{stroke-width:8}</style>
<path fill="none" stroke="black" d="M712.86,-455.6C797.66,-422.52 993.12,-340.18 1015.88,-275.88"/>
<path fill="none" stroke="black" d="M1015.88,-273.88C1022.44,-256.58 1025.92,-236.24 1027.78,-219.5"/>
<polygon fill="#f91010" stroke="black" points="1031.26,-219.84 1028.72,-209.55 1024.29,-219.18 1031.26,-219.84"/>
</g>
<!-- intro_skipper_services_streaming_service_catalog -->
<g id="node15" class="node">
<title>intro_skipper_services_streaming_service_catalog</title><style>.edge>path:hover{stroke-width:8}</style>
<ellipse fill="#ac2b2b" stroke="black" cx="1515.88" cy="-274.88" rx="93.51" ry="31.11"/>
<text xml:space="preserve" text-anchor="middle" x="1515.88" y="-283.38" font-family="Helvetica,sans-Serif" font-size="10.00" fill="#ffffff">intro_skipper.</text>
<text xml:space="preserve" text-anchor="middle" x="1515.88" y="-271.38" font-family="Helvetica,sans-Serif" font-size="10.00" fill="#ffffff">services.</text>
<text xml:space="preserve" text-anchor="middle" x="1515.88" y="-259.38" font-family="Helvetica,sans-Serif" font-size="10.00" fill="#ffffff">streaming_service_catalog</text>
</g>
<!-- intro_skipper_helpers&#45;&gt;intro_skipper_services_streaming_service_catalog -->
<g id="edge24" class="edge">
<title>intro_skipper_helpers&#45;&gt;intro_skipper_services_streaming_service_catalog</title><style>.edge>path:hover{stroke-width:8}</style>
<path fill="none" stroke="black" d="M712.2,-455.65C729.03,-449.84 749.19,-443.71 767.88,-440.22 899.84,-415.55 1246.83,-455.51 1370.88,-404.22 1417.25,-385.04 1458.85,-344.6 1485.47,-314.2"/>
<polygon fill="#f91010" stroke="black" points="1488.07,-316.55 1491.92,-306.68 1482.75,-311.99 1488.07,-316.55"/>
</g>
<!-- intro_skipper_update_notification -->
<g id="node17" class="node">
<title>intro_skipper_update_notification</title><style>.edge>path:hover{stroke-width:8}</style>
<ellipse fill="#a83838" stroke="black" cx="90.88" cy="-274.88" rx="69.12" ry="22.63"/>
<text xml:space="preserve" text-anchor="middle" x="90.88" y="-277.38" font-family="Helvetica,sans-Serif" font-size="10.00" fill="#ffffff">intro_skipper.</text>
<text xml:space="preserve" text-anchor="middle" x="90.88" y="-265.38" font-family="Helvetica,sans-Serif" font-size="10.00" fill="#ffffff">update_notification</text>
</g>
<!-- intro_skipper_helpers&#45;&gt;intro_skipper_update_notification -->
<g id="edge25" class="edge">
<title>intro_skipper_helpers&#45;&gt;intro_skipper_update_notification</title><style>.edge>path:hover{stroke-width:8}</style>
<path fill="none" stroke="black" d="M194.88,-372.1C179.04,-365.64 182.88,-354.2 170.88,-341.99 157.42,-328.28 141.29,-314.52 127.05,-303.13"/>
<polygon fill="#f91010" stroke="black" points="129.23,-300.39 119.2,-296.95 124.89,-305.89 129.23,-300.39"/>
</g>
<!-- intro_skipper_helpers_constants -->
<g id="node10" class="node">
<title>intro_skipper_helpers_constants</title><style>.edge>path:hover{stroke-width:8}</style>
<ellipse fill="#f91010" stroke="black" cx="829.88" cy="-471.33" rx="52.68" ry="31.11"/>
<text xml:space="preserve" text-anchor="middle" x="829.88" y="-479.83" font-family="Helvetica,sans-Serif" font-size="10.00" fill="#ffffff">intro_skipper.</text>
<text xml:space="preserve" text-anchor="middle" x="829.88" y="-467.83" font-family="Helvetica,sans-Serif" font-size="10.00" fill="#ffffff">helpers.</text>
<text xml:space="preserve" text-anchor="middle" x="829.88" y="-455.83" font-family="Helvetica,sans-Serif" font-size="10.00" fill="#ffffff">constants</text>
</g>
<!-- intro_skipper_helpers_constants&#45;&gt;intro_skipper_application -->
<g id="edge26" class="edge">
<title>intro_skipper_helpers_constants&#45;&gt;intro_skipper_application</title><style>.edge>path:hover{stroke-width:8}</style>
<path fill="none" stroke="black" d="M1015.88,-372.1C1025.82,-351.37 995.65,-290.46 977.88,-275.88"/>
<path fill="none" stroke="black" d="M977.88,-273.88C957.32,-257 937.76,-234.2 923.63,-216.07"/>
<polygon fill="#f91010" stroke="black" points="926.53,-214.1 917.68,-208.28 920.97,-218.35 926.53,-214.1"/>
<path fill="none" stroke="black" d="M880.31,-461.49C926.43,-450.26 991.13,-425.74 1015.88,-374.1"/>
</g>
<!-- intro_skipper_helpers_constants&#45;&gt;intro_skipper_browser_chrome_connection -->
<g id="edge27" class="edge">
<title>intro_skipper_helpers_constants&#45;&gt;intro_skipper_browser_chrome_connection</title><style>.edge>path:hover{stroke-width:8}</style>
<path fill="none" stroke="black" d="M785.41,-454.19C769.91,-449.07 752.29,-443.82 735.88,-440.22 607.73,-412.08 564.3,-453.93 442.88,-404.22 400.87,-387.01 399.55,-367.33 361.88,-341.99 342.93,-329.24 321.45,-316.31 302.34,-305.31"/>
<polygon fill="#f91010" stroke="black" points="304.33,-302.42 293.91,-300.5 300.85,-308.5 304.33,-302.42"/>
</g>
<!-- intro_skipper_helpers_constants&#45;&gt;intro_skipper_browser_chrome_launcher -->
<g id="edge28" class="edge">
<title>intro_skipper_helpers_constants&#45;&gt;intro_skipper_browser_chrome_launcher</title><style>.edge>path:hover{stroke-width:8}</style>
<path fill="none" stroke="black" d="M806.81,-442.92C780.8,-413.74 735.84,-368.22 687.88,-341.99 634.53,-312.81 613.66,-324.96 555.88,-305.99 549.7,-303.96 543.29,-301.72 536.92,-299.4"/>
<polygon fill="#f91010" stroke="black" points="538.3,-296.18 527.71,-295.97 535.86,-302.74 538.3,-296.18"/>
</g>
<!-- intro_skipper_helpers_constants&#45;&gt;intro_skipper_chrome_executable_prompt -->
<g id="edge29" class="edge">
<title>intro_skipper_helpers_constants&#45;&gt;intro_skipper_chrome_executable_prompt</title><style>.edge>path:hover{stroke-width:8}</style>
<path fill="none" stroke="black" d="M817.24,-440.86C803.01,-411.28 777.06,-366.66 740.88,-341.99 683.53,-302.88 644.02,-348.18 588.88,-305.99 585.88,-303.69 520.99,-188.58 523.88,-186.14"/>
</g>
<!-- intro_skipper_helpers_constants&#45;&gt;intro_skipper_command_line_arguments -->
<g id="edge30" class="edge">
<title>intro_skipper_helpers_constants&#45;&gt;intro_skipper_command_line_arguments</title><style>.edge>path:hover{stroke-width:8}</style>
<path fill="none" stroke="black" d="M1553.88,-184.14C1505.18,-150.69 1350.19,-127.23 1247.78,-114.91"/>
<polygon fill="#f91010" stroke="black" points="1248.34,-111.45 1237.99,-113.75 1247.51,-118.4 1248.34,-111.45"/>
<path fill="none" stroke="black" d="M1637.88,-372.1C1677.09,-290.32 1628.65,-237.47 1553.88,-186.14"/>
</g>
<!-- intro_skipper_helpers_constants&#45;&gt;intro_skipper_entry_point -->
<g id="edge31" class="edge">
<title>intro_skipper_helpers_constants&#45;&gt;intro_skipper_entry_point</title><style>.edge>path:hover{stroke-width:8}</style>
<path fill="none" stroke="black" d="M1553.88,-184.14C1524.85,-164.19 1573.59,-134.08 1553.88,-104.88"/>
</g>
<!-- intro_skipper_helpers_constants&#45;&gt;intro_skipper_logging_configuration -->
<g id="edge32" class="edge">
<title>intro_skipper_helpers_constants&#45;&gt;intro_skipper_logging_configuration</title><style>.edge>path:hover{stroke-width:8}</style>
<path fill="none" stroke="black" d="M843.36,-440.89C853.92,-412.99 863.81,-371.13 843.88,-341.99 840.44,-336.96 779.73,-314.1 731.83,-296.65"/>
<polygon fill="#f91010" stroke="black" points="733.23,-293.43 722.63,-293.31 730.84,-300.01 733.23,-293.43"/>
</g>
<!-- intro_skipper_helpers_constants&#45;&gt;intro_skipper_remote_control -->
<g id="edge33" class="edge">
<title>intro_skipper_helpers_constants&#45;&gt;intro_skipper_remote_control</title><style>.edge>path:hover{stroke-width:8}</style>
<path fill="none" stroke="black" d="M1015.88,-372.1C1034.37,-333.54 1001.61,-316.19 1015.88,-275.88"/>
</g>
<!-- intro_skipper_helpers_constants&#45;&gt;intro_skipper_services_streaming_service_catalog -->
<g id="edge34" class="edge">
<title>intro_skipper_helpers_constants&#45;&gt;intro_skipper_services_streaming_service_catalog</title><style>.edge>path:hover{stroke-width:8}</style>
<path fill="none" stroke="black" d="M882.89,-468.98C1057.46,-463.91 1605.06,-442.57 1637.88,-374.1"/>
<path fill="none" stroke="black" d="M1637.88,-372.1C1652.31,-342.01 1624.31,-318.53 1591.51,-302.3"/>
<polygon fill="#f91010" stroke="black" points="1593.13,-299.2 1582.59,-298.14 1590.17,-305.54 1593.13,-299.2"/>
</g>
<!-- intro_skipper_helpers_constants&#45;&gt;intro_skipper_update_notification -->
<g id="edge35" class="edge">
<title>intro_skipper_helpers_constants&#45;&gt;intro_skipper_update_notification</title><style>.edge>path:hover{stroke-width:8}</style>
<path fill="none" stroke="black" d="M785.93,-454.1C770.32,-448.91 752.5,-443.64 735.88,-440.22 572.32,-406.55 522.86,-448.62 361.88,-404.22 316.75,-391.77 201.25,-333.45 136.55,-299.87"/>
<polygon fill="#f91010" stroke="black" points="138.45,-296.91 127.96,-295.4 135.21,-303.12 138.45,-296.91"/>
</g>
<!-- intro_skipper_logging_configuration&#45;&gt;intro_skipper_entry_point -->
<g id="edge36" class="edge">
<title>intro_skipper_logging_configuration&#45;&gt;intro_skipper_entry_point</title><style>.edge>path:hover{stroke-width:8}</style>
<path fill="none" stroke="black" d="M710.06,-254.67C740.53,-237.94 784.8,-212.32 820.88,-186.14"/>
<path fill="none" stroke="black" d="M820.88,-184.14C831.24,-176.62 829.13,-169.44 839.88,-162.51 914.07,-114.73 998.83,-187.48 1029.88,-104.88"/>
</g>
<!-- intro_skipper_remote_control&#45;&gt;intro_skipper_entry_point -->
<g id="edge37" class="edge">
<title>intro_skipper_remote_control&#45;&gt;intro_skipper_entry_point</title><style>.edge>path:hover{stroke-width:8}</style>
<path fill="none" stroke="black" d="M1025.92,-162.24C1023.89,-145.92 1023.1,-123.35 1029.88,-104.88"/>
</g>
<!-- intro_skipper_services -->
<g id="node13" class="node">
<title>intro_skipper_services</title><style>.edge>path:hover{stroke-width:8}</style>
<ellipse fill="#f31616" stroke="black" cx="1274.88" cy="-274.88" rx="52.68" ry="22.63"/>
<text xml:space="preserve" text-anchor="middle" x="1274.88" y="-277.38" font-family="Helvetica,sans-Serif" font-size="10.00" fill="#ffffff">intro_skipper.</text>
<text xml:space="preserve" text-anchor="middle" x="1274.88" y="-265.38" font-family="Helvetica,sans-Serif" font-size="10.00" fill="#ffffff">services</text>
</g>
<!-- intro_skipper_services&#45;&gt;intro_skipper_application -->
<g id="edge38" class="edge">
<title>intro_skipper_services&#45;&gt;intro_skipper_application</title><style>.edge>path:hover{stroke-width:8}</style>
<path fill="none" stroke="black" d="M1233.84,-260.27C1215.88,-254.64 1194.48,-248.37 1174.88,-243.76 1082.27,-222.01 1056,-231.51 963.88,-207.76 959.84,-206.72 955.68,-205.53 951.52,-204.26"/>
<polygon fill="#f31616" stroke="black" points="952.64,-200.95 942.05,-201.22 950.5,-207.61 952.64,-200.95"/>
</g>
<!-- intro_skipper_services&#45;&gt;intro_skipper_command_line_arguments -->
<g id="edge39" class="edge">
<title>intro_skipper_services&#45;&gt;intro_skipper_command_line_arguments</title><style>.edge>path:hover{stroke-width:8}</style>
<path fill="none" stroke="black" d="M1152.88,-184.14C1140.98,-172.4 1140.38,-153.95 1143.03,-137.8"/>
<polygon fill="#f31616" stroke="black" points="1146.44,-138.57 1145.1,-128.06 1139.6,-137.11 1146.44,-138.57"/>
</g>
<!-- intro_skipper_services&#45;&gt;intro_skipper_entry_point -->
<g id="edge40" class="edge">
<title>intro_skipper_services&#45;&gt;intro_skipper_entry_point</title><style>.edge>path:hover{stroke-width:8}</style>
<path fill="none" stroke="black" d="M1152.88,-184.14C1116.09,-147.84 1093.19,-157.57 1051.88,-126.51 1040.92,-118.27 1025.06,-117.72 1029.88,-104.88"/>
<path fill="none" stroke="black" d="M1244.82,-255.99C1218.83,-239.7 1181.11,-213.99 1152.88,-186.14"/>
</g>
<!-- intro_skipper_services&#45;&gt;intro_skipper_remote_control -->
<g id="edge41" class="edge">
<title>intro_skipper_services&#45;&gt;intro_skipper_remote_control</title><style>.edge>path:hover{stroke-width:8}</style>
<path fill="none" stroke="black" d="M1240.41,-257.52C1230.05,-252.84 1218.59,-247.89 1207.88,-243.76 1167.5,-228.21 1120.95,-213.24 1085.58,-202.45"/>
<polygon fill="#f31616" stroke="black" points="1087.01,-199.23 1076.43,-199.68 1084.99,-205.93 1087.01,-199.23"/>
</g>
<!-- intro_skipper_services_streaming_service -->
<g id="node14" class="node">
<title>intro_skipper_services_streaming_service</title><style>.edge>path:hover{stroke-width:8}</style>
<ellipse fill="#f31616" stroke="black" cx="1293.88" cy="-373.1" rx="67.53" ry="31.11"/>
<text xml:space="preserve" text-anchor="middle" x="1293.88" y="-381.6" font-family="Helvetica,sans-Serif" font-size="10.00" fill="#ffffff">intro_skipper.</text>
<text xml:space="preserve" text-anchor="middle" x="1293.88" y="-369.6" font-family="Helvetica,sans-Serif" font-size="10.00" fill="#ffffff">services.</text>
<text xml:space="preserve" text-anchor="middle" x="1293.88" y="-357.6" font-family="Helvetica,sans-Serif" font-size="10.00" fill="#ffffff">streaming_service</text>
</g>
<!-- intro_skipper_services_streaming_service&#45;&gt;intro_skipper_application -->
<g id="edge42" class="edge">
<title>intro_skipper_services_streaming_service&#45;&gt;intro_skipper_application</title><style>.edge>path:hover{stroke-width:8}</style>
<path fill="none" stroke="black" d="M1226.47,-369.44C1163.98,-364.2 1070.57,-349.08 1001.88,-305.99 987.39,-296.9 991.11,-286.74 977.88,-275.88"/>
</g>
<!-- intro_skipper_services_streaming_service&#45;&gt;intro_skipper_command_line_arguments -->
<g id="edge43" class="edge">
<title>intro_skipper_services_streaming_service&#45;&gt;intro_skipper_command_line_arguments</title><style>.edge>path:hover{stroke-width:8}</style>
<path fill="none" stroke="black" d="M1326.86,-345.67C1340.67,-334.04 1356.58,-319.88 1369.88,-305.99 1381.72,-293.63 1382.91,-289.01 1393.88,-275.88"/>
<path fill="none" stroke="black" d="M1393.88,-273.88C1418.88,-243.94 1421.14,-214.02 1393.88,-186.14"/>
</g>
<!-- intro_skipper_services_streaming_service&#45;&gt;intro_skipper_entry_point -->
<g id="edge44" class="edge">
<title>intro_skipper_services_streaming_service&#45;&gt;intro_skipper_entry_point</title><style>.edge>path:hover{stroke-width:8}</style>
<path fill="none" stroke="black" d="M1515.88,-184.14C1535.2,-150.18 1575.73,-137.26 1553.88,-104.88"/>
<path fill="none" stroke="black" d="M1393.88,-273.88C1404.03,-261.73 1401.4,-254.66 1412.88,-243.76 1450.94,-207.66 1489.95,-231.73 1515.88,-186.14"/>
<path fill="none" stroke="black" d="M1553.88,-102.88C1528.32,-65 1226.73,-38.17 1093.03,-28.07"/>
<polygon fill="#f31616" stroke="black" points="1093.52,-24.59 1083.28,-27.34 1093,-31.57 1093.52,-24.59"/>
</g>
<!-- intro_skipper_services_streaming_service&#45;&gt;intro_skipper_remote_control -->
<g id="edge45" class="edge">
<title>intro_skipper_services_streaming_service&#45;&gt;intro_skipper_remote_control</title><style>.edge>path:hover{stroke-width:8}</style>
<path fill="none" stroke="black" d="M1257.3,-346.49C1242.5,-335.1 1225.89,-320.9 1212.88,-305.99 1191.58,-281.57 1199.66,-264.65 1174.88,-243.76 1150.47,-223.19 1117.81,-209.34 1089.66,-200.39"/>
<polygon fill="#f31616" stroke="black" points="1090.75,-197.07 1080.17,-197.52 1088.73,-203.77 1090.75,-197.07"/>
</g>
<!-- intro_skipper_services_streaming_service&#45;&gt;intro_skipper_services_streaming_service_catalog -->
<g id="edge46" class="edge">
<title>intro_skipper_services_streaming_service&#45;&gt;intro_skipper_services_streaming_service_catalog</title><style>.edge>path:hover{stroke-width:8}</style>
<path fill="none" stroke="black" d="M1342.33,-351.1C1373.78,-337.47 1415.17,-319.53 1449.65,-304.59"/>
<polygon fill="#f31616" stroke="black" points="1450.93,-307.84 1458.72,-300.66 1448.15,-301.42 1450.93,-307.84"/>
</g>
<!-- intro_skipper_services_streaming_service_catalog&#45;&gt;intro_skipper_command_line_arguments -->
<g id="edge47" class="edge">
<title>intro_skipper_services_streaming_service_catalog&#45;&gt;intro_skipper_command_line_arguments</title><style>.edge>path:hover{stroke-width:8}</style>
<path fill="none" stroke="black" d="M1471.23,-247.16C1446.77,-231.27 1416.86,-209.64 1393.88,-186.14"/>
</g>
<!-- intro_skipper_services_streaming_service_catalog&#45;&gt;intro_skipper_entry_point -->
<g id="edge48" class="edge">
<title>intro_skipper_services_streaming_service_catalog&#45;&gt;intro_skipper_entry_point</title><style>.edge>path:hover{stroke-width:8}</style>
<path fill="none" stroke="black" d="M1508.77,-243.54C1506.24,-225.71 1506.09,-203.35 1515.88,-186.14"/>
</g>
<!-- intro_skipper_skipping_switch -->
<g id="node16" class="node">
<title>intro_skipper_skipping_switch</title><style>.edge>path:hover{stroke-width:8}</style>
<ellipse fill="#db2f2f" stroke="black" cx="1104.88" cy="-274.88" rx="60.63" ry="22.63"/>
<text xml:space="preserve" text-anchor="middle" x="1104.88" y="-277.38" font-family="Helvetica,sans-Serif" font-size="10.00" fill="#ffffff">intro_skipper.</text>
<text xml:space="preserve" text-anchor="middle" x="1104.88" y="-265.38" font-family="Helvetica,sans-Serif" font-size="10.00" fill="#ffffff">skipping_switch</text>
</g>
<!-- intro_skipper_skipping_switch&#45;&gt;intro_skipper_application -->
<g id="edge49" class="edge">
<title>intro_skipper_skipping_switch&#45;&gt;intro_skipper_application</title><style>.edge>path:hover{stroke-width:8}</style>
<path fill="none" stroke="black" d="M1066.22,-257.17C1032.72,-242.69 984.15,-221.7 948.5,-206.29"/>
<polygon fill="#db2f2f" stroke="black" points="950.31,-203.25 939.74,-202.5 947.53,-209.68 950.31,-203.25"/>
</g>
<!-- intro_skipper_skipping_switch&#45;&gt;intro_skipper_entry_point -->
<g id="edge50" class="edge">
<title>intro_skipper_skipping_switch&#45;&gt;intro_skipper_entry_point</title><style>.edge>path:hover{stroke-width:8}</style>
<path fill="none" stroke="black" d="M1107.95,-251.98C1110.19,-228.47 1110.65,-190.68 1095.88,-162.51 1077.8,-128.02 1016.46,-141.44 1029.88,-104.88"/>
</g>
<!-- intro_skipper_skipping_switch&#45;&gt;intro_skipper_remote_control -->
<g id="edge51" class="edge">
<title>intro_skipper_skipping_switch&#45;&gt;intro_skipper_remote_control</title><style>.edge>path:hover{stroke-width:8}</style>
<path fill="none" stroke="black" d="M1087.11,-253.08C1077.56,-241.91 1065.62,-227.95 1055.12,-215.67"/>
<polygon fill="#db2f2f" stroke="black" points="1057.93,-213.56 1048.77,-208.24 1052.61,-218.11 1057.93,-213.56"/>
</g>
<!-- intro_skipper_update_notification&#45;&gt;intro_skipper_entry_point -->
<g id="edge52" class="edge">
<title>intro_skipper_update_notification&#45;&gt;intro_skipper_entry_point</title><style>.edge>path:hover{stroke-width:8}</style>
<path fill="none" stroke="black" d="M134.73,-257.03C178.29,-239.1 239.89,-210.08 248.88,-186.14"/>
</g>
<!-- requests -->
<g id="node18" class="node">
<title>requests</title><style>.edge>path:hover{stroke-width:8}</style>
<ellipse fill="#33cc33" stroke="black" cx="156.88" cy="-556.44" rx="32.17" ry="18"/>
<text xml:space="preserve" text-anchor="middle" x="156.88" y="-552.94" font-family="Helvetica,sans-Serif" font-size="10.00" fill="#000000">requests</text>
</g>
<!-- requests&#45;&gt;intro_skipper_browser_chrome_connection -->
<g id="edge53" class="edge">
<title>requests&#45;&gt;intro_skipper_browser_chrome_connection</title><style>.edge>path:hover{stroke-width:8}</style>
<path fill="none" stroke="black" d="M156.88,-372.1C158.92,-345.6 177.68,-323.5 197.74,-307.18"/>
<polygon fill="#33cc33" stroke="black" points="199.68,-310.11 205.48,-301.25 195.42,-304.56 199.68,-310.11"/>
</g>
<!-- requests&#45;&gt;intro_skipper_update_notification -->
<g id="edge54" class="edge">
<title>requests&#45;&gt;intro_skipper_update_notification</title><style>.edge>path:hover{stroke-width:8}</style>
<path fill="none" stroke="black" d="M156.13,-538.16C154.89,-505.89 152.92,-434.26 156.88,-374.1"/>
<path fill="none" stroke="black" d="M156.88,-372.1C158.9,-345.83 141.83,-321.41 124.54,-303.75"/>
<polygon fill="#33cc33" stroke="black" points="127.37,-301.61 117.74,-297.18 122.5,-306.64 127.37,-301.61"/>
</g>
<!-- websocket -->
<g id="node19" class="node">
<title>websocket</title><style>.edge>path:hover{stroke-width:8}</style>
<ellipse fill="#5353b6" stroke="black" cx="309.88" cy="-556.44" rx="38.03" ry="18"/>
<text xml:space="preserve" text-anchor="middle" x="309.88" y="-552.94" font-family="Helvetica,sans-Serif" font-size="10.00" fill="#ffffff">websocket</text>
</g>
<!-- websocket&#45;&gt;intro_skipper_browser_chrome_connection -->
<g id="edge55" class="edge">
<title>websocket&#45;&gt;intro_skipper_browser_chrome_connection</title><style>.edge>path:hover{stroke-width:8}</style>
<path fill="none" stroke="black" d="M309.88,-372.1C292.87,-356.09 278.57,-334.37 268.1,-315.61"/>
<polygon fill="#5353b6" stroke="black" points="271.22,-314.03 263.4,-306.89 265.06,-317.35 271.22,-314.03"/>
<path fill="none" stroke="black" d="M312.88,-538.16C319.52,-497.19 333.15,-396 309.88,-374.1"/>
</g>
</g>
</svg>
