<?xml version="1.0" encoding="UTF-8" standalone="no"?>
<!DOCTYPE svg PUBLIC "-//W3C//DTD SVG 1.1//EN"
 "http://www.w3.org/Graphics/SVG/1.1/DTD/svg11.dtd">
<!-- Generated by graphviz version 15.1.0 (20260618.0150)
 -->
<!-- Title: G Pages: 1 -->
<svg width="1166pt" height="501pt"
 viewBox="0.00 0.00 1166.00 501.00" xmlns="http://www.w3.org/2000/svg" xmlns:xlink="http://www.w3.org/1999/xlink">
<g id="graph0" class="graph" transform="scale(1 1) rotate(0) translate(4 497.19)">
<title>G</title><style>.edge>path:hover{stroke-width:8}</style>
<polygon fill="white" stroke="none" points="-4,4 -4,-497.19 1162.48,-497.19 1162.48,4 -4,4"/>
<!-- intro_skipper_application -->
<g id="node1" class="node">
<title>intro_skipper_application</title><style>.edge>path:hover{stroke-width:8}</style>
<ellipse fill="#883a3a" stroke="black" cx="703.17" cy="-103.88" rx="52.68" ry="22.63"/>
<text xml:space="preserve" text-anchor="middle" x="703.17" y="-106.38" font-family="Helvetica,sans-Serif" font-size="10.00" fill="#ffffff">intro_skipper.</text>
<text xml:space="preserve" text-anchor="middle" x="703.17" y="-94.38" font-family="Helvetica,sans-Serif" font-size="10.00" fill="#ffffff">application</text>
</g>
<!-- intro_skipper_browser -->
<g id="node2" class="node">
<title>intro_skipper_browser</title><style>.edge>path:hover{stroke-width:8}</style>
<ellipse fill="#db2f2f" stroke="black" cx="703.17" cy="-193.62" rx="52.68" ry="22.63"/>
<text xml:space="preserve" text-anchor="middle" x="703.17" y="-196.12" font-family="Helvetica,sans-Serif" font-size="10.00" fill="#ffffff">intro_skipper.</text>
<text xml:space="preserve" text-anchor="middle" x="703.17" y="-184.12" font-family="Helvetica,sans-Serif" font-size="10.00" fill="#ffffff">browser</text>
</g>
<!-- intro_skipper_browser&#45;&gt;intro_skipper_application -->
<g id="edge1" class="edge">
<title>intro_skipper_browser&#45;&gt;intro_skipper_application</title><style>.edge>path:hover{stroke-width:8}</style>
<path fill="none" stroke="black" d="M703.17,-170.93C703.17,-161.1 703.17,-149.24 703.17,-138.3"/>
<polygon fill="#db2f2f" stroke="black" points="706.67,-138.44 703.17,-128.44 699.67,-138.44 706.67,-138.44"/>
</g>
<!-- intro_skipper_browser_browser_connection -->
<g id="node3" class="node">
<title>intro_skipper_browser_browser_connection</title><style>.edge>path:hover{stroke-width:8}</style>
<ellipse fill="#db2f2f" stroke="black" cx="360.17" cy="-291.85" rx="72.83" ry="31.11"/>
<text xml:space="preserve" text-anchor="middle" x="360.17" y="-300.35" font-family="Helvetica,sans-Serif" font-size="10.00" fill="#ffffff">intro_skipper.</text>
<text xml:space="preserve" text-anchor="middle" x="360.17" y="-288.35" font-family="Helvetica,sans-Serif" font-size="10.00" fill="#ffffff">browser.</text>
<text xml:space="preserve" text-anchor="middle" x="360.17" y="-276.35" font-family="Helvetica,sans-Serif" font-size="10.00" fill="#ffffff">browser_connection</text>
</g>
<!-- intro_skipper_browser_browser_connection&#45;&gt;intro_skipper_application -->
<g id="edge2" class="edge">
<title>intro_skipper_browser_browser_connection&#45;&gt;intro_skipper_application</title><style>.edge>path:hover{stroke-width:8}</style>
<path fill="none" stroke="black" d="M312.61,-267.88C282.88,-250.1 252.91,-223.68 268.17,-194.62"/>
</g>
<!-- intro_skipper_browser_chrome_connection -->
<g id="node4" class="node">
<title>intro_skipper_browser_chrome_connection</title><style>.edge>path:hover{stroke-width:8}</style>
<ellipse fill="#883a3a" stroke="black" cx="169.17" cy="-193.62" rx="71.24" ry="31.11"/>
<text xml:space="preserve" text-anchor="middle" x="169.17" y="-202.12" font-family="Helvetica,sans-Serif" font-size="10.00" fill="#ffffff">intro_skipper.</text>
<text xml:space="preserve" text-anchor="middle" x="169.17" y="-190.12" font-family="Helvetica,sans-Serif" font-size="10.00" fill="#ffffff">browser.</text>
<text xml:space="preserve" text-anchor="middle" x="169.17" y="-178.12" font-family="Helvetica,sans-Serif" font-size="10.00" fill="#ffffff">chrome_connection</text>
</g>
<!-- intro_skipper_browser_browser_connection&#45;&gt;intro_skipper_browser_chrome_connection -->
<g id="edge3" class="edge">
<title>intro_skipper_browser_browser_connection&#45;&gt;intro_skipper_browser_chrome_connection</title><style>.edge>path:hover{stroke-width:8}</style>
<path fill="none" stroke="black" d="M313.94,-267.55C287.19,-254.08 253.35,-237.03 225.11,-222.8"/>
<polygon fill="#db2f2f" stroke="black" points="226.84,-219.76 216.33,-218.38 223.69,-226.01 226.84,-219.76"/>
</g>
<!-- intro_skipper_browser_chrome_launcher -->
<g id="node5" class="node">
<title>intro_skipper_browser_chrome_launcher</title><style>.edge>path:hover{stroke-width:8}</style>
<ellipse fill="#964040" stroke="black" cx="360.17" cy="-193.62" rx="63.82" ry="31.11"/>
<text xml:space="preserve" text-anchor="middle" x="360.17" y="-202.12" font-family="Helvetica,sans-Serif" font-size="10.00" fill="#ffffff">intro_skipper.</text>
<text xml:space="preserve" text-anchor="middle" x="360.17" y="-190.12" font-family="Helvetica,sans-Serif" font-size="10.00" fill="#ffffff">browser.</text>
<text xml:space="preserve" text-anchor="middle" x="360.17" y="-178.12" font-family="Helvetica,sans-Serif" font-size="10.00" fill="#ffffff">chrome_launcher</text>
</g>
<!-- intro_skipper_browser_browser_connection&#45;&gt;intro_skipper_browser_chrome_launcher -->
<g id="edge4" class="edge">
<title>intro_skipper_browser_browser_connection&#45;&gt;intro_skipper_browser_chrome_launcher</title><style>.edge>path:hover{stroke-width:8}</style>
<path fill="none" stroke="black" d="M360.17,-260.4C360.17,-252.85 360.17,-244.63 360.17,-236.64"/>
<polygon fill="#db2f2f" stroke="black" points="363.67,-236.71 360.17,-226.71 356.67,-236.71 363.67,-236.71"/>
</g>
<!-- intro_skipper_command_line_arguments -->
<g id="node6" class="node">
<title>intro_skipper_command_line_arguments</title><style>.edge>path:hover{stroke-width:8}</style>
<ellipse fill="#8f3d3d" stroke="black" cx="610.17" cy="-22.63" rx="91.92" ry="22.63"/>
<text xml:space="preserve" text-anchor="middle" x="610.17" y="-25.13" font-family="Helvetica,sans-Serif" font-size="10.00" fill="#ffffff">intro_skipper.</text>
<text xml:space="preserve" text-anchor="middle" x="610.17" y="-13.13" font-family="Helvetica,sans-Serif" font-size="10.00" fill="#ffffff">command_line_arguments</text>
</g>
<!-- intro_skipper_helpers -->
<g id="node7" class="node">
<title>intro_skipper_helpers</title><style>.edge>path:hover{stroke-width:8}</style>
<ellipse fill="#f91010" stroke="black" cx="302.17" cy="-390.07" rx="52.68" ry="22.63"/>
<text xml:space="preserve" text-anchor="middle" x="302.17" y="-392.57" font-family="Helvetica,sans-Serif" font-size="10.00" fill="#ffffff">intro_skipper.</text>
<text xml:space="preserve" text-anchor="middle" x="302.17" y="-380.57" font-family="Helvetica,sans-Serif" font-size="10.00" fill="#ffffff">helpers</text>
</g>
<!-- intro_skipper_helpers&#45;&gt;intro_skipper_application -->
<g id="edge5" class="edge">
<title>intro_skipper_helpers&#45;&gt;intro_skipper_application</title><style>.edge>path:hover{stroke-width:8}</style>
<path fill="none" stroke="black" d="M268.17,-192.62C275.53,-178.61 273.87,-171.09 287.17,-162.51 344.11,-125.79 537.6,-112.01 639.39,-107.22"/>
<polygon fill="#f91010" stroke="black" points="639.39,-110.72 649.22,-106.77 639.07,-103.73 639.39,-110.72"/>
<path fill="none" stroke="black" d="M290.06,-367.57C270.76,-330.21 238.12,-251.81 268.17,-194.62"/>
</g>
<!-- intro_skipper_helpers&#45;&gt;intro_skipper_browser_chrome_connection -->
<g id="edge6" class="edge">
<title>intro_skipper_helpers&#45;&gt;intro_skipper_browser_chrome_connection</title><style>.edge>path:hover{stroke-width:8}</style>
<path fill="none" stroke="black" d="M283.99,-368.41C272.69,-355.46 257.94,-338.36 245.17,-322.96 234.25,-309.79 231.63,-306.39 221.17,-292.85"/>
</g>
<!-- intro_skipper_helpers&#45;&gt;intro_skipper_browser_chrome_launcher -->
<g id="edge7" class="edge">
<title>intro_skipper_helpers&#45;&gt;intro_skipper_browser_chrome_launcher</title><style>.edge>path:hover{stroke-width:8}</style>
<path fill="none" stroke="black" d="M344.36,-376.24C374.2,-365.59 413.79,-348.08 442.17,-322.96 454.02,-312.47 462.11,-308.64 461.17,-292.85"/>
<path fill="none" stroke="black" d="M461.17,-290.85C459.45,-261.84 437.16,-238.89 413.95,-222.69"/>
<polygon fill="#f91010" stroke="black" points="415.91,-219.78 405.63,-217.21 412.06,-225.63 415.91,-219.78"/>
</g>
<!-- intro_skipper_helpers&#45;&gt;intro_skipper_command_line_arguments -->
<g id="edge8" class="edge">
<title>intro_skipper_helpers&#45;&gt;intro_skipper_command_line_arguments</title><style>.edge>path:hover{stroke-width:8}</style>
<path fill="none" stroke="black" d="M266.04,-373.32C189.56,-337.8 23.55,-247.92 89.17,-162.51 141.01,-95.05 381.88,-53.37 517.23,-34.87"/>
<polygon fill="#f91010" stroke="black" points="517.44,-38.37 526.88,-33.57 516.5,-31.44 517.44,-38.37"/>
</g>
<!-- intro_skipper_logging_configuration -->
<g id="node9" class="node">
<title>intro_skipper_logging_configuration</title><style>.edge>path:hover{stroke-width:8}</style>
<ellipse fill="#a44646" stroke="black" cx="518.17" cy="-193.62" rx="76.01" ry="22.63"/>
<text xml:space="preserve" text-anchor="middle" x="518.17" y="-196.12" font-family="Helvetica,sans-Serif" font-size="10.00" fill="#ffffff">intro_skipper.</text>
<text xml:space="preserve" text-anchor="middle" x="518.17" y="-184.12" font-family="Helvetica,sans-Serif" font-size="10.00" fill="#ffffff">logging_configuration</text>
</g>
<!-- intro_skipper_helpers&#45;&gt;intro_skipper_logging_configuration -->
<g id="edge9" class="edge">
<title>intro_skipper_helpers&#45;&gt;intro_skipper_logging_configuration</title><style>.edge>path:hover{stroke-width:8}</style>
<path fill="none" stroke="black" d="M551.17,-290.85C575.63,-280.63 560.07,-249.32 543.01,-225.16"/>
<polygon fill="#f91010" stroke="black" points="545.88,-223.16 537.12,-217.2 540.25,-227.32 545.88,-223.16"/>
<path fill="none" stroke="black" d="M341.25,-374.72C390.5,-356.45 477.62,-323.58 551.17,-292.85"/>
</g>
<!-- intro_skipper_services_streaming_service_catalog -->
<g id="node12" class="node">
<title>intro_skipper_services_streaming_service_catalog</title><style>.edge>path:hover{stroke-width:8}</style>
<ellipse fill="#a13535" stroke="black" cx="1029.17" cy="-193.62" rx="93.51" ry="31.11"/>
<text xml:space="preserve" text-anchor="middle" x="1029.17" y="-202.12" font-family="Helvetica,sans-Serif" font-size="10.00" fill="#ffffff">intro_skipper.</text>
<text xml:space="preserve" text-anchor="middle" x="1029.17" y="-190.12" font-family="Helvetica,sans-Serif" font-size="10.00" fill="#ffffff">services.</text>
<text xml:space="preserve" text-anchor="middle" x="1029.17" y="-178.12" font-family="Helvetica,sans-Serif" font-size="10.00" fill="#ffffff">streaming_service_catalog</text>
</g>
<!-- intro_skipper_helpers&#45;&gt;intro_skipper_services_streaming_service_catalog -->
<g id="edge10" class="edge">
<title>intro_skipper_helpers&#45;&gt;intro_skipper_services_streaming_service_catalog</title><style>.edge>path:hover{stroke-width:8}</style>
<path fill="none" stroke="black" d="M551.17,-290.85C577.61,-279.8 580.79,-269.18 608.17,-260.74 744.51,-218.68 787.33,-253.04 927.17,-224.74 935.29,-223.09 943.69,-221.1 952.03,-218.93"/>
<polygon fill="#f91010" stroke="black" points="952.72,-222.37 961.47,-216.39 950.9,-215.61 952.72,-222.37"/>
</g>
<!-- intro_skipper_helpers_constants -->
<g id="node8" class="node">
<title>intro_skipper_helpers_constants</title><style>.edge>path:hover{stroke-width:8}</style>
<ellipse fill="#f91010" stroke="black" cx="461.17" cy="-390.07" rx="52.68" ry="31.11"/>
<text xml:space="preserve" text-anchor="middle" x="461.17" y="-398.57" font-family="Helvetica,sans-Serif" font-size="10.00" fill="#ffffff">intro_skipper.</text>
<text xml:space="preserve" text-anchor="middle" x="461.17" y="-386.57" font-family="Helvetica,sans-Serif" font-size="10.00" fill="#ffffff">helpers.</text>
<text xml:space="preserve" text-anchor="middle" x="461.17" y="-374.57" font-family="Helvetica,sans-Serif" font-size="10.00" fill="#ffffff">constants</text>
</g>
<!-- intro_skipper_helpers_constants&#45;&gt;intro_skipper_application -->
<g id="edge11" class="edge">
<title>intro_skipper_helpers_constants&#45;&gt;intro_skipper_application</title><style>.edge>path:hover{stroke-width:8}</style>
<path fill="none" stroke="black" d="M622.17,-290.85C667.74,-255.51 614.32,-213.54 641.17,-162.51 647.47,-150.54 657.25,-139.73 667.2,-130.79"/>
<polygon fill="#f91010" stroke="black" points="669.37,-133.54 674.75,-124.41 664.85,-128.19 669.37,-133.54"/>
</g>
<!-- intro_skipper_helpers_constants&#45;&gt;intro_skipper_browser_chrome_connection -->
<g id="edge12" class="edge">
<title>intro_skipper_helpers_constants&#45;&gt;intro_skipper_browser_chrome_connection</title><style>.edge>path:hover{stroke-width:8}</style>
<path fill="none" stroke="black" d="M415.36,-374.5C377.92,-362.12 323.9,-343.18 278.17,-322.96 251.97,-311.37 238.68,-315.53 221.17,-292.85"/>
</g>
<!-- intro_skipper_helpers_constants&#45;&gt;intro_skipper_browser_chrome_launcher -->
<g id="edge13" class="edge">
<title>intro_skipper_helpers_constants&#45;&gt;intro_skipper_browser_chrome_launcher</title><style>.edge>path:hover{stroke-width:8}</style>
<path fill="none" stroke="black" d="M462.09,-358.71C462.44,-339.76 462.48,-314.86 461.17,-292.85"/>
</g>
<!-- intro_skipper_helpers_constants&#45;&gt;intro_skipper_command_line_arguments -->
<g id="edge14" class="edge">
<title>intro_skipper_helpers_constants&#45;&gt;intro_skipper_command_line_arguments</title><style>.edge>path:hover{stroke-width:8}</style>
<path fill="none" stroke="black" d="M514,-386.88C659.79,-380.38 1060.02,-359.36 1106.17,-322.96 1153.63,-285.53 1134.59,-252.75 1151.17,-194.62"/>
</g>
<!-- intro_skipper_helpers_constants&#45;&gt;intro_skipper_logging_configuration -->
<g id="edge15" class="edge">
<title>intro_skipper_helpers_constants&#45;&gt;intro_skipper_logging_configuration</title><style>.edge>path:hover{stroke-width:8}</style>
<path fill="none" stroke="black" d="M622.17,-290.85C651.83,-267.85 609.2,-238.08 569.91,-217.79"/>
<polygon fill="#f91010" stroke="black" points="571.9,-214.87 561.39,-213.52 568.76,-221.13 571.9,-214.87"/>
<path fill="none" stroke="black" d="M500.6,-369C534.28,-351.04 583.32,-322.98 622.17,-292.85"/>
</g>
<!-- intro_skipper_helpers_constants&#45;&gt;intro_skipper_services_streaming_service_catalog -->
<g id="edge16" class="edge">
<title>intro_skipper_helpers_constants&#45;&gt;intro_skipper_services_streaming_service_catalog</title><style>.edge>path:hover{stroke-width:8}</style>
<path fill="none" stroke="black" d="M622.17,-290.85C731.78,-205.85 792.79,-259.09 927.17,-224.74 934.71,-222.81 942.53,-220.7 950.34,-218.52"/>
<polygon fill="#f91010" stroke="black" points="951.21,-221.91 959.87,-215.82 949.3,-215.18 951.21,-221.91"/>
</g>
<!-- intro_skipper_services -->
<g id="node10" class="node">
<title>intro_skipper_services</title><style>.edge>path:hover{stroke-width:8}</style>
<ellipse fill="#db2f2f" stroke="black" cx="865.17" cy="-193.62" rx="52.68" ry="22.63"/>
<text xml:space="preserve" text-anchor="middle" x="865.17" y="-196.12" font-family="Helvetica,sans-Serif" font-size="10.00" fill="#ffffff">intro_skipper.</text>
<text xml:space="preserve" text-anchor="middle" x="865.17" y="-184.12" font-family="Helvetica,sans-Serif" font-size="10.00" fill="#ffffff">services</text>
</g>
<!-- intro_skipper_services&#45;&gt;intro_skipper_application -->
<g id="edge17" class="edge">
<title>intro_skipper_services&#45;&gt;intro_skipper_application</title><style>.edge>path:hover{stroke-width:8}</style>
<path fill="none" stroke="black" d="M833.17,-175.29C807.98,-161.65 772.68,-142.53 745.21,-127.65"/>
<polygon fill="#db2f2f" stroke="black" points="746.9,-124.59 736.44,-122.9 743.57,-130.74 746.9,-124.59"/>
</g>
<!-- intro_skipper_services&#45;&gt;intro_skipper_command_line_arguments -->
<g id="edge18" class="edge">
<title>intro_skipper_services&#45;&gt;intro_skipper_command_line_arguments</title><style>.edge>path:hover{stroke-width:8}</style>
<path fill="none" stroke="black" d="M897.23,-175.24C906.4,-170.7 916.54,-166.08 926.17,-162.51 1022.98,-126.66 1173.41,-205.69 1151.17,-104.88"/>
<path fill="none" stroke="black" d="M1151.17,-102.88C1141.75,-60.15 865.24,-37.86 711.28,-28.73"/>
<polygon fill="#db2f2f" stroke="black" points="711.66,-25.25 701.47,-28.16 711.25,-32.24 711.66,-25.25"/>
</g>
<!-- intro_skipper_services_streaming_service -->
<g id="node11" class="node">
<title>intro_skipper_services_streaming_service</title><style>.edge>path:hover{stroke-width:8}</style>
<ellipse fill="#db2f2f" stroke="black" cx="1029.17" cy="-291.85" rx="67.53" ry="31.11"/>
<text xml:space="preserve" text-anchor="middle" x="1029.17" y="-300.35" font-family="Helvetica,sans-Serif" font-size="10.00" fill="#ffffff">intro_skipper.</text>
<text xml:space="preserve" text-anchor="middle" x="1029.17" y="-288.35" font-family="Helvetica,sans-Serif" font-size="10.00" fill="#ffffff">services.</text>
<text xml:space="preserve" text-anchor="middle" x="1029.17" y="-276.35" font-family="Helvetica,sans-Serif" font-size="10.00" fill="#ffffff">streaming_service</text>
</g>
<!-- intro_skipper_services_streaming_service&#45;&gt;intro_skipper_application -->
<g id="edge19" class="edge">
<title>intro_skipper_services_streaming_service&#45;&gt;intro_skipper_application</title><style>.edge>path:hover{stroke-width:8}</style>
<path fill="none" stroke="black" d="M963.33,-284.39C914.89,-276.8 849.66,-260.34 803.17,-224.74 777.44,-205.03 785.68,-187.6 765.17,-162.51 756.4,-151.77 745.67,-141.12 735.62,-131.95"/>
<polygon fill="#db2f2f" stroke="black" points="737.95,-129.35 728.16,-125.31 733.3,-134.58 737.95,-129.35"/>
</g>
<!-- intro_skipper_services_streaming_service&#45;&gt;intro_skipper_command_line_arguments -->
<g id="edge20" class="edge">
<title>intro_skipper_services_streaming_service&#45;&gt;intro_skipper_command_line_arguments</title><style>.edge>path:hover{stroke-width:8}</style>
<path fill="none" stroke="black" d="M1078.48,-270.15C1107.8,-254.49 1141.18,-229.64 1151.17,-194.62"/>
<path fill="none" stroke="black" d="M1151.17,-192.62C1161.87,-155.12 1159.57,-142.96 1151.17,-104.88"/>
</g>
<!-- intro_skipper_services_streaming_service&#45;&gt;intro_skipper_services_streaming_service_catalog -->
<g id="edge21" class="edge">
<title>intro_skipper_services_streaming_service&#45;&gt;intro_skipper_services_streaming_service_catalog</title><style>.edge>path:hover{stroke-width:8}</style>
<path fill="none" stroke="black" d="M1029.17,-260.4C1029.17,-252.85 1029.17,-244.63 1029.17,-236.64"/>
<polygon fill="#db2f2f" stroke="black" points="1032.67,-236.71 1029.17,-226.71 1025.67,-236.71 1032.67,-236.71"/>
</g>
<!-- intro_skipper_services_streaming_service_catalog&#45;&gt;intro_skipper_command_line_arguments -->
<g id="edge22" class="edge">
<title>intro_skipper_services_streaming_service_catalog&#45;&gt;intro_skipper_command_line_arguments</title><style>.edge>path:hover{stroke-width:8}</style>
<path fill="none" stroke="black" d="M1097.83,-172.23C1129.27,-158.39 1158.2,-136.73 1151.17,-104.88"/>
</g>
<!-- requests -->
<g id="node13" class="node">
<title>requests</title><style>.edge>path:hover{stroke-width:8}</style>
<ellipse fill="#40c040" stroke="black" cx="32.17" cy="-475.19" rx="32.17" ry="18"/>
<text xml:space="preserve" text-anchor="middle" x="32.17" y="-471.69" font-family="Helvetica,sans-Serif" font-size="10.00" fill="#000000">requests</text>
</g>
<!-- requests&#45;&gt;intro_skipper_browser_chrome_connection -->
<g id="edge23" class="edge">
<title>requests&#45;&gt;intro_skipper_browser_chrome_connection</title><style>.edge>path:hover{stroke-width:8}</style>
<path fill="none" stroke="black" d="M40.33,-457.54C61.57,-414.2 119.02,-296.95 149.53,-234.71"/>
<polygon fill="#40c040" stroke="black" points="152.61,-236.36 153.87,-225.84 146.33,-233.28 152.61,-236.36"/>
</g>
<!-- websocket -->
<g id="node14" class="node">
<title>websocket</title><style>.edge>path:hover{stroke-width:8}</style>
<ellipse fill="#5353b6" stroke="black" cx="221.17" cy="-475.19" rx="38.03" ry="18"/>
<text xml:space="preserve" text-anchor="middle" x="221.17" y="-471.69" font-family="Helvetica,sans-Serif" font-size="10.00" fill="#ffffff">websocket</text>
</g>
<!-- websocket&#45;&gt;intro_skipper_browser_chrome_connection -->
<g id="edge24" class="edge">
<title>websocket&#45;&gt;intro_skipper_browser_chrome_connection</title><style>.edge>path:hover{stroke-width:8}</style>
<path fill="none" stroke="black" d="M223.77,-456.74C229.37,-416.37 240.6,-318.02 221.17,-292.85"/>
<path fill="none" stroke="black" d="M221.17,-290.85C207.76,-273.73 195.94,-252.67 186.98,-234.62"/>
<polygon fill="#5353b6" stroke="black" points="190.2,-233.24 182.69,-225.75 183.89,-236.28 190.2,-233.24"/>
</g>
</g>
</svg>
