<?xml version="1.0" encoding="UTF-8" standalone="no"?>
<!DOCTYPE svg PUBLIC "-//W3C//DTD SVG 1.1//EN"
 "http://www.w3.org/Graphics/SVG/1.1/DTD/svg11.dtd">
<!-- Generated by graphviz version 15.1.0 (20260618.0150)
 -->
<!-- Title: G Pages: 1 -->
<svg width="1038pt" height="420pt"
 viewBox="0.00 0.00 1038.00 420.00" xmlns="http://www.w3.org/2000/svg" xmlns:xlink="http://www.w3.org/1999/xlink">
<g id="graph0" class="graph" transform="scale(1 1) rotate(0) translate(4 415.93)">
<title>G</title><style>.edge>path:hover{stroke-width:8}</style>
<polygon fill="white" stroke="none" points="-4,4 -4,-415.93 1033.92,-415.93 1033.92,4 -4,4"/>
<!-- intro_skipper_application -->
<g id="node1" class="node">
<title>intro_skipper_application</title><style>.edge>path:hover{stroke-width:8}</style>
<ellipse fill="#883a3a" stroke="black" cx="647.68" cy="-22.63" rx="52.68" ry="22.63"/>
<text xml:space="preserve" text-anchor="middle" x="647.68" y="-25.13" font-family="Helvetica,sans-Serif" font-size="10.00" fill="#ffffff">intro_skipper.</text>
<text xml:space="preserve" text-anchor="middle" x="647.68" y="-13.13" font-family="Helvetica,sans-Serif" font-size="10.00" fill="#ffffff">application</text>
</g>
<!-- intro_skipper_browser -->
<g id="node2" class="node">
<title>intro_skipper_browser</title><style>.edge>path:hover{stroke-width:8}</style>
<ellipse fill="#db2f2f" stroke="black" cx="52.68" cy="-112.37" rx="52.68" ry="22.63"/>
<text xml:space="preserve" text-anchor="middle" x="52.68" y="-114.87" font-family="Helvetica,sans-Serif" font-size="10.00" fill="#ffffff">intro_skipper.</text>
<text xml:space="preserve" text-anchor="middle" x="52.68" y="-102.87" font-family="Helvetica,sans-Serif" font-size="10.00" fill="#ffffff">browser</text>
</g>
<!-- intro_skipper_browser&#45;&gt;intro_skipper_application -->
<g id="edge1" class="edge">
<title>intro_skipper_browser&#45;&gt;intro_skipper_application</title><style>.edge>path:hover{stroke-width:8}</style>
<path fill="none" stroke="black" d="M83.7,-93.71C93.35,-88.94 104.21,-84.26 114.68,-81.25 278.98,-34.03 481.88,-24.9 583.43,-23.52"/>
<polygon fill="#db2f2f" stroke="black" points="583.23,-27.02 593.19,-23.41 583.15,-20.02 583.23,-27.02"/>
</g>
<!-- intro_skipper_browser_browser_connection -->
<g id="node3" class="node">
<title>intro_skipper_browser_browser_connection</title><style>.edge>path:hover{stroke-width:8}</style>
<ellipse fill="#db2f2f" stroke="black" cx="385.68" cy="-210.59" rx="72.83" ry="31.11"/>
<text xml:space="preserve" text-anchor="middle" x="385.68" y="-219.09" font-family="Helvetica,sans-Serif" font-size="10.00" fill="#ffffff">intro_skipper.</text>
<text xml:space="preserve" text-anchor="middle" x="385.68" y="-207.09" font-family="Helvetica,sans-Serif" font-size="10.00" fill="#ffffff">browser.</text>
<text xml:space="preserve" text-anchor="middle" x="385.68" y="-195.09" font-family="Helvetica,sans-Serif" font-size="10.00" fill="#ffffff">browser_connection</text>
</g>
<!-- intro_skipper_browser_browser_connection&#45;&gt;intro_skipper_application -->
<g id="edge2" class="edge">
<title>intro_skipper_browser_browser_connection&#45;&gt;intro_skipper_application</title><style>.edge>path:hover{stroke-width:8}</style>
<path fill="none" stroke="black" d="M338.29,-186.76C307.6,-168.66 276.32,-141.76 293.68,-113.37"/>
</g>
<!-- intro_skipper_browser_chrome_connection -->
<g id="node4" class="node">
<title>intro_skipper_browser_chrome_connection</title><style>.edge>path:hover{stroke-width:8}</style>
<ellipse fill="#883a3a" stroke="black" cx="194.68" cy="-112.37" rx="71.24" ry="31.11"/>
<text xml:space="preserve" text-anchor="middle" x="194.68" y="-120.87" font-family="Helvetica,sans-Serif" font-size="10.00" fill="#ffffff">intro_skipper.</text>
<text xml:space="preserve" text-anchor="middle" x="194.68" y="-108.87" font-family="Helvetica,sans-Serif" font-size="10.00" fill="#ffffff">browser.</text>
<text xml:space="preserve" text-anchor="middle" x="194.68" y="-96.87" font-family="Helvetica,sans-Serif" font-size="10.00" fill="#ffffff">chrome_connection</text>
</g>
<!-- intro_skipper_browser_browser_connection&#45;&gt;intro_skipper_browser_chrome_connection -->
<g id="edge3" class="edge">
<title>intro_skipper_browser_browser_connection&#45;&gt;intro_skipper_browser_chrome_connection</title><style>.edge>path:hover{stroke-width:8}</style>
<path fill="none" stroke="black" d="M339.44,-186.3C312.7,-172.83 278.85,-155.77 250.62,-141.55"/>
<polygon fill="#db2f2f" stroke="black" points="252.35,-138.5 241.84,-137.13 249.2,-144.75 252.35,-138.5"/>
</g>
<!-- intro_skipper_browser_chrome_launcher -->
<g id="node5" class="node">
<title>intro_skipper_browser_chrome_launcher</title><style>.edge>path:hover{stroke-width:8}</style>
<ellipse fill="#964040" stroke="black" cx="385.68" cy="-112.37" rx="63.82" ry="31.11"/>
<text xml:space="preserve" text-anchor="middle" x="385.68" y="-120.87" font-family="Helvetica,sans-Serif" font-size="10.00" fill="#ffffff">intro_skipper.</text>
<text xml:space="preserve" text-anchor="middle" x="385.68" y="-108.87" font-family="Helvetica,sans-Serif" font-size="10.00" fill="#ffffff">browser.</text>
<text xml:space="preserve" text-anchor="middle" x="385.68" y="-96.87" font-family="Helvetica,sans-Serif" font-size="10.00" fill="#ffffff">chrome_launcher</text>
</g>
<!-- intro_skipper_browser_browser_connection&#45;&gt;intro_skipper_browser_chrome_launcher -->
<g id="edge4" class="edge">
<title>intro_skipper_browser_browser_connection&#45;&gt;intro_skipper_browser_chrome_launcher</title><style>.edge>path:hover{stroke-width:8}</style>
<path fill="none" stroke="black" d="M385.68,-179.15C385.68,-171.6 385.68,-163.38 385.68,-155.39"/>
<polygon fill="#db2f2f" stroke="black" points="389.18,-155.46 385.68,-145.46 382.18,-155.46 389.18,-155.46"/>
</g>
<!-- intro_skipper_helpers -->
<g id="node6" class="node">
<title>intro_skipper_helpers</title><style>.edge>path:hover{stroke-width:8}</style>
<ellipse fill="#f31616" stroke="black" cx="581.68" cy="-308.82" rx="52.68" ry="22.63"/>
<text xml:space="preserve" text-anchor="middle" x="581.68" y="-311.32" font-family="Helvetica,sans-Serif" font-size="10.00" fill="#ffffff">intro_skipper.</text>
<text xml:space="preserve" text-anchor="middle" x="581.68" y="-299.32" font-family="Helvetica,sans-Serif" font-size="10.00" fill="#ffffff">helpers</text>
</g>
<!-- intro_skipper_helpers&#45;&gt;intro_skipper_application -->
<g id="edge5" class="edge">
<title>intro_skipper_helpers&#45;&gt;intro_skipper_application</title><style>.edge>path:hover{stroke-width:8}</style>
<path fill="none" stroke="black" d="M1014.68,-209.59C1036.92,-156.39 1036.1,-122.37 995.68,-81.25 957.12,-42.03 801.34,-29.48 711.82,-25.48"/>
<polygon fill="#f31616" stroke="black" points="712.1,-21.99 701.96,-25.07 711.81,-28.98 712.1,-21.99"/>
</g>
<!-- intro_skipper_helpers&#45;&gt;intro_skipper_browser_chrome_connection -->
<g id="edge6" class="edge">
<title>intro_skipper_helpers&#45;&gt;intro_skipper_browser_chrome_connection</title><style>.edge>path:hover{stroke-width:8}</style>
<path fill="none" stroke="black" d="M550.44,-290.21C541.11,-285.55 530.68,-280.93 520.68,-277.71 427.62,-247.74 386.24,-294.07 303.68,-241.71 275.29,-223.7 282.2,-205.31 260.68,-179.48 252,-169.06 241.95,-158.4 232.36,-148.76"/>
<polygon fill="#f31616" stroke="black" points="235.09,-146.54 225.52,-142 230.17,-151.52 235.09,-146.54"/>
</g>
<!-- intro_skipper_helpers&#45;&gt;intro_skipper_browser_chrome_launcher -->
<g id="edge7" class="edge">
<title>intro_skipper_helpers&#45;&gt;intro_skipper_browser_chrome_launcher</title><style>.edge>path:hover{stroke-width:8}</style>
<path fill="none" stroke="black" d="M543.68,-209.59C533.76,-192.39 526.92,-190.9 510.68,-179.48 489.36,-164.48 464.22,-150.55 442.1,-139.38"/>
<polygon fill="#f31616" stroke="black" points="443.71,-136.28 433.2,-134.96 440.6,-142.55 443.71,-136.28"/>
<path fill="none" stroke="black" d="M575.1,-285.96C568.59,-265.9 557.59,-235.71 543.68,-211.59"/>
</g>
<!-- intro_skipper_logging_configuration -->
<g id="node8" class="node">
<title>intro_skipper_logging_configuration</title><style>.edge>path:hover{stroke-width:8}</style>
<ellipse fill="#a44646" stroke="black" cx="543.68" cy="-112.37" rx="76.01" ry="22.63"/>
<text xml:space="preserve" text-anchor="middle" x="543.68" y="-114.87" font-family="Helvetica,sans-Serif" font-size="10.00" fill="#ffffff">intro_skipper.</text>
<text xml:space="preserve" text-anchor="middle" x="543.68" y="-102.87" font-family="Helvetica,sans-Serif" font-size="10.00" fill="#ffffff">logging_configuration</text>
</g>
<!-- intro_skipper_helpers&#45;&gt;intro_skipper_logging_configuration -->
<g id="edge8" class="edge">
<title>intro_skipper_helpers&#45;&gt;intro_skipper_logging_configuration</title><style>.edge>path:hover{stroke-width:8}</style>
<path fill="none" stroke="black" d="M543.68,-209.59C532.78,-190.69 533,-166.02 535.83,-146.4"/>
<polygon fill="#f31616" stroke="black" points="539.25,-147.16 537.54,-136.71 532.36,-145.95 539.25,-147.16"/>
</g>
<!-- intro_skipper_services_streaming_service_catalog -->
<g id="node11" class="node">
<title>intro_skipper_services_streaming_service_catalog</title><style>.edge>path:hover{stroke-width:8}</style>
<ellipse fill="#964040" stroke="black" cx="892.68" cy="-112.37" rx="93.51" ry="31.11"/>
<text xml:space="preserve" text-anchor="middle" x="892.68" y="-120.87" font-family="Helvetica,sans-Serif" font-size="10.00" fill="#ffffff">intro_skipper.</text>
<text xml:space="preserve" text-anchor="middle" x="892.68" y="-108.87" font-family="Helvetica,sans-Serif" font-size="10.00" fill="#ffffff">services.</text>
<text xml:space="preserve" text-anchor="middle" x="892.68" y="-96.87" font-family="Helvetica,sans-Serif" font-size="10.00" fill="#ffffff">streaming_service_catalog</text>
</g>
<!-- intro_skipper_helpers&#45;&gt;intro_skipper_services_streaming_service_catalog -->
<g id="edge9" class="edge">
<title>intro_skipper_helpers&#45;&gt;intro_skipper_services_streaming_service_catalog</title><style>.edge>path:hover{stroke-width:8}</style>
<path fill="none" stroke="black" d="M634.17,-306.05C742.94,-300.98 985.31,-281.84 1014.68,-211.59"/>
<path fill="none" stroke="black" d="M1014.68,-209.59C1027.41,-179.14 1000.11,-155.82 968.13,-139.77"/>
<polygon fill="#f31616" stroke="black" points="970,-136.78 959.46,-135.67 967.01,-143.11 970,-136.78"/>
</g>
<!-- intro_skipper_helpers_constants -->
<g id="node7" class="node">
<title>intro_skipper_helpers_constants</title><style>.edge>path:hover{stroke-width:8}</style>
<ellipse fill="#f31616" stroke="black" cx="458.68" cy="-308.82" rx="52.68" ry="31.11"/>
<text xml:space="preserve" text-anchor="middle" x="458.68" y="-317.32" font-family="Helvetica,sans-Serif" font-size="10.00" fill="#ffffff">intro_skipper.</text>
<text xml:space="preserve" text-anchor="middle" x="458.68" y="-305.32" font-family="Helvetica,sans-Serif" font-size="10.00" fill="#ffffff">helpers.</text>
<text xml:space="preserve" text-anchor="middle" x="458.68" y="-293.32" font-family="Helvetica,sans-Serif" font-size="10.00" fill="#ffffff">constants</text>
</g>
<!-- intro_skipper_helpers_constants&#45;&gt;intro_skipper_application -->
<g id="edge10" class="edge">
<title>intro_skipper_helpers_constants&#45;&gt;intro_skipper_application</title><style>.edge>path:hover{stroke-width:8}</style>
<path fill="none" stroke="black" d="M293.68,-111.37C301.93,-97.87 299.52,-90.05 312.68,-81.25 356.19,-52.18 500.19,-35.73 584.57,-28.37"/>
<polygon fill="#f31616" stroke="black" points="584.63,-31.88 594.3,-27.54 584.04,-24.9 584.63,-31.88"/>
<path fill="none" stroke="black" d="M246.68,-209.59C240.15,-199.65 287.47,-123.52 293.68,-113.37"/>
</g>
<!-- intro_skipper_helpers_constants&#45;&gt;intro_skipper_browser_chrome_connection -->
<g id="edge11" class="edge">
<title>intro_skipper_helpers_constants&#45;&gt;intro_skipper_browser_chrome_connection</title><style>.edge>path:hover{stroke-width:8}</style>
<path fill="none" stroke="black" d="M246.68,-209.59C234.91,-191.68 223.42,-170.86 214.24,-153.18"/>
<polygon fill="#f31616" stroke="black" points="217.48,-151.83 209.81,-144.52 211.25,-155.02 217.48,-151.83"/>
<path fill="none" stroke="black" d="M408.81,-298.29C368.73,-288.84 312.41,-271.38 270.68,-241.71 256.73,-231.79 256.08,-225.9 246.68,-211.59"/>
</g>
<!-- intro_skipper_helpers_constants&#45;&gt;intro_skipper_browser_chrome_launcher -->
<g id="edge12" class="edge">
<title>intro_skipper_helpers_constants&#45;&gt;intro_skipper_browser_chrome_launcher</title><style>.edge>path:hover{stroke-width:8}</style>
<path fill="none" stroke="black" d="M476.12,-279.06C485.8,-260.51 496.03,-235.47 496.68,-211.59"/>
<path fill="none" stroke="black" d="M496.68,-209.59C497.54,-177.92 471.42,-154.32 444.31,-138.43"/>
<polygon fill="#f31616" stroke="black" points="446.09,-135.41 435.64,-133.65 442.71,-141.54 446.09,-135.41"/>
</g>
<!-- intro_skipper_helpers_constants&#45;&gt;intro_skipper_logging_configuration -->
<g id="edge13" class="edge">
<title>intro_skipper_helpers_constants&#45;&gt;intro_skipper_logging_configuration</title><style>.edge>path:hover{stroke-width:8}</style>
<path fill="none" stroke="black" d="M496.68,-209.59C497.32,-186.07 508.81,-162.29 520.27,-144.25"/>
<polygon fill="#f31616" stroke="black" points="523.06,-146.37 525.72,-136.12 517.25,-142.47 523.06,-146.37"/>
</g>
<!-- intro_skipper_helpers_constants&#45;&gt;intro_skipper_services_streaming_service_catalog -->
<g id="edge14" class="edge">
<title>intro_skipper_helpers_constants&#45;&gt;intro_skipper_services_streaming_service_catalog</title><style>.edge>path:hover{stroke-width:8}</style>
<path fill="none" stroke="black" d="M496.24,-286.69C503.81,-283.18 511.85,-279.96 519.68,-277.71 595.67,-255.86 816.51,-296.33 873.68,-241.71 896.51,-219.89 900.03,-183.49 898.55,-155.01"/>
<polygon fill="#f31616" stroke="black" points="902.06,-154.96 897.8,-145.26 895.08,-155.5 902.06,-154.96"/>
</g>
<!-- intro_skipper_services -->
<g id="node9" class="node">
<title>intro_skipper_services</title><style>.edge>path:hover{stroke-width:8}</style>
<ellipse fill="#ce3b3b" stroke="black" cx="728.68" cy="-112.37" rx="52.68" ry="22.63"/>
<text xml:space="preserve" text-anchor="middle" x="728.68" y="-114.87" font-family="Helvetica,sans-Serif" font-size="10.00" fill="#ffffff">intro_skipper.</text>
<text xml:space="preserve" text-anchor="middle" x="728.68" y="-102.87" font-family="Helvetica,sans-Serif" font-size="10.00" fill="#ffffff">services</text>
</g>
<!-- intro_skipper_services&#45;&gt;intro_skipper_application -->
<g id="edge15" class="edge">
<title>intro_skipper_services&#45;&gt;intro_skipper_application</title><style>.edge>path:hover{stroke-width:8}</style>
<path fill="none" stroke="black" d="M709.89,-91.02C699.34,-79.58 685.99,-65.12 674.36,-52.53"/>
<polygon fill="#ce3b3b" stroke="black" points="677.03,-50.26 667.67,-45.28 671.88,-55 677.03,-50.26"/>
</g>
<!-- intro_skipper_services_streaming_service -->
<g id="node10" class="node">
<title>intro_skipper_services_streaming_service</title><style>.edge>path:hover{stroke-width:8}</style>
<ellipse fill="#ce3b3b" stroke="black" cx="796.68" cy="-210.59" rx="67.53" ry="31.11"/>
<text xml:space="preserve" text-anchor="middle" x="796.68" y="-219.09" font-family="Helvetica,sans-Serif" font-size="10.00" fill="#ffffff">intro_skipper.</text>
<text xml:space="preserve" text-anchor="middle" x="796.68" y="-207.09" font-family="Helvetica,sans-Serif" font-size="10.00" fill="#ffffff">services.</text>
<text xml:space="preserve" text-anchor="middle" x="796.68" y="-195.09" font-family="Helvetica,sans-Serif" font-size="10.00" fill="#ffffff">streaming_service</text>
</g>
<!-- intro_skipper_services_streaming_service&#45;&gt;intro_skipper_application -->
<g id="edge16" class="edge">
<title>intro_skipper_services_streaming_service&#45;&gt;intro_skipper_application</title><style>.edge>path:hover{stroke-width:8}</style>
<path fill="none" stroke="black" d="M739.4,-193.74C713.25,-183.58 684.25,-167.64 666.68,-143.48 648.49,-118.47 644.92,-82.75 645.17,-56.82"/>
<polygon fill="#ce3b3b" stroke="black" points="648.67,-56.93 645.49,-46.82 641.67,-56.71 648.67,-56.93"/>
</g>
<!-- intro_skipper_services_streaming_service&#45;&gt;intro_skipper_services_streaming_service_catalog -->
<g id="edge17" class="edge">
<title>intro_skipper_services_streaming_service&#45;&gt;intro_skipper_services_streaming_service_catalog</title><style>.edge>path:hover{stroke-width:8}</style>
<path fill="none" stroke="black" d="M824.45,-181.76C834.33,-171.85 845.62,-160.54 856.13,-150.01"/>
<polygon fill="#ce3b3b" stroke="black" points="858.32,-152.76 862.9,-143.21 853.36,-147.82 858.32,-152.76"/>
</g>
<!-- requests -->
<g id="node12" class="node">
<title>requests</title><style>.edge>path:hover{stroke-width:8}</style>
<ellipse fill="#40c040" stroke="black" cx="194.68" cy="-393.93" rx="32.17" ry="18"/>
<text xml:space="preserve" text-anchor="middle" x="194.68" y="-390.43" font-family="Helvetica,sans-Serif" font-size="10.00" fill="#000000">requests</text>
</g>
<!-- requests&#45;&gt;intro_skipper_browser_chrome_connection -->
<g id="edge18" class="edge">
<title>requests&#45;&gt;intro_skipper_browser_chrome_connection</title><style>.edge>path:hover{stroke-width:8}</style>
<path fill="none" stroke="black" d="M192.34,-375.78C190.57,-358.77 189.26,-332.11 194.68,-309.82"/>
</g>
<!-- websocket -->
<g id="node13" class="node">
<title>websocket</title><style>.edge>path:hover{stroke-width:8}</style>
<ellipse fill="#5353b6" stroke="black" cx="106.68" cy="-393.93" rx="38.03" ry="18"/>
<text xml:space="preserve" text-anchor="middle" x="106.68" y="-390.43" font-family="Helvetica,sans-Serif" font-size="10.00" fill="#ffffff">websocket</text>
</g>
<!-- websocket&#45;&gt;intro_skipper_browser_chrome_connection -->
<g id="edge19" class="edge">
<title>websocket&#45;&gt;intro_skipper_browser_chrome_connection</title><style>.edge>path:hover{stroke-width:8}</style>
<path fill="none" stroke="black" d="M194.68,-307.82C207.18,-256.43 204.38,-195.11 200.32,-155.27"/>
<polygon fill="#5353b6" stroke="black" points="203.81,-154.94 199.24,-145.38 196.85,-155.7 203.81,-154.94"/>
<path fill="none" stroke="black" d="M131.01,-380C153.69,-366.2 185.39,-341.91 194.68,-309.82"/>
</g>
</g>
</svg>
