<?xml version="1.0" encoding="UTF-8" standalone="no"?>
<!DOCTYPE svg PUBLIC "-//W3C//DTD SVG 1.1//EN"
 "http://www.w3.org/Graphics/SVG/1.1/DTD/svg11.dtd">
<!-- Generated by graphviz version 15.1.0 (20260618.0150)
 -->
<!-- Title: G Pages: 1 -->
<svg width="1173pt" height="582pt"
 viewBox="0.00 0.00 1173.00 582.00" xmlns="http://www.w3.org/2000/svg" xmlns:xlink="http://www.w3.org/1999/xlink">
<g id="graph0" class="graph" transform="scale(1 1) rotate(0) translate(4 578.44)">
<title>G</title><style>.edge>path:hover{stroke-width:8}</style>
<polygon fill="white" stroke="none" points="-4,4 -4,-578.44 1169.3,-578.44 1169.3,4 -4,4"/>
<!-- intro_skipper_application -->
<g id="node1" class="node">
<title>intro_skipper_application</title><style>.edge>path:hover{stroke-width:8}</style>
<ellipse fill="#913030" stroke="black" cx="771.12" cy="-103.88" rx="52.68" ry="22.63"/>
<text xml:space="preserve" text-anchor="middle" x="771.12" y="-106.38" font-family="Helvetica,sans-Serif" font-size="10.00" fill="#ffffff">intro_skipper.</text>
<text xml:space="preserve" text-anchor="middle" x="771.12" y="-94.38" font-family="Helvetica,sans-Serif" font-size="10.00" fill="#ffffff">application</text>
</g>
<!-- intro_skipper_entry_point -->
<g id="node8" class="node">
<title>intro_skipper_entry_point</title><style>.edge>path:hover{stroke-width:8}</style>
<ellipse fill="#6b2e2e" stroke="black" cx="771.12" cy="-22.63" rx="52.68" ry="22.63"/>
<text xml:space="preserve" text-anchor="middle" x="771.12" y="-25.13" font-family="Helvetica,sans-Serif" font-size="10.00" fill="#ffffff">intro_skipper.</text>
<text xml:space="preserve" text-anchor="middle" x="771.12" y="-13.13" font-family="Helvetica,sans-Serif" font-size="10.00" fill="#ffffff">entry_point</text>
</g>
<!-- intro_skipper_application&#45;&gt;intro_skipper_entry_point -->
<g id="edge1" class="edge">
<title>intro_skipper_application&#45;&gt;intro_skipper_entry_point</title><style>.edge>path:hover{stroke-width:8}</style>
<path fill="none" stroke="black" d="M771.12,-80.81C771.12,-73.42 771.12,-65.01 771.12,-56.97"/>
<polygon fill="#913030" stroke="black" points="774.62,-57.1 771.12,-47.1 767.62,-57.1 774.62,-57.1"/>
</g>
<!-- intro_skipper_browser -->
<g id="node2" class="node">
<title>intro_skipper_browser</title><style>.edge>path:hover{stroke-width:8}</style>
<ellipse fill="#f31616" stroke="black" cx="609.12" cy="-185.14" rx="52.68" ry="22.63"/>
<text xml:space="preserve" text-anchor="middle" x="609.12" y="-187.64" font-family="Helvetica,sans-Serif" font-size="10.00" fill="#ffffff">intro_skipper.</text>
<text xml:space="preserve" text-anchor="middle" x="609.12" y="-175.64" font-family="Helvetica,sans-Serif" font-size="10.00" fill="#ffffff">browser</text>
</g>
<!-- intro_skipper_browser&#45;&gt;intro_skipper_application -->
<g id="edge2" class="edge">
<title>intro_skipper_browser&#45;&gt;intro_skipper_application</title><style>.edge>path:hover{stroke-width:8}</style>
<path fill="none" stroke="black" d="M643.08,-167.52C667.49,-155.58 700.62,-139.37 727.06,-126.44"/>
<polygon fill="#f31616" stroke="black" points="728.4,-129.68 735.84,-122.14 725.32,-123.39 728.4,-129.68"/>
</g>
<!-- intro_skipper_chrome_executable_prompt -->
<g id="node6" class="node">
<title>intro_skipper_chrome_executable_prompt</title><style>.edge>path:hover{stroke-width:8}</style>
<ellipse fill="#a13535" stroke="black" cx="566.12" cy="-103.88" rx="96.17" ry="22.63"/>
<text xml:space="preserve" text-anchor="middle" x="566.12" y="-106.38" font-family="Helvetica,sans-Serif" font-size="10.00" fill="#ffffff">intro_skipper.</text>
<text xml:space="preserve" text-anchor="middle" x="566.12" y="-94.38" font-family="Helvetica,sans-Serif" font-size="10.00" fill="#ffffff">chrome_executable_prompt</text>
</g>
<!-- intro_skipper_browser&#45;&gt;intro_skipper_chrome_executable_prompt -->
<g id="edge3" class="edge">
<title>intro_skipper_browser&#45;&gt;intro_skipper_chrome_executable_prompt</title><style>.edge>path:hover{stroke-width:8}</style>
<path fill="none" stroke="black" d="M597.6,-162.9C593.23,-154.86 588.17,-145.52 583.39,-136.71"/>
<polygon fill="#f31616" stroke="black" points="586.54,-135.18 578.7,-128.06 580.39,-138.52 586.54,-135.18"/>
</g>
<!-- intro_skipper_browser&#45;&gt;intro_skipper_entry_point -->
<g id="edge4" class="edge">
<title>intro_skipper_browser&#45;&gt;intro_skipper_entry_point</title><style>.edge>path:hover{stroke-width:8}</style>
<path fill="none" stroke="black" d="M690.12,-102.88C703.97,-83.61 722.76,-64.89 738.75,-50.5"/>
<polygon fill="#f31616" stroke="black" points="740.98,-53.2 746.17,-43.97 736.35,-47.95 740.98,-53.2"/>
<path fill="none" stroke="black" d="M632.94,-164.8C650.35,-149.78 673.7,-127.73 690.12,-104.88"/>
</g>
<!-- intro_skipper_browser_browser_connection -->
<g id="node3" class="node">
<title>intro_skipper_browser_browser_connection</title><style>.edge>path:hover{stroke-width:8}</style>
<ellipse fill="#db2f2f" stroke="black" cx="541.12" cy="-373.1" rx="72.83" ry="31.11"/>
<text xml:space="preserve" text-anchor="middle" x="541.12" y="-381.6" font-family="Helvetica,sans-Serif" font-size="10.00" fill="#ffffff">intro_skipper.</text>
<text xml:space="preserve" text-anchor="middle" x="541.12" y="-369.6" font-family="Helvetica,sans-Serif" font-size="10.00" fill="#ffffff">browser.</text>
<text xml:space="preserve" text-anchor="middle" x="541.12" y="-357.6" font-family="Helvetica,sans-Serif" font-size="10.00" fill="#ffffff">browser_connection</text>
</g>
<!-- intro_skipper_browser_browser_connection&#45;&gt;intro_skipper_application -->
<g id="edge5" class="edge">
<title>intro_skipper_browser_browser_connection&#45;&gt;intro_skipper_application</title><style>.edge>path:hover{stroke-width:8}</style>
<path fill="none" stroke="black" d="M552.83,-342.12C566.44,-308.62 589.1,-257.31 605.12,-243.76 672.17,-187.05 804.01,-273.4 794.12,-186.14"/>
<path fill="none" stroke="black" d="M794.12,-184.14C792.32,-168.41 787.79,-151.5 783.22,-137.36"/>
<polygon fill="#db2f2f" stroke="black" points="786.61,-136.46 780.09,-128.11 779.98,-138.71 786.61,-136.46"/>
</g>
<!-- intro_skipper_browser_chrome_connection -->
<g id="node4" class="node">
<title>intro_skipper_browser_chrome_connection</title><style>.edge>path:hover{stroke-width:8}</style>
<ellipse fill="#913030" stroke="black" cx="227.12" cy="-274.88" rx="71.24" ry="31.11"/>
<text xml:space="preserve" text-anchor="middle" x="227.12" y="-283.38" font-family="Helvetica,sans-Serif" font-size="10.00" fill="#ffffff">intro_skipper.</text>
<text xml:space="preserve" text-anchor="middle" x="227.12" y="-271.38" font-family="Helvetica,sans-Serif" font-size="10.00" fill="#ffffff">browser.</text>
<text xml:space="preserve" text-anchor="middle" x="227.12" y="-259.38" font-family="Helvetica,sans-Serif" font-size="10.00" fill="#ffffff">chrome_connection</text>
</g>
<!-- intro_skipper_browser_browser_connection&#45;&gt;intro_skipper_browser_chrome_connection -->
<g id="edge6" class="edge">
<title>intro_skipper_browser_browser_connection&#45;&gt;intro_skipper_browser_chrome_connection</title><style>.edge>path:hover{stroke-width:8}</style>
<path fill="none" stroke="black" d="M482.79,-354.23C429.84,-338 351.69,-314.05 295.75,-296.91"/>
<polygon fill="#db2f2f" stroke="black" points="296.9,-293.6 286.31,-294.02 294.85,-300.29 296.9,-293.6"/>
</g>
<!-- intro_skipper_browser_chrome_launcher -->
<g id="node5" class="node">
<title>intro_skipper_browser_chrome_launcher</title><style>.edge>path:hover{stroke-width:8}</style>
<ellipse fill="#ac2b2b" stroke="black" cx="494.12" cy="-274.88" rx="63.82" ry="31.11"/>
<text xml:space="preserve" text-anchor="middle" x="494.12" y="-283.38" font-family="Helvetica,sans-Serif" font-size="10.00" fill="#ffffff">intro_skipper.</text>
<text xml:space="preserve" text-anchor="middle" x="494.12" y="-271.38" font-family="Helvetica,sans-Serif" font-size="10.00" fill="#ffffff">browser.</text>
<text xml:space="preserve" text-anchor="middle" x="494.12" y="-259.38" font-family="Helvetica,sans-Serif" font-size="10.00" fill="#ffffff">chrome_launcher</text>
</g>
<!-- intro_skipper_browser_browser_connection&#45;&gt;intro_skipper_browser_chrome_launcher -->
<g id="edge7" class="edge">
<title>intro_skipper_browser_browser_connection&#45;&gt;intro_skipper_browser_chrome_launcher</title><style>.edge>path:hover{stroke-width:8}</style>
<path fill="none" stroke="black" d="M526.51,-342.18C522.4,-333.78 517.87,-324.5 513.53,-315.62"/>
<polygon fill="#db2f2f" stroke="black" points="516.76,-314.26 509.23,-306.81 510.47,-317.33 516.76,-314.26"/>
</g>
<!-- intro_skipper_browser_chrome_connection&#45;&gt;intro_skipper_entry_point -->
<g id="edge8" class="edge">
<title>intro_skipper_browser_chrome_connection&#45;&gt;intro_skipper_entry_point</title><style>.edge>path:hover{stroke-width:8}</style>
<path fill="none" stroke="black" d="M267.81,-249.02C289.05,-233.7 313.23,-212.05 326.12,-186.14"/>
</g>
<!-- intro_skipper_browser_chrome_launcher&#45;&gt;intro_skipper_chrome_executable_prompt -->
<g id="edge9" class="edge">
<title>intro_skipper_browser_chrome_launcher&#45;&gt;intro_skipper_chrome_executable_prompt</title><style>.edge>path:hover{stroke-width:8}</style>
<path fill="none" stroke="black" d="M447.12,-253.41C419.86,-238.13 392.61,-214.96 402.12,-186.14"/>
</g>
<!-- intro_skipper_browser_chrome_launcher&#45;&gt;intro_skipper_entry_point -->
<g id="edge10" class="edge">
<title>intro_skipper_browser_chrome_launcher&#45;&gt;intro_skipper_entry_point</title><style>.edge>path:hover{stroke-width:8}</style>
<path fill="none" stroke="black" d="M540.9,-253.46C548.94,-250.12 557.24,-246.77 565.12,-243.76 622.28,-221.97 665.47,-242.13 690.12,-186.14"/>
<path fill="none" stroke="black" d="M690.12,-184.14C704.31,-151.9 669.56,-133.49 690.12,-104.88"/>
</g>
<!-- intro_skipper_chrome_executable_prompt&#45;&gt;intro_skipper_entry_point -->
<g id="edge11" class="edge">
<title>intro_skipper_chrome_executable_prompt&#45;&gt;intro_skipper_entry_point</title><style>.edge>path:hover{stroke-width:8}</style>
<path fill="none" stroke="black" d="M614.96,-84C647.31,-71.49 689.58,-55.15 721.99,-42.62"/>
<polygon fill="#a13535" stroke="black" points="723.09,-45.95 731.16,-39.08 720.57,-39.42 723.09,-45.95"/>
</g>
<!-- intro_skipper_command_line_arguments -->
<g id="node7" class="node">
<title>intro_skipper_command_line_arguments</title><style>.edge>path:hover{stroke-width:8}</style>
<ellipse fill="#993333" stroke="black" cx="972.12" cy="-103.88" rx="91.92" ry="22.63"/>
<text xml:space="preserve" text-anchor="middle" x="972.12" y="-106.38" font-family="Helvetica,sans-Serif" font-size="10.00" fill="#ffffff">intro_skipper.</text>
<text xml:space="preserve" text-anchor="middle" x="972.12" y="-94.38" font-family="Helvetica,sans-Serif" font-size="10.00" fill="#ffffff">command_line_arguments</text>
</g>
<!-- intro_skipper_command_line_arguments&#45;&gt;intro_skipper_entry_point -->
<g id="edge12" class="edge">
<title>intro_skipper_command_line_arguments&#45;&gt;intro_skipper_entry_point</title><style>.edge>path:hover{stroke-width:8}</style>
<path fill="none" stroke="black" d="M924.49,-84.1C892.88,-71.64 851.53,-55.33 819.73,-42.79"/>
<polygon fill="#993333" stroke="black" points="821.33,-39.66 810.75,-39.25 818.77,-46.18 821.33,-39.66"/>
</g>
<!-- intro_skipper_helpers -->
<g id="node9" class="node">
<title>intro_skipper_helpers</title><style>.edge>path:hover{stroke-width:8}</style>
<ellipse fill="#f91010" stroke="black" cx="402.12" cy="-471.33" rx="52.68" ry="22.63"/>
<text xml:space="preserve" text-anchor="middle" x="402.12" y="-473.83" font-family="Helvetica,sans-Serif" font-size="10.00" fill="#ffffff">intro_skipper.</text>
<text xml:space="preserve" text-anchor="middle" x="402.12" y="-461.83" font-family="Helvetica,sans-Serif" font-size="10.00" fill="#ffffff">helpers</text>
</g>
<!-- intro_skipper_helpers&#45;&gt;intro_skipper_application -->
<g id="edge13" class="edge">
<title>intro_skipper_helpers&#45;&gt;intro_skipper_application</title><style>.edge>path:hover{stroke-width:8}</style>
<path fill="none" stroke="black" d="M756.12,-372.1C802.3,-301.51 800.23,-270.27 794.12,-186.14"/>
</g>
<!-- intro_skipper_helpers&#45;&gt;intro_skipper_browser_chrome_connection -->
<g id="edge14" class="edge">
<title>intro_skipper_helpers&#45;&gt;intro_skipper_browser_chrome_connection</title><style>.edge>path:hover{stroke-width:8}</style>
<path fill="none" stroke="black" d="M383.87,-449.88C367.56,-431.02 343.61,-401.83 326.12,-374.1"/>
<path fill="none" stroke="black" d="M326.12,-372.1C311.37,-348.72 289.82,-326.87 270.59,-309.93"/>
<polygon fill="#f91010" stroke="black" points="272.96,-307.35 263.09,-303.49 268.39,-312.66 272.96,-307.35"/>
</g>
<!-- intro_skipper_helpers&#45;&gt;intro_skipper_browser_chrome_launcher -->
<g id="edge15" class="edge">
<title>intro_skipper_helpers&#45;&gt;intro_skipper_browser_chrome_launcher</title><style>.edge>path:hover{stroke-width:8}</style>
<path fill="none" stroke="black" d="M402.12,-372.1C407.95,-345.89 427.45,-323.64 447,-307.17"/>
<polygon fill="#f91010" stroke="black" points="449.14,-309.94 454.75,-300.96 444.76,-304.48 449.14,-309.94"/>
</g>
<!-- intro_skipper_helpers&#45;&gt;intro_skipper_chrome_executable_prompt -->
<g id="edge16" class="edge">
<title>intro_skipper_helpers&#45;&gt;intro_skipper_chrome_executable_prompt</title><style>.edge>path:hover{stroke-width:8}</style>
<path fill="none" stroke="black" d="M402.12,-184.14C412.98,-151.21 444.61,-131.95 477.24,-120.69"/>
<polygon fill="#f91010" stroke="black" points="477.94,-124.14 486.4,-117.77 475.81,-117.47 477.94,-124.14"/>
<path fill="none" stroke="black" d="M399.42,-448.25C397.65,-428.55 396.57,-399.05 402.12,-374.1"/>
<path fill="none" stroke="black" d="M402.12,-372.1C411.41,-330.36 406.12,-318.46 402.12,-275.88"/>
<path fill="none" stroke="black" d="M402.12,-273.88C398.47,-235.05 389.91,-223.17 402.12,-186.14"/>
</g>
<!-- intro_skipper_helpers&#45;&gt;intro_skipper_command_line_arguments -->
<g id="edge17" class="edge">
<title>intro_skipper_helpers&#45;&gt;intro_skipper_command_line_arguments</title><style>.edge>path:hover{stroke-width:8}</style>
<path fill="none" stroke="black" d="M432.95,-452.57C442.36,-447.85 452.93,-443.23 463.12,-440.22 594.85,-401.24 650.55,-471.85 770.12,-404.22 848.56,-359.84 831.65,-308.73 894.12,-243.76 920.2,-216.65 957.48,-223.73 956.12,-186.14"/>
<path fill="none" stroke="black" d="M956.12,-184.14C954.78,-168.69 957.57,-151.81 961.18,-137.62"/>
<polygon fill="#f91010" stroke="black" points="964.45,-138.92 963.78,-128.35 957.71,-137.03 964.45,-138.92"/>
</g>
<!-- intro_skipper_helpers&#45;&gt;intro_skipper_entry_point -->
<g id="edge18" class="edge">
<title>intro_skipper_helpers&#45;&gt;intro_skipper_entry_point</title><style>.edge>path:hover{stroke-width:8}</style>
<path fill="none" stroke="black" d="M326.12,-372.1C315.1,-354.63 310.2,-199.32 326.12,-186.14"/>
</g>
<!-- intro_skipper_logging_configuration -->
<g id="node11" class="node">
<title>intro_skipper_logging_configuration</title><style>.edge>path:hover{stroke-width:8}</style>
<ellipse fill="#b03a3a" stroke="black" cx="690.12" cy="-274.88" rx="76.01" ry="22.63"/>
<text xml:space="preserve" text-anchor="middle" x="690.12" y="-277.38" font-family="Helvetica,sans-Serif" font-size="10.00" fill="#ffffff">intro_skipper.</text>
<text xml:space="preserve" text-anchor="middle" x="690.12" y="-265.38" font-family="Helvetica,sans-Serif" font-size="10.00" fill="#ffffff">logging_configuration</text>
</g>
<!-- intro_skipper_helpers&#45;&gt;intro_skipper_logging_configuration -->
<g id="edge19" class="edge">
<title>intro_skipper_helpers&#45;&gt;intro_skipper_logging_configuration</title><style>.edge>path:hover{stroke-width:8}</style>
<path fill="none" stroke="black" d="M756.12,-372.1C771.49,-348.61 750.87,-322.35 728.73,-303.2"/>
<polygon fill="#f91010" stroke="black" points="731.03,-300.57 721.08,-296.94 726.6,-305.98 731.03,-300.57"/>
<path fill="none" stroke="black" d="M433.79,-452.92C443.05,-448.32 453.32,-443.68 463.12,-440.22 588.98,-395.7 683.04,-485.82 756.12,-374.1"/>
</g>
<!-- intro_skipper_services_streaming_service_catalog -->
<g id="node14" class="node">
<title>intro_skipper_services_streaming_service_catalog</title><style>.edge>path:hover{stroke-width:8}</style>
<ellipse fill="#ac2b2b" stroke="black" cx="1030.12" cy="-274.88" rx="93.51" ry="31.11"/>
<text xml:space="preserve" text-anchor="middle" x="1030.12" y="-283.38" font-family="Helvetica,sans-Serif" font-size="10.00" fill="#ffffff">intro_skipper.</text>
<text xml:space="preserve" text-anchor="middle" x="1030.12" y="-271.38" font-family="Helvetica,sans-Serif" font-size="10.00" fill="#ffffff">services.</text>
<text xml:space="preserve" text-anchor="middle" x="1030.12" y="-259.38" font-family="Helvetica,sans-Serif" font-size="10.00" fill="#ffffff">streaming_service_catalog</text>
</g>
<!-- intro_skipper_helpers&#45;&gt;intro_skipper_services_streaming_service_catalog -->
<g id="edge20" class="edge">
<title>intro_skipper_helpers&#45;&gt;intro_skipper_services_streaming_service_catalog</title><style>.edge>path:hover{stroke-width:8}</style>
<path fill="none" stroke="black" d="M432.53,-452.37C442.02,-447.59 452.73,-442.98 463.12,-440.22 525.51,-423.6 998.9,-451.27 1043.12,-404.22 1064.65,-381.31 1058.66,-344.94 1048.86,-316.76"/>
<polygon fill="#f91010" stroke="black" points="1052.15,-315.55 1045.34,-307.43 1045.6,-318.02 1052.15,-315.55"/>
</g>
<!-- intro_skipper_update_notification -->
<g id="node15" class="node">
<title>intro_skipper_update_notification</title><style>.edge>path:hover{stroke-width:8}</style>
<ellipse fill="#a83838" stroke="black" cx="69.12" cy="-274.88" rx="69.12" ry="22.63"/>
<text xml:space="preserve" text-anchor="middle" x="69.12" y="-277.38" font-family="Helvetica,sans-Serif" font-size="10.00" fill="#ffffff">intro_skipper.</text>
<text xml:space="preserve" text-anchor="middle" x="69.12" y="-265.38" font-family="Helvetica,sans-Serif" font-size="10.00" fill="#ffffff">update_notification</text>
</g>
<!-- intro_skipper_helpers&#45;&gt;intro_skipper_update_notification -->
<g id="edge21" class="edge">
<title>intro_skipper_helpers&#45;&gt;intro_skipper_update_notification</title><style>.edge>path:hover{stroke-width:8}</style>
<path fill="none" stroke="black" d="M373.45,-452.14C354.98,-439.75 330.99,-422.35 312.12,-404.22 299.78,-392.35 303.41,-381.79 288.12,-374.1"/>
<path fill="none" stroke="black" d="M288.12,-372.1C260.75,-358.34 254.02,-354.63 226.12,-341.99 191.78,-326.43 152.71,-309.98 122.14,-297.37"/>
<polygon fill="#f91010" stroke="black" points="123.68,-294.22 113.1,-293.66 121.02,-300.7 123.68,-294.22"/>
</g>
<!-- intro_skipper_helpers_constants -->
<g id="node10" class="node">
<title>intro_skipper_helpers_constants</title><style>.edge>path:hover{stroke-width:8}</style>
<ellipse fill="#f91010" stroke="black" cx="525.12" cy="-471.33" rx="52.68" ry="31.11"/>
<text xml:space="preserve" text-anchor="middle" x="525.12" y="-479.83" font-family="Helvetica,sans-Serif" font-size="10.00" fill="#ffffff">intro_skipper.</text>
<text xml:space="preserve" text-anchor="middle" x="525.12" y="-467.83" font-family="Helvetica,sans-Serif" font-size="10.00" fill="#ffffff">helpers.</text>
<text xml:space="preserve" text-anchor="middle" x="525.12" y="-455.83" font-family="Helvetica,sans-Serif" font-size="10.00" fill="#ffffff">constants</text>
</g>
<!-- intro_skipper_helpers_constants&#45;&gt;intro_skipper_application -->
<g id="edge22" class="edge">
<title>intro_skipper_helpers_constants&#45;&gt;intro_skipper_application</title><style>.edge>path:hover{stroke-width:8}</style>
<path fill="none" stroke="black" d="M870.12,-372.1C894.44,-286.19 804.28,-274.84 794.12,-186.14"/>
</g>
<!-- intro_skipper_helpers_constants&#45;&gt;intro_skipper_browser_chrome_connection -->
<g id="edge23" class="edge">
<title>intro_skipper_helpers_constants&#45;&gt;intro_skipper_browser_chrome_connection</title><style>.edge>path:hover{stroke-width:8}</style>
<path fill="none" stroke="black" d="M490.54,-447.7C471.43,-435.07 447.33,-418.96 426.12,-404.22 387.38,-377.28 379.64,-367.76 340.12,-341.99 320.91,-329.46 299.28,-316.54 280.14,-305.48"/>
<polygon fill="#f91010" stroke="black" points="282.1,-302.57 271.69,-300.63 278.62,-308.64 282.1,-302.57"/>
</g>
<!-- intro_skipper_helpers_constants&#45;&gt;intro_skipper_browser_chrome_launcher -->
<g id="edge24" class="edge">
<title>intro_skipper_helpers_constants&#45;&gt;intro_skipper_browser_chrome_launcher</title><style>.edge>path:hover{stroke-width:8}</style>
<path fill="none" stroke="black" d="M576.7,-463.77C641.4,-454.36 746.75,-434.73 770.12,-404.22 786.94,-382.26 787.47,-363.53 770.12,-341.99 723.04,-283.53 678.03,-323.82 605.12,-305.99 590.29,-302.36 574.42,-298.22 559.45,-294.19"/>
<polygon fill="#f91010" stroke="black" points="560.77,-290.92 550.2,-291.68 558.94,-297.67 560.77,-290.92"/>
</g>
<!-- intro_skipper_helpers_constants&#45;&gt;intro_skipper_chrome_executable_prompt -->
<g id="edge25" class="edge">
<title>intro_skipper_helpers_constants&#45;&gt;intro_skipper_chrome_executable_prompt</title><style>.edge>path:hover{stroke-width:8}</style>
<path fill="none" stroke="black" d="M495.72,-445.32C483.31,-433.72 469.4,-419.19 459.12,-404.22 423.81,-352.75 408.07,-338 402.12,-275.88"/>
</g>
<!-- intro_skipper_helpers_constants&#45;&gt;intro_skipper_command_line_arguments -->
<g id="edge26" class="edge">
<title>intro_skipper_helpers_constants&#45;&gt;intro_skipper_command_line_arguments</title><style>.edge>path:hover{stroke-width:8}</style>
<path fill="none" stroke="black" d="M1152.12,-372.1C1169.94,-333.23 1169.35,-315.02 1152.12,-275.88"/>
<path fill="none" stroke="black" d="M1152.12,-273.88C1145.74,-259.39 1145.61,-253.48 1133.12,-243.76 1067.83,-192.95 959.1,-268.81 956.12,-186.14"/>
</g>
<!-- intro_skipper_helpers_constants&#45;&gt;intro_skipper_entry_point -->
<g id="edge27" class="edge">
<title>intro_skipper_helpers_constants&#45;&gt;intro_skipper_entry_point</title><style>.edge>path:hover{stroke-width:8}</style>
<path fill="none" stroke="black" d="M1152.12,-273.88C1136.41,-238.19 1145.7,-224.6 1152.12,-186.14"/>
</g>
<!-- intro_skipper_helpers_constants&#45;&gt;intro_skipper_logging_configuration -->
<g id="edge28" class="edge">
<title>intro_skipper_helpers_constants&#45;&gt;intro_skipper_logging_configuration</title><style>.edge>path:hover{stroke-width:8}</style>
<path fill="none" stroke="black" d="M578.01,-470.22C645.13,-467.8 762.23,-455.71 846.12,-404.22 860.71,-395.26 865.46,-390.57 870.12,-374.1"/>
<path fill="none" stroke="black" d="M870.12,-372.1C884.07,-322.82 824.88,-298.51 770.7,-286.69"/>
<polygon fill="#f91010" stroke="black" points="771.58,-283.3 761.08,-284.72 770.18,-290.16 771.58,-283.3"/>
</g>
<!-- intro_skipper_helpers_constants&#45;&gt;intro_skipper_services_streaming_service_catalog -->
<g id="edge29" class="edge">
<title>intro_skipper_helpers_constants&#45;&gt;intro_skipper_services_streaming_service_catalog</title><style>.edge>path:hover{stroke-width:8}</style>
<path fill="none" stroke="black" d="M1152.12,-372.1C1165.97,-341.88 1138.21,-318.45 1105.69,-302.29"/>
<polygon fill="#f91010" stroke="black" points="1107.4,-299.22 1096.86,-298.14 1104.43,-305.56 1107.4,-299.22"/>
<path fill="none" stroke="black" d="M577.81,-467.11C724.44,-457.52 1128.11,-426.47 1152.12,-374.1"/>
</g>
<!-- intro_skipper_helpers_constants&#45;&gt;intro_skipper_update_notification -->
<g id="edge30" class="edge">
<title>intro_skipper_helpers_constants&#45;&gt;intro_skipper_update_notification</title><style>.edge>path:hover{stroke-width:8}</style>
<path fill="none" stroke="black" d="M486.22,-449.8C478.98,-446.36 471.4,-443.01 464.12,-440.22 408.95,-419.05 390.15,-428.16 336.12,-404.22 313.1,-394.01 310.62,-385.42 288.12,-374.1"/>
</g>
<!-- intro_skipper_logging_configuration&#45;&gt;intro_skipper_entry_point -->
<g id="edge31" class="edge">
<title>intro_skipper_logging_configuration&#45;&gt;intro_skipper_entry_point</title><style>.edge>path:hover{stroke-width:8}</style>
<path fill="none" stroke="black" d="M685.38,-251.96C682.5,-233.58 680.91,-207.05 690.12,-186.14"/>
</g>
<!-- intro_skipper_services -->
<g id="node12" class="node">
<title>intro_skipper_services</title><style>.edge>path:hover{stroke-width:8}</style>
<ellipse fill="#e72222" stroke="black" cx="875.12" cy="-185.14" rx="52.68" ry="22.63"/>
<text xml:space="preserve" text-anchor="middle" x="875.12" y="-187.64" font-family="Helvetica,sans-Serif" font-size="10.00" fill="#ffffff">intro_skipper.</text>
<text xml:space="preserve" text-anchor="middle" x="875.12" y="-175.64" font-family="Helvetica,sans-Serif" font-size="10.00" fill="#ffffff">services</text>
</g>
<!-- intro_skipper_services&#45;&gt;intro_skipper_application -->
<g id="edge32" class="edge">
<title>intro_skipper_services&#45;&gt;intro_skipper_application</title><style>.edge>path:hover{stroke-width:8}</style>
<path fill="none" stroke="black" d="M849.94,-164.95C836.5,-154.71 819.77,-141.96 805.18,-130.84"/>
<polygon fill="#e72222" stroke="black" points="807.7,-128.36 797.63,-125.08 803.46,-133.93 807.7,-128.36"/>
</g>
<!-- intro_skipper_services&#45;&gt;intro_skipper_command_line_arguments -->
<g id="edge33" class="edge">
<title>intro_skipper_services&#45;&gt;intro_skipper_command_line_arguments</title><style>.edge>path:hover{stroke-width:8}</style>
<path fill="none" stroke="black" d="M899.1,-164.55C910.77,-155.01 925.01,-143.38 937.8,-132.92"/>
<polygon fill="#e72222" stroke="black" points="939.68,-135.91 945.21,-126.87 935.25,-130.49 939.68,-135.91"/>
</g>
<!-- intro_skipper_services&#45;&gt;intro_skipper_entry_point -->
<g id="edge34" class="edge">
<title>intro_skipper_services&#45;&gt;intro_skipper_entry_point</title><style>.edge>path:hover{stroke-width:8}</style>
<path fill="none" stroke="black" d="M869.23,-162.3C862.69,-140.49 850.67,-106.65 833.12,-81.25 825.36,-70.03 815.08,-59.38 805.13,-50.35"/>
<polygon fill="#e72222" stroke="black" points="807.51,-47.78 797.67,-43.85 802.91,-53.06 807.51,-47.78"/>
</g>
<!-- intro_skipper_services_streaming_service -->
<g id="node13" class="node">
<title>intro_skipper_services_streaming_service</title><style>.edge>path:hover{stroke-width:8}</style>
<ellipse fill="#db2f2f" stroke="black" cx="966.12" cy="-373.1" rx="67.53" ry="31.11"/>
<text xml:space="preserve" text-anchor="middle" x="966.12" y="-381.6" font-family="Helvetica,sans-Serif" font-size="10.00" fill="#ffffff">intro_skipper.</text>
<text xml:space="preserve" text-anchor="middle" x="966.12" y="-369.6" font-family="Helvetica,sans-Serif" font-size="10.00" fill="#ffffff">services.</text>
<text xml:space="preserve" text-anchor="middle" x="966.12" y="-357.6" font-family="Helvetica,sans-Serif" font-size="10.00" fill="#ffffff">streaming_service</text>
</g>
<!-- intro_skipper_services_streaming_service&#45;&gt;intro_skipper_application -->
<g id="edge35" class="edge">
<title>intro_skipper_services_streaming_service&#45;&gt;intro_skipper_application</title><style>.edge>path:hover{stroke-width:8}</style>
<path fill="none" stroke="black" d="M908.12,-273.88C900.79,-258.41 897.39,-254.57 884.12,-243.76 847.29,-213.77 799.47,-233.33 794.12,-186.14"/>
<path fill="none" stroke="black" d="M946.52,-343.04C934.46,-324.37 919.24,-299.32 908.12,-275.88"/>
</g>
<!-- intro_skipper_services_streaming_service&#45;&gt;intro_skipper_command_line_arguments -->
<g id="edge36" class="edge">
<title>intro_skipper_services_streaming_service&#45;&gt;intro_skipper_command_line_arguments</title><style>.edge>path:hover{stroke-width:8}</style>
<path fill="none" stroke="black" d="M908.12,-273.88C889.07,-233.72 957.72,-230.56 956.12,-186.14"/>
</g>
<!-- intro_skipper_services_streaming_service&#45;&gt;intro_skipper_services_streaming_service_catalog -->
<g id="edge37" class="edge">
<title>intro_skipper_services_streaming_service&#45;&gt;intro_skipper_services_streaming_service_catalog</title><style>.edge>path:hover{stroke-width:8}</style>
<path fill="none" stroke="black" d="M985.5,-342.97C991.34,-334.18 997.85,-324.39 1004.05,-315.07"/>
<polygon fill="#db2f2f" stroke="black" points="1006.91,-317.1 1009.53,-306.84 1001.08,-313.22 1006.91,-317.1"/>
</g>
<!-- intro_skipper_services_streaming_service_catalog&#45;&gt;intro_skipper_command_line_arguments -->
<g id="edge38" class="edge">
<title>intro_skipper_services_streaming_service_catalog&#45;&gt;intro_skipper_command_line_arguments</title><style>.edge>path:hover{stroke-width:8}</style>
<path fill="none" stroke="black" d="M990.81,-246.51C973.57,-231.15 956.99,-210.23 956.12,-186.14"/>
</g>
<!-- intro_skipper_services_streaming_service_catalog&#45;&gt;intro_skipper_entry_point -->
<g id="edge39" class="edge">
<title>intro_skipper_services_streaming_service_catalog&#45;&gt;intro_skipper_entry_point</title><style>.edge>path:hover{stroke-width:8}</style>
<path fill="none" stroke="black" d="M1090.03,-250.71C1116.21,-236.68 1143.03,-215.69 1152.12,-186.14"/>
<path fill="none" stroke="black" d="M1152.12,-184.14C1192.98,-51.35 954.25,-27.6 835.36,-23.92"/>
<polygon fill="#ac2b2b" stroke="black" points="835.5,-20.42 825.41,-23.65 835.31,-27.42 835.5,-20.42"/>
</g>
<!-- intro_skipper_update_notification&#45;&gt;intro_skipper_entry_point -->
<g id="edge40" class="edge">
<title>intro_skipper_update_notification&#45;&gt;intro_skipper_entry_point</title><style>.edge>path:hover{stroke-width:8}</style>
<path fill="none" stroke="black" d="M111.87,-256.87C123.27,-252.47 135.62,-247.83 147.12,-243.76 225.91,-215.9 288.89,-260.96 326.12,-186.14"/>
<path fill="none" stroke="black" d="M326.12,-184.14C359.72,-116.6 392.16,-111.84 461.12,-81.25 541.49,-45.61 643.03,-32.01 707.54,-26.82"/>
<polygon fill="#a83838" stroke="black" points="707.53,-30.33 717.24,-26.09 707.01,-23.35 707.53,-30.33"/>
</g>
<!-- requests -->
<g id="node16" class="node">
<title>requests</title><style>.edge>path:hover{stroke-width:8}</style>
<ellipse fill="#33cc33" stroke="black" cx="162.12" cy="-556.44" rx="32.17" ry="18"/>
<text xml:space="preserve" text-anchor="middle" x="162.12" y="-552.94" font-family="Helvetica,sans-Serif" font-size="10.00" fill="#000000">requests</text>
</g>
<!-- requests&#45;&gt;intro_skipper_browser_chrome_connection -->
<g id="edge41" class="edge">
<title>requests&#45;&gt;intro_skipper_browser_chrome_connection</title><style>.edge>path:hover{stroke-width:8}</style>
<path fill="none" stroke="black" d="M212.12,-372.1C206.83,-354.29 208.85,-334.03 212.87,-316.71"/>
<polygon fill="#33cc33" stroke="black" points="216.19,-317.84 215.36,-307.28 209.43,-316.05 216.19,-317.84"/>
</g>
<!-- requests&#45;&gt;intro_skipper_update_notification -->
<g id="edge42" class="edge">
<title>requests&#45;&gt;intro_skipper_update_notification</title><style>.edge>path:hover{stroke-width:8}</style>
<path fill="none" stroke="black" d="M212.12,-372.1C205.61,-350.18 155.9,-320.14 116.89,-299.48"/>
<polygon fill="#33cc33" stroke="black" points="118.56,-296.4 108.07,-294.88 115.32,-302.61 118.56,-296.4"/>
<path fill="none" stroke="black" d="M172.67,-539.37C192.14,-507.66 230.16,-434.83 212.12,-374.1"/>
</g>
<!-- websocket -->
<g id="node17" class="node">
<title>websocket</title><style>.edge>path:hover{stroke-width:8}</style>
<ellipse fill="#5353b6" stroke="black" cx="250.12" cy="-556.44" rx="38.03" ry="18"/>
<text xml:space="preserve" text-anchor="middle" x="250.12" y="-552.94" font-family="Helvetica,sans-Serif" font-size="10.00" fill="#ffffff">websocket</text>
</g>
<!-- websocket&#45;&gt;intro_skipper_browser_chrome_connection -->
<g id="edge43" class="edge">
<title>websocket&#45;&gt;intro_skipper_browser_chrome_connection</title><style>.edge>path:hover{stroke-width:8}</style>
<path fill="none" stroke="black" d="M248.72,-538.37C245.15,-495.05 235.67,-379.84 230.54,-317.44"/>
<polygon fill="#5353b6" stroke="black" points="234.04,-317.25 229.73,-307.57 227.06,-317.82 234.04,-317.25"/>
</g>
</g>
</svg>
