<?xml version="1.0" encoding="UTF-8" standalone="no"?>
<!DOCTYPE svg PUBLIC "-//W3C//DTD SVG 1.1//EN"
 "http://www.w3.org/Graphics/SVG/1.1/DTD/svg11.dtd">
<!-- Generated by graphviz version 15.1.0 (20260618.0150)
 -->
<!-- Title: G Pages: 1 -->
<svg width="1147pt" height="582pt"
 viewBox="0.00 0.00 1147.00 582.00" xmlns="http://www.w3.org/2000/svg" xmlns:xlink="http://www.w3.org/1999/xlink">
<g id="graph0" class="graph" transform="scale(1 1) rotate(0) translate(4 578.44)">
<title>G</title><style>.edge>path:hover{stroke-width:8}</style>
<polygon fill="white" stroke="none" points="-4,4 -4,-578.44 1142.87,-578.44 1142.87,4 -4,4"/>
<!-- intro_skipper_application -->
<g id="node1" class="node">
<title>intro_skipper_application</title><style>.edge>path:hover{stroke-width:8}</style>
<ellipse fill="#913030" stroke="black" cx="524.17" cy="-185.14" rx="52.68" ry="22.63"/>
<text xml:space="preserve" text-anchor="middle" x="524.17" y="-187.64" font-family="Helvetica,sans-Serif" font-size="10.00" fill="#ffffff">intro_skipper.</text>
<text xml:space="preserve" text-anchor="middle" x="524.17" y="-175.64" font-family="Helvetica,sans-Serif" font-size="10.00" fill="#ffffff">application</text>
</g>
<!-- intro_skipper_entry_point -->
<g id="node7" class="node">
<title>intro_skipper_entry_point</title><style>.edge>path:hover{stroke-width:8}</style>
<ellipse fill="#6b2e2e" stroke="black" cx="725.17" cy="-22.63" rx="52.68" ry="22.63"/>
<text xml:space="preserve" text-anchor="middle" x="725.17" y="-25.13" font-family="Helvetica,sans-Serif" font-size="10.00" fill="#ffffff">intro_skipper.</text>
<text xml:space="preserve" text-anchor="middle" x="725.17" y="-13.13" font-family="Helvetica,sans-Serif" font-size="10.00" fill="#ffffff">entry_point</text>
</g>
<!-- intro_skipper_application&#45;&gt;intro_skipper_entry_point -->
<g id="edge1" class="edge">
<title>intro_skipper_application&#45;&gt;intro_skipper_entry_point</title><style>.edge>path:hover{stroke-width:8}</style>
<path fill="none" stroke="black" d="M543.49,-163.89C559.51,-147.44 583.14,-123.92 605.17,-104.88"/>
</g>
<!-- intro_skipper_browser -->
<g id="node2" class="node">
<title>intro_skipper_browser</title><style>.edge>path:hover{stroke-width:8}</style>
<ellipse fill="#e72222" stroke="black" cx="432.17" cy="-274.88" rx="52.68" ry="22.63"/>
<text xml:space="preserve" text-anchor="middle" x="432.17" y="-277.38" font-family="Helvetica,sans-Serif" font-size="10.00" fill="#ffffff">intro_skipper.</text>
<text xml:space="preserve" text-anchor="middle" x="432.17" y="-265.38" font-family="Helvetica,sans-Serif" font-size="10.00" fill="#ffffff">browser</text>
</g>
<!-- intro_skipper_browser&#45;&gt;intro_skipper_application -->
<g id="edge2" class="edge">
<title>intro_skipper_browser&#45;&gt;intro_skipper_application</title><style>.edge>path:hover{stroke-width:8}</style>
<path fill="none" stroke="black" d="M453.05,-253.97C465.43,-242.16 481.31,-227.01 494.93,-214.03"/>
<polygon fill="#e72222" stroke="black" points="497.14,-216.75 501.96,-207.32 492.31,-211.68 497.14,-216.75"/>
</g>
<!-- intro_skipper_browser&#45;&gt;intro_skipper_entry_point -->
<g id="edge3" class="edge">
<title>intro_skipper_browser&#45;&gt;intro_skipper_entry_point</title><style>.edge>path:hover{stroke-width:8}</style>
<path fill="none" stroke="black" d="M399.47,-256.84C366.2,-237.67 323.21,-206.55 351.17,-186.14"/>
</g>
<!-- intro_skipper_browser_browser_connection -->
<g id="node3" class="node">
<title>intro_skipper_browser_browser_connection</title><style>.edge>path:hover{stroke-width:8}</style>
<ellipse fill="#db2f2f" stroke="black" cx="259.17" cy="-373.1" rx="72.83" ry="31.11"/>
<text xml:space="preserve" text-anchor="middle" x="259.17" y="-381.6" font-family="Helvetica,sans-Serif" font-size="10.00" fill="#ffffff">intro_skipper.</text>
<text xml:space="preserve" text-anchor="middle" x="259.17" y="-369.6" font-family="Helvetica,sans-Serif" font-size="10.00" fill="#ffffff">browser.</text>
<text xml:space="preserve" text-anchor="middle" x="259.17" y="-357.6" font-family="Helvetica,sans-Serif" font-size="10.00" fill="#ffffff">browser_connection</text>
</g>
<!-- intro_skipper_browser_browser_connection&#45;&gt;intro_skipper_application -->
<g id="edge4" class="edge">
<title>intro_skipper_browser_browser_connection&#45;&gt;intro_skipper_application</title><style>.edge>path:hover{stroke-width:8}</style>
<path fill="none" stroke="black" d="M513.17,-273.88C522.48,-257.51 525.4,-236.67 525.91,-219.42"/>
<polygon fill="#db2f2f" stroke="black" points="529.41,-219.66 525.92,-209.65 522.41,-219.65 529.41,-219.66"/>
<path fill="none" stroke="black" d="M330.37,-365.62C380.32,-358.04 446.45,-341.6 494.17,-305.99 506.85,-296.53 505.35,-289.63 513.17,-275.88"/>
</g>
<!-- intro_skipper_browser_chrome_connection -->
<g id="node4" class="node">
<title>intro_skipper_browser_chrome_connection</title><style>.edge>path:hover{stroke-width:8}</style>
<ellipse fill="#913030" stroke="black" cx="106.17" cy="-274.88" rx="71.24" ry="31.11"/>
<text xml:space="preserve" text-anchor="middle" x="106.17" y="-283.38" font-family="Helvetica,sans-Serif" font-size="10.00" fill="#ffffff">intro_skipper.</text>
<text xml:space="preserve" text-anchor="middle" x="106.17" y="-271.38" font-family="Helvetica,sans-Serif" font-size="10.00" fill="#ffffff">browser.</text>
<text xml:space="preserve" text-anchor="middle" x="106.17" y="-259.38" font-family="Helvetica,sans-Serif" font-size="10.00" fill="#ffffff">chrome_connection</text>
</g>
<!-- intro_skipper_browser_browser_connection&#45;&gt;intro_skipper_browser_chrome_connection -->
<g id="edge5" class="edge">
<title>intro_skipper_browser_browser_connection&#45;&gt;intro_skipper_browser_chrome_connection</title><style>.edge>path:hover{stroke-width:8}</style>
<path fill="none" stroke="black" d="M218.97,-346.82C199.56,-334.61 176.08,-319.85 155.59,-306.96"/>
<polygon fill="#db2f2f" stroke="black" points="157.71,-304.16 147.38,-301.8 153.98,-310.08 157.71,-304.16"/>
</g>
<!-- intro_skipper_browser_chrome_launcher -->
<g id="node5" class="node">
<title>intro_skipper_browser_chrome_launcher</title><style>.edge>path:hover{stroke-width:8}</style>
<ellipse fill="#a13535" stroke="black" cx="259.17" cy="-274.88" rx="63.82" ry="31.11"/>
<text xml:space="preserve" text-anchor="middle" x="259.17" y="-283.38" font-family="Helvetica,sans-Serif" font-size="10.00" fill="#ffffff">intro_skipper.</text>
<text xml:space="preserve" text-anchor="middle" x="259.17" y="-271.38" font-family="Helvetica,sans-Serif" font-size="10.00" fill="#ffffff">browser.</text>
<text xml:space="preserve" text-anchor="middle" x="259.17" y="-259.38" font-family="Helvetica,sans-Serif" font-size="10.00" fill="#ffffff">chrome_launcher</text>
</g>
<!-- intro_skipper_browser_browser_connection&#45;&gt;intro_skipper_browser_chrome_launcher -->
<g id="edge6" class="edge">
<title>intro_skipper_browser_browser_connection&#45;&gt;intro_skipper_browser_chrome_launcher</title><style>.edge>path:hover{stroke-width:8}</style>
<path fill="none" stroke="black" d="M259.17,-341.66C259.17,-334.11 259.17,-325.89 259.17,-317.9"/>
<polygon fill="#db2f2f" stroke="black" points="262.67,-317.97 259.17,-307.97 255.67,-317.97 262.67,-317.97"/>
</g>
<!-- intro_skipper_browser_chrome_connection&#45;&gt;intro_skipper_entry_point -->
<g id="edge7" class="edge">
<title>intro_skipper_browser_chrome_connection&#45;&gt;intro_skipper_entry_point</title><style>.edge>path:hover{stroke-width:8}</style>
<path fill="none" stroke="black" d="M159.04,-253.77C168.07,-250.4 177.38,-246.95 186.17,-243.76 259.19,-217.27 288.43,-231.93 351.17,-186.14"/>
<path fill="none" stroke="black" d="M351.17,-184.14C446.69,-114.42 515.29,-181.74 605.17,-104.88"/>
<path fill="none" stroke="black" d="M605.17,-102.88C614.9,-94.57 614.26,-89.34 624.17,-81.25 641.12,-67.43 661.81,-54.99 680.04,-45.23"/>
<polygon fill="#913030" stroke="black" points="681.57,-48.38 688.82,-40.65 678.34,-42.17 681.57,-48.38"/>
</g>
<!-- intro_skipper_browser_chrome_launcher&#45;&gt;intro_skipper_entry_point -->
<g id="edge8" class="edge">
<title>intro_skipper_browser_chrome_launcher&#45;&gt;intro_skipper_entry_point</title><style>.edge>path:hover{stroke-width:8}</style>
<path fill="none" stroke="black" d="M284.49,-246.18C302.12,-227.84 326.75,-203.96 351.17,-186.14"/>
</g>
<!-- intro_skipper_command_line_arguments -->
<g id="node6" class="node">
<title>intro_skipper_command_line_arguments</title><style>.edge>path:hover{stroke-width:8}</style>
<ellipse fill="#993333" stroke="black" cx="725.17" cy="-103.88" rx="91.92" ry="22.63"/>
<text xml:space="preserve" text-anchor="middle" x="725.17" y="-106.38" font-family="Helvetica,sans-Serif" font-size="10.00" fill="#ffffff">intro_skipper.</text>
<text xml:space="preserve" text-anchor="middle" x="725.17" y="-94.38" font-family="Helvetica,sans-Serif" font-size="10.00" fill="#ffffff">command_line_arguments</text>
</g>
<!-- intro_skipper_command_line_arguments&#45;&gt;intro_skipper_entry_point -->
<g id="edge9" class="edge">
<title>intro_skipper_command_line_arguments&#45;&gt;intro_skipper_entry_point</title><style>.edge>path:hover{stroke-width:8}</style>
<path fill="none" stroke="black" d="M725.17,-80.81C725.17,-73.42 725.17,-65.01 725.17,-56.97"/>
<polygon fill="#993333" stroke="black" points="728.67,-57.1 725.17,-47.1 721.67,-57.1 728.67,-57.1"/>
</g>
<!-- intro_skipper_helpers -->
<g id="node8" class="node">
<title>intro_skipper_helpers</title><style>.edge>path:hover{stroke-width:8}</style>
<ellipse fill="#f91010" stroke="black" cx="360.17" cy="-471.33" rx="52.68" ry="22.63"/>
<text xml:space="preserve" text-anchor="middle" x="360.17" y="-473.83" font-family="Helvetica,sans-Serif" font-size="10.00" fill="#ffffff">intro_skipper.</text>
<text xml:space="preserve" text-anchor="middle" x="360.17" y="-461.83" font-family="Helvetica,sans-Serif" font-size="10.00" fill="#ffffff">helpers</text>
</g>
<!-- intro_skipper_helpers&#45;&gt;intro_skipper_application -->
<g id="edge10" class="edge">
<title>intro_skipper_helpers&#45;&gt;intro_skipper_application</title><style>.edge>path:hover{stroke-width:8}</style>
<path fill="none" stroke="black" d="M513.17,-372.1C527.06,-331.66 492.02,-313.05 513.17,-275.88"/>
<path fill="none" stroke="black" d="M404.69,-458.94C443.93,-446 497.27,-420.4 513.17,-374.1"/>
</g>
<!-- intro_skipper_helpers&#45;&gt;intro_skipper_browser_chrome_connection -->
<g id="edge11" class="edge">
<title>intro_skipper_helpers&#45;&gt;intro_skipper_browser_chrome_connection</title><style>.edge>path:hover{stroke-width:8}</style>
<path fill="none" stroke="black" d="M309.01,-465.28C252.83,-456.78 164.71,-434.13 120.17,-374.1"/>
</g>
<!-- intro_skipper_helpers&#45;&gt;intro_skipper_browser_chrome_launcher -->
<g id="edge12" class="edge">
<title>intro_skipper_helpers&#45;&gt;intro_skipper_browser_chrome_launcher</title><style>.edge>path:hover{stroke-width:8}</style>
<path fill="none" stroke="black" d="M308.29,-467.21C265.27,-461.57 206.58,-446.1 177.17,-404.22 161.28,-381.58 165.24,-366.94 177.17,-341.99 184.03,-327.65 195.68,-315.43 208.08,-305.54"/>
<polygon fill="#f91010" stroke="black" points="210.05,-308.44 215.97,-299.66 205.86,-302.83 210.05,-308.44"/>
</g>
<!-- intro_skipper_helpers&#45;&gt;intro_skipper_command_line_arguments -->
<g id="edge13" class="edge">
<title>intro_skipper_helpers&#45;&gt;intro_skipper_command_line_arguments</title><style>.edge>path:hover{stroke-width:8}</style>
<path fill="none" stroke="black" d="M1005.17,-184.14C982.05,-153.35 887.2,-131.13 814.23,-118.19"/>
<polygon fill="#f91010" stroke="black" points="815.12,-114.79 804.67,-116.53 813.92,-121.69 815.12,-114.79"/>
<path fill="none" stroke="black" d="M883.17,-273.88C894.16,-262.49 890.69,-254.66 902.17,-243.76 940.23,-207.66 1036.67,-228.08 1005.17,-186.14"/>
<path fill="none" stroke="black" d="M749.17,-372.1C785.63,-325.78 821.64,-346.81 864.17,-305.99 875.59,-295.03 872.18,-287.26 883.17,-275.88"/>
</g>
<!-- intro_skipper_helpers&#45;&gt;intro_skipper_entry_point -->
<g id="edge14" class="edge">
<title>intro_skipper_helpers&#45;&gt;intro_skipper_entry_point</title><style>.edge>path:hover{stroke-width:8}</style>
<path fill="none" stroke="black" d="M357.49,-448.49C349.89,-384.59 330.14,-201.49 351.17,-186.14"/>
</g>
<!-- intro_skipper_logging_configuration -->
<g id="node10" class="node">
<title>intro_skipper_logging_configuration</title><style>.edge>path:hover{stroke-width:8}</style>
<ellipse fill="#b03a3a" stroke="black" cx="617.17" cy="-274.88" rx="76.01" ry="22.63"/>
<text xml:space="preserve" text-anchor="middle" x="617.17" y="-277.38" font-family="Helvetica,sans-Serif" font-size="10.00" fill="#ffffff">intro_skipper.</text>
<text xml:space="preserve" text-anchor="middle" x="617.17" y="-265.38" font-family="Helvetica,sans-Serif" font-size="10.00" fill="#ffffff">logging_configuration</text>
</g>
<!-- intro_skipper_helpers&#45;&gt;intro_skipper_logging_configuration -->
<g id="edge15" class="edge">
<title>intro_skipper_helpers&#45;&gt;intro_skipper_logging_configuration</title><style>.edge>path:hover{stroke-width:8}</style>
<path fill="none" stroke="black" d="M749.17,-372.1C763.01,-354.51 709.6,-322.03 666.61,-299.71"/>
<polygon fill="#f91010" stroke="black" points="668.36,-296.67 657.86,-295.24 665.17,-302.91 668.36,-296.67"/>
<path fill="none" stroke="black" d="M399.77,-456.26C415.64,-450.87 434.17,-444.9 451.17,-440.22 581.96,-404.17 665.26,-480.71 749.17,-374.1"/>
</g>
<!-- intro_skipper_services_streaming_service_catalog -->
<g id="node13" class="node">
<title>intro_skipper_services_streaming_service_catalog</title><style>.edge>path:hover{stroke-width:8}</style>
<ellipse fill="#ac2b2b" stroke="black" cx="1005.17" cy="-274.88" rx="93.51" ry="31.11"/>
<text xml:space="preserve" text-anchor="middle" x="1005.17" y="-283.38" font-family="Helvetica,sans-Serif" font-size="10.00" fill="#ffffff">intro_skipper.</text>
<text xml:space="preserve" text-anchor="middle" x="1005.17" y="-271.38" font-family="Helvetica,sans-Serif" font-size="10.00" fill="#ffffff">services.</text>
<text xml:space="preserve" text-anchor="middle" x="1005.17" y="-259.38" font-family="Helvetica,sans-Serif" font-size="10.00" fill="#ffffff">streaming_service_catalog</text>
</g>
<!-- intro_skipper_helpers&#45;&gt;intro_skipper_services_streaming_service_catalog -->
<g id="edge16" class="edge">
<title>intro_skipper_helpers&#45;&gt;intro_skipper_services_streaming_service_catalog</title><style>.edge>path:hover{stroke-width:8}</style>
<path fill="none" stroke="black" d="M398.13,-455.42C414.24,-449.71 433.38,-443.73 451.17,-440.22 506.79,-429.22 915.11,-438.62 960.17,-404.22 986.84,-383.85 997.77,-346.54 1002.21,-317.37"/>
<polygon fill="#f91010" stroke="black" points="1005.65,-318.12 1003.47,-307.75 998.71,-317.22 1005.65,-318.12"/>
</g>
<!-- intro_skipper_helpers_constants -->
<g id="node9" class="node">
<title>intro_skipper_helpers_constants</title><style>.edge>path:hover{stroke-width:8}</style>
<ellipse fill="#f91010" stroke="black" cx="513.17" cy="-471.33" rx="52.68" ry="31.11"/>
<text xml:space="preserve" text-anchor="middle" x="513.17" y="-479.83" font-family="Helvetica,sans-Serif" font-size="10.00" fill="#ffffff">intro_skipper.</text>
<text xml:space="preserve" text-anchor="middle" x="513.17" y="-467.83" font-family="Helvetica,sans-Serif" font-size="10.00" fill="#ffffff">helpers.</text>
<text xml:space="preserve" text-anchor="middle" x="513.17" y="-455.83" font-family="Helvetica,sans-Serif" font-size="10.00" fill="#ffffff">constants</text>
</g>
<!-- intro_skipper_helpers_constants&#45;&gt;intro_skipper_application -->
<g id="edge17" class="edge">
<title>intro_skipper_helpers_constants&#45;&gt;intro_skipper_application</title><style>.edge>path:hover{stroke-width:8}</style>
<path fill="none" stroke="black" d="M508.22,-440.02C506.24,-420.65 505.9,-395.27 513.17,-374.1"/>
</g>
<!-- intro_skipper_helpers_constants&#45;&gt;intro_skipper_browser_chrome_connection -->
<g id="edge18" class="edge">
<title>intro_skipper_helpers_constants&#45;&gt;intro_skipper_browser_chrome_connection</title><style>.edge>path:hover{stroke-width:8}</style>
<path fill="none" stroke="black" d="M469.18,-454.06C454.4,-449.06 437.72,-443.9 422.17,-440.22 288.48,-408.53 202.04,-484.45 120.17,-374.1"/>
</g>
<!-- intro_skipper_helpers_constants&#45;&gt;intro_skipper_browser_chrome_launcher -->
<g id="edge19" class="edge">
<title>intro_skipper_helpers_constants&#45;&gt;intro_skipper_browser_chrome_launcher</title><style>.edge>path:hover{stroke-width:8}</style>
<path fill="none" stroke="black" d="M481.52,-446.09C436.2,-411.4 352.7,-347.48 301.93,-308.61"/>
<polygon fill="#f91010" stroke="black" points="304.12,-305.88 294.05,-302.58 299.86,-311.43 304.12,-305.88"/>
</g>
<!-- intro_skipper_helpers_constants&#45;&gt;intro_skipper_command_line_arguments -->
<g id="edge20" class="edge">
<title>intro_skipper_helpers_constants&#45;&gt;intro_skipper_command_line_arguments</title><style>.edge>path:hover{stroke-width:8}</style>
<path fill="none" stroke="black" d="M1127.17,-273.88C1107.53,-210.04 1045.28,-239.54 1005.17,-186.14"/>
<path fill="none" stroke="black" d="M1127.17,-372.1C1144.93,-333.2 1139.75,-316.75 1127.17,-275.88"/>
</g>
<!-- intro_skipper_helpers_constants&#45;&gt;intro_skipper_entry_point -->
<g id="edge21" class="edge">
<title>intro_skipper_helpers_constants&#45;&gt;intro_skipper_entry_point</title><style>.edge>path:hover{stroke-width:8}</style>
<path fill="none" stroke="black" d="M1127.17,-273.88C1115.7,-236.61 1119.72,-224.41 1127.17,-186.14"/>
</g>
<!-- intro_skipper_helpers_constants&#45;&gt;intro_skipper_logging_configuration -->
<g id="edge22" class="edge">
<title>intro_skipper_helpers_constants&#45;&gt;intro_skipper_logging_configuration</title><style>.edge>path:hover{stroke-width:8}</style>
<path fill="none" stroke="black" d="M564.66,-464.09C630.56,-454.92 739.14,-435.43 763.17,-404.22 780.04,-382.3 778.16,-365.23 763.17,-341.99 753.09,-326.36 713.73,-309.03 678.42,-296.03"/>
<polygon fill="#f91010" stroke="black" points="679.64,-292.75 669.05,-292.66 677.27,-299.34 679.64,-292.75"/>
</g>
<!-- intro_skipper_helpers_constants&#45;&gt;intro_skipper_services_streaming_service_catalog -->
<g id="edge23" class="edge">
<title>intro_skipper_helpers_constants&#45;&gt;intro_skipper_services_streaming_service_catalog</title><style>.edge>path:hover{stroke-width:8}</style>
<path fill="none" stroke="black" d="M1127.17,-372.1C1140.98,-341.86 1113.21,-318.43 1080.7,-302.27"/>
<polygon fill="#f91010" stroke="black" points="1082.41,-299.2 1071.87,-298.13 1079.44,-305.54 1082.41,-299.2"/>
<path fill="none" stroke="black" d="M565.81,-466.94C710.28,-456.99 1103.79,-425.33 1127.17,-374.1"/>
</g>
<!-- intro_skipper_logging_configuration&#45;&gt;intro_skipper_entry_point -->
<g id="edge24" class="edge">
<title>intro_skipper_logging_configuration&#45;&gt;intro_skipper_entry_point</title><style>.edge>path:hover{stroke-width:8}</style>
<path fill="none" stroke="black" d="M611.53,-251.9C601.52,-210.52 583.64,-123.49 605.17,-104.88"/>
</g>
<!-- intro_skipper_services -->
<g id="node11" class="node">
<title>intro_skipper_services</title><style>.edge>path:hover{stroke-width:8}</style>
<ellipse fill="#e72222" stroke="black" cx="802.17" cy="-274.88" rx="52.68" ry="22.63"/>
<text xml:space="preserve" text-anchor="middle" x="802.17" y="-277.38" font-family="Helvetica,sans-Serif" font-size="10.00" fill="#ffffff">intro_skipper.</text>
<text xml:space="preserve" text-anchor="middle" x="802.17" y="-265.38" font-family="Helvetica,sans-Serif" font-size="10.00" fill="#ffffff">services</text>
</g>
<!-- intro_skipper_services&#45;&gt;intro_skipper_application -->
<g id="edge25" class="edge">
<title>intro_skipper_services&#45;&gt;intro_skipper_application</title><style>.edge>path:hover{stroke-width:8}</style>
<path fill="none" stroke="black" d="M768.16,-257.36C757.72,-252.62 746.09,-247.68 735.17,-243.76 683.99,-225.4 624.04,-209.55 581.15,-199.15"/>
<polygon fill="#e72222" stroke="black" points="582.09,-195.77 571.55,-196.84 580.46,-202.58 582.09,-195.77"/>
</g>
<!-- intro_skipper_services&#45;&gt;intro_skipper_command_line_arguments -->
<g id="edge26" class="edge">
<title>intro_skipper_services&#45;&gt;intro_skipper_command_line_arguments</title><style>.edge>path:hover{stroke-width:8}</style>
<path fill="none" stroke="black" d="M643.17,-184.14C634.09,-162.44 651.1,-143.81 671.94,-130.08"/>
<polygon fill="#e72222" stroke="black" points="673.7,-133.1 680.41,-124.91 670.05,-127.13 673.7,-133.1"/>
</g>
<!-- intro_skipper_services&#45;&gt;intro_skipper_entry_point -->
<g id="edge27" class="edge">
<title>intro_skipper_services&#45;&gt;intro_skipper_entry_point</title><style>.edge>path:hover{stroke-width:8}</style>
<path fill="none" stroke="black" d="M643.17,-184.14C628.09,-148.1 575.62,-130.43 605.17,-104.88"/>
<path fill="none" stroke="black" d="M767.25,-257.46C722.09,-235.81 648.54,-198.97 643.17,-186.14"/>
</g>
<!-- intro_skipper_services_streaming_service -->
<g id="node12" class="node">
<title>intro_skipper_services_streaming_service</title><style>.edge>path:hover{stroke-width:8}</style>
<ellipse fill="#db2f2f" stroke="black" cx="883.17" cy="-373.1" rx="67.53" ry="31.11"/>
<text xml:space="preserve" text-anchor="middle" x="883.17" y="-381.6" font-family="Helvetica,sans-Serif" font-size="10.00" fill="#ffffff">intro_skipper.</text>
<text xml:space="preserve" text-anchor="middle" x="883.17" y="-369.6" font-family="Helvetica,sans-Serif" font-size="10.00" fill="#ffffff">services.</text>
<text xml:space="preserve" text-anchor="middle" x="883.17" y="-357.6" font-family="Helvetica,sans-Serif" font-size="10.00" fill="#ffffff">streaming_service</text>
</g>
<!-- intro_skipper_services_streaming_service&#45;&gt;intro_skipper_application -->
<g id="edge28" class="edge">
<title>intro_skipper_services_streaming_service&#45;&gt;intro_skipper_application</title><style>.edge>path:hover{stroke-width:8}</style>
<path fill="none" stroke="black" d="M827.48,-355.1C799.01,-344.37 765.19,-328.28 740.17,-305.99 715.98,-284.43 727.61,-263.83 702.17,-243.76 683.01,-228.65 625.01,-211.43 580.38,-199.77"/>
<polygon fill="#db2f2f" stroke="black" points="581.37,-196.42 570.81,-197.31 579.63,-203.19 581.37,-196.42"/>
</g>
<!-- intro_skipper_services_streaming_service&#45;&gt;intro_skipper_command_line_arguments -->
<g id="edge29" class="edge">
<title>intro_skipper_services_streaming_service&#45;&gt;intro_skipper_command_line_arguments</title><style>.edge>path:hover{stroke-width:8}</style>
<path fill="none" stroke="black" d="M873.37,-342.01C868.5,-320.69 866.7,-292.95 883.17,-275.88"/>
</g>
<!-- intro_skipper_services_streaming_service&#45;&gt;intro_skipper_services_streaming_service_catalog -->
<g id="edge30" class="edge">
<title>intro_skipper_services_streaming_service&#45;&gt;intro_skipper_services_streaming_service_catalog</title><style>.edge>path:hover{stroke-width:8}</style>
<path fill="none" stroke="black" d="M916.51,-345.81C930.18,-335.03 946.2,-322.39 960.84,-310.84"/>
<polygon fill="#db2f2f" stroke="black" points="962.87,-313.7 968.55,-304.76 958.53,-308.2 962.87,-313.7"/>
</g>
<!-- intro_skipper_services_streaming_service_catalog&#45;&gt;intro_skipper_command_line_arguments -->
<g id="edge31" class="edge">
<title>intro_skipper_services_streaming_service_catalog&#45;&gt;intro_skipper_command_line_arguments</title><style>.edge>path:hover{stroke-width:8}</style>
<path fill="none" stroke="black" d="M1013.6,-243.8C1016.86,-225.39 1017.34,-202.34 1005.17,-186.14"/>
</g>
<!-- intro_skipper_services_streaming_service_catalog&#45;&gt;intro_skipper_entry_point -->
<g id="edge32" class="edge">
<title>intro_skipper_services_streaming_service_catalog&#45;&gt;intro_skipper_entry_point</title><style>.edge>path:hover{stroke-width:8}</style>
<path fill="none" stroke="black" d="M1065.08,-250.71C1091.26,-236.68 1118.08,-215.69 1127.17,-186.14"/>
<path fill="none" stroke="black" d="M1127.17,-184.14C1170.36,-43.79 913.41,-24.18 789.35,-22.76"/>
<polygon fill="#ac2b2b" stroke="black" points="789.67,-19.26 779.64,-22.69 789.62,-26.26 789.67,-19.26"/>
</g>
<!-- requests -->
<g id="node14" class="node">
<title>requests</title><style>.edge>path:hover{stroke-width:8}</style>
<ellipse fill="#40c040" stroke="black" cx="32.17" cy="-556.44" rx="32.17" ry="18"/>
<text xml:space="preserve" text-anchor="middle" x="32.17" y="-552.94" font-family="Helvetica,sans-Serif" font-size="10.00" fill="#000000">requests</text>
</g>
<!-- requests&#45;&gt;intro_skipper_browser_chrome_connection -->
<g id="edge33" class="edge">
<title>requests&#45;&gt;intro_skipper_browser_chrome_connection</title><style>.edge>path:hover{stroke-width:8}</style>
<path fill="none" stroke="black" d="M55.37,-543.68C78.61,-530.21 112.08,-505.61 120.17,-472.33"/>
<path fill="none" stroke="black" d="M120.17,-372.1C108.73,-356.68 104.69,-335.97 103.74,-317.71"/>
<polygon fill="#40c040" stroke="black" points="107.24,-317.88 103.54,-307.95 100.24,-318.02 107.24,-317.88"/>
<path fill="none" stroke="black" d="M120.17,-470.33C130.28,-428.77 145.65,-408.45 120.17,-374.1"/>
</g>
<!-- websocket -->
<g id="node15" class="node">
<title>websocket</title><style>.edge>path:hover{stroke-width:8}</style>
<ellipse fill="#5353b6" stroke="black" cx="120.17" cy="-556.44" rx="38.03" ry="18"/>
<text xml:space="preserve" text-anchor="middle" x="120.17" y="-552.94" font-family="Helvetica,sans-Serif" font-size="10.00" fill="#ffffff">websocket</text>
</g>
<!-- websocket&#45;&gt;intro_skipper_browser_chrome_connection -->
<g id="edge34" class="edge">
<title>websocket&#45;&gt;intro_skipper_browser_chrome_connection</title><style>.edge>path:hover{stroke-width:8}</style>
<path fill="none" stroke="black" d="M117.84,-538.29C116.06,-521.28 114.75,-494.62 120.17,-472.33"/>
</g>
</g>
</svg>
