<?xml version="1.0" encoding="UTF-8" standalone="no"?>
<!DOCTYPE svg PUBLIC "-//W3C//DTD SVG 1.1//EN"
 "http://www.w3.org/Graphics/SVG/1.1/DTD/svg11.dtd">
<!-- Generated by graphviz version 15.1.0 (20260618.0150)
 -->
<!-- Title: G Pages: 1 -->
<svg width="1675pt" height="609pt"
 viewBox="0.00 0.00 1675.00 609.00" xmlns="http://www.w3.org/2000/svg" xmlns:xlink="http://www.w3.org/1999/xlink">
<g id="graph0" class="graph" transform="scale(1 1) rotate(0) translate(4 604.67)">
<title>G</title><style>.edge>path:hover{stroke-width:8}</style>
<polygon fill="white" stroke="none" points="-4,4 -4,-604.67 1671.5,-604.67 1671.5,4 -4,4"/>
<!-- intro_skipper_application -->
<g id="node1" class="node">
<title>intro_skipper_application</title><style>.edge>path:hover{stroke-width:8}</style>
<ellipse fill="#8a2e2e" stroke="black" cx="918.24" cy="-185.14" rx="52.68" ry="22.63"/>
<text xml:space="preserve" text-anchor="middle" x="918.24" y="-187.64" font-family="Helvetica,sans-Serif" font-size="10.00" fill="#ffffff">intro_skipper.</text>
<text xml:space="preserve" text-anchor="middle" x="918.24" y="-175.64" font-family="Helvetica,sans-Serif" font-size="10.00" fill="#ffffff">application</text>
</g>
<!-- intro_skipper_entry_point -->
<g id="node8" class="node">
<title>intro_skipper_entry_point</title><style>.edge>path:hover{stroke-width:8}</style>
<ellipse fill="#6b2e2e" stroke="black" cx="837.24" cy="-22.63" rx="52.68" ry="22.63"/>
<text xml:space="preserve" text-anchor="middle" x="837.24" y="-25.13" font-family="Helvetica,sans-Serif" font-size="10.00" fill="#ffffff">intro_skipper.</text>
<text xml:space="preserve" text-anchor="middle" x="837.24" y="-13.13" font-family="Helvetica,sans-Serif" font-size="10.00" fill="#ffffff">entry_point</text>
</g>
<!-- intro_skipper_application&#45;&gt;intro_skipper_entry_point -->
<g id="edge1" class="edge">
<title>intro_skipper_application&#45;&gt;intro_skipper_entry_point</title><style>.edge>path:hover{stroke-width:8}</style>
<path fill="none" stroke="black" d="M881.98,-168.27C856.57,-154.51 828.57,-132.47 837.24,-104.88"/>
</g>
<!-- intro_skipper_browser -->
<g id="node2" class="node">
<title>intro_skipper_browser</title><style>.edge>path:hover{stroke-width:8}</style>
<ellipse fill="#f91010" stroke="black" cx="837.24" cy="-274.88" rx="52.68" ry="22.63"/>
<text xml:space="preserve" text-anchor="middle" x="837.24" y="-277.38" font-family="Helvetica,sans-Serif" font-size="10.00" fill="#ffffff">intro_skipper.</text>
<text xml:space="preserve" text-anchor="middle" x="837.24" y="-265.38" font-family="Helvetica,sans-Serif" font-size="10.00" fill="#ffffff">browser</text>
</g>
<!-- intro_skipper_browser&#45;&gt;intro_skipper_application -->
<g id="edge2" class="edge">
<title>intro_skipper_browser&#45;&gt;intro_skipper_application</title><style>.edge>path:hover{stroke-width:8}</style>
<path fill="none" stroke="black" d="M856.03,-253.53C866.58,-242.09 879.93,-227.63 891.56,-215.04"/>
<polygon fill="#f91010" stroke="black" points="894.04,-217.51 898.25,-207.79 888.89,-212.77 894.04,-217.51"/>
</g>
<!-- intro_skipper_chrome_executable_prompt -->
<g id="node6" class="node">
<title>intro_skipper_chrome_executable_prompt</title><style>.edge>path:hover{stroke-width:8}</style>
<ellipse fill="#a13535" stroke="black" cx="543.24" cy="-103.88" rx="96.17" ry="22.63"/>
<text xml:space="preserve" text-anchor="middle" x="543.24" y="-106.38" font-family="Helvetica,sans-Serif" font-size="10.00" fill="#ffffff">intro_skipper.</text>
<text xml:space="preserve" text-anchor="middle" x="543.24" y="-94.38" font-family="Helvetica,sans-Serif" font-size="10.00" fill="#ffffff">chrome_executable_prompt</text>
</g>
<!-- intro_skipper_browser&#45;&gt;intro_skipper_chrome_executable_prompt -->
<g id="edge3" class="edge">
<title>intro_skipper_browser&#45;&gt;intro_skipper_chrome_executable_prompt</title><style>.edge>path:hover{stroke-width:8}</style>
<path fill="none" stroke="black" d="M806.33,-256.11C754.24,-226.17 648.75,-165.53 588.37,-130.83"/>
<polygon fill="#f91010" stroke="black" points="590.45,-127.98 580.04,-126.03 586.96,-134.05 590.45,-127.98"/>
</g>
<!-- intro_skipper_browser&#45;&gt;intro_skipper_entry_point -->
<g id="edge4" class="edge">
<title>intro_skipper_browser&#45;&gt;intro_skipper_entry_point</title><style>.edge>path:hover{stroke-width:8}</style>
<path fill="none" stroke="black" d="M833.24,-251.91C830.86,-233.73 829.61,-207.51 837.24,-186.14"/>
</g>
<!-- intro_skipper_remote_control -->
<g id="node13" class="node">
<title>intro_skipper_remote_control</title><style>.edge>path:hover{stroke-width:8}</style>
<ellipse fill="#822b2b" stroke="black" cx="1523.24" cy="-185.14" rx="56.92" ry="22.63"/>
<text xml:space="preserve" text-anchor="middle" x="1523.24" y="-187.64" font-family="Helvetica,sans-Serif" font-size="10.00" fill="#ffffff">intro_skipper.</text>
<text xml:space="preserve" text-anchor="middle" x="1523.24" y="-175.64" font-family="Helvetica,sans-Serif" font-size="10.00" fill="#ffffff">remote_control</text>
</g>
<!-- intro_skipper_browser&#45;&gt;intro_skipper_remote_control -->
<g id="edge5" class="edge">
<title>intro_skipper_browser&#45;&gt;intro_skipper_remote_control</title><style>.edge>path:hover{stroke-width:8}</style>
<path fill="none" stroke="black" d="M882.02,-262.52C908.89,-256.11 943.83,-248.46 975.24,-243.76 1168.86,-214.83 1220.36,-234.86 1414.24,-207.76 1430.15,-205.54 1447.25,-202.47 1463.07,-199.35"/>
<polygon fill="#f91010" stroke="black" points="1463.74,-202.79 1472.85,-197.38 1462.36,-195.92 1463.74,-202.79"/>
</g>
<!-- intro_skipper_browser_browser_connection -->
<g id="node3" class="node">
<title>intro_skipper_browser_browser_connection</title><style>.edge>path:hover{stroke-width:8}</style>
<ellipse fill="#f31616" stroke="black" cx="503.24" cy="-373.1" rx="72.83" ry="31.11"/>
<text xml:space="preserve" text-anchor="middle" x="503.24" y="-381.6" font-family="Helvetica,sans-Serif" font-size="10.00" fill="#ffffff">intro_skipper.</text>
<text xml:space="preserve" text-anchor="middle" x="503.24" y="-369.6" font-family="Helvetica,sans-Serif" font-size="10.00" fill="#ffffff">browser.</text>
<text xml:space="preserve" text-anchor="middle" x="503.24" y="-357.6" font-family="Helvetica,sans-Serif" font-size="10.00" fill="#ffffff">browser_connection</text>
</g>
<!-- intro_skipper_browser_browser_connection&#45;&gt;intro_skipper_application -->
<g id="edge6" class="edge">
<title>intro_skipper_browser_browser_connection&#45;&gt;intro_skipper_application</title><style>.edge>path:hover{stroke-width:8}</style>
<path fill="none" stroke="black" d="M918.24,-273.88C928.42,-257.8 928.66,-236.52 926.25,-218.95"/>
<polygon fill="#f31616" stroke="black" points="929.72,-218.5 924.55,-209.25 922.82,-219.7 929.72,-218.5"/>
<path fill="none" stroke="black" d="M556.54,-351.61C567.56,-347.96 579.18,-344.52 590.24,-341.99 725.03,-311.2 782.24,-379.66 899.24,-305.99 912.63,-297.56 909.78,-289.25 918.24,-275.88"/>
</g>
<!-- intro_skipper_browser_chrome_connection -->
<g id="node4" class="node">
<title>intro_skipper_browser_chrome_connection</title><style>.edge>path:hover{stroke-width:8}</style>
<ellipse fill="#913030" stroke="black" cx="71.24" cy="-274.88" rx="71.24" ry="31.11"/>
<text xml:space="preserve" text-anchor="middle" x="71.24" y="-283.38" font-family="Helvetica,sans-Serif" font-size="10.00" fill="#ffffff">intro_skipper.</text>
<text xml:space="preserve" text-anchor="middle" x="71.24" y="-271.38" font-family="Helvetica,sans-Serif" font-size="10.00" fill="#ffffff">browser.</text>
<text xml:space="preserve" text-anchor="middle" x="71.24" y="-259.38" font-family="Helvetica,sans-Serif" font-size="10.00" fill="#ffffff">chrome_connection</text>
</g>
<!-- intro_skipper_browser_browser_connection&#45;&gt;intro_skipper_browser_chrome_connection -->
<g id="edge7" class="edge">
<title>intro_skipper_browser_browser_connection&#45;&gt;intro_skipper_browser_chrome_connection</title><style>.edge>path:hover{stroke-width:8}</style>
<path fill="none" stroke="black" d="M441.07,-356.5C421.05,-351.65 398.75,-346.41 378.24,-341.99 294.65,-323.97 272.71,-324.57 189.24,-305.99 174.05,-302.61 157.83,-298.68 142.44,-294.8"/>
<polygon fill="#f31616" stroke="black" points="143.42,-291.44 132.87,-292.37 141.7,-298.22 143.42,-291.44"/>
</g>
<!-- intro_skipper_browser_chrome_launcher -->
<g id="node5" class="node">
<title>intro_skipper_browser_chrome_launcher</title><style>.edge>path:hover{stroke-width:8}</style>
<ellipse fill="#ac2b2b" stroke="black" cx="456.24" cy="-274.88" rx="63.82" ry="31.11"/>
<text xml:space="preserve" text-anchor="middle" x="456.24" y="-283.38" font-family="Helvetica,sans-Serif" font-size="10.00" fill="#ffffff">intro_skipper.</text>
<text xml:space="preserve" text-anchor="middle" x="456.24" y="-271.38" font-family="Helvetica,sans-Serif" font-size="10.00" fill="#ffffff">browser.</text>
<text xml:space="preserve" text-anchor="middle" x="456.24" y="-259.38" font-family="Helvetica,sans-Serif" font-size="10.00" fill="#ffffff">chrome_launcher</text>
</g>
<!-- intro_skipper_browser_browser_connection&#45;&gt;intro_skipper_browser_chrome_launcher -->
<g id="edge8" class="edge">
<title>intro_skipper_browser_browser_connection&#45;&gt;intro_skipper_browser_chrome_launcher</title><style>.edge>path:hover{stroke-width:8}</style>
<path fill="none" stroke="black" d="M488.63,-342.18C484.52,-333.78 479.99,-324.5 475.65,-315.62"/>
<polygon fill="#f31616" stroke="black" points="478.88,-314.26 471.35,-306.81 472.59,-317.33 478.88,-314.26"/>
</g>
<!-- intro_skipper_browser_browser_connection&#45;&gt;intro_skipper_entry_point -->
<g id="edge9" class="edge">
<title>intro_skipper_browser_browser_connection&#45;&gt;intro_skipper_entry_point</title><style>.edge>path:hover{stroke-width:8}</style>
<path fill="none" stroke="black" d="M515.34,-342.32C535.57,-292.99 575.12,-198.48 586.24,-186.14"/>
<path fill="none" stroke="black" d="M837.24,-102.88C841.82,-88.32 842.43,-71.5 841.65,-57.1"/>
<polygon fill="#f31616" stroke="black" points="845.14,-56.88 840.85,-47.2 838.17,-57.45 845.14,-56.88"/>
<path fill="none" stroke="black" d="M586.24,-184.14C665.57,-98.16 802.17,-216.49 837.24,-104.88"/>
</g>
<!-- intro_skipper_browser_browser_connection&#45;&gt;intro_skipper_remote_control -->
<g id="edge10" class="edge">
<title>intro_skipper_browser_browser_connection&#45;&gt;intro_skipper_remote_control</title><style>.edge>path:hover{stroke-width:8}</style>
<path fill="none" stroke="black" d="M555.95,-351.17C567.12,-347.5 578.94,-344.17 590.24,-341.99 754.74,-310.27 1185.95,-363.66 1343.24,-305.99 1385.86,-290.36 1386.55,-269.06 1424.24,-243.76 1442.35,-231.61 1463.12,-219.29 1480.94,-209.18"/>
<polygon fill="#f31616" stroke="black" points="1482.18,-212.5 1489.18,-204.55 1478.75,-206.4 1482.18,-212.5"/>
</g>
<!-- intro_skipper_browser_chrome_connection&#45;&gt;intro_skipper_entry_point -->
<g id="edge11" class="edge">
<title>intro_skipper_browser_chrome_connection&#45;&gt;intro_skipper_entry_point</title><style>.edge>path:hover{stroke-width:8}</style>
<path fill="none" stroke="black" d="M219.24,-184.14C286.77,-123.01 326.17,-144.39 408.24,-104.88"/>
<path fill="none" stroke="black" d="M119.48,-251.57C150.11,-235.95 189.46,-213.1 219.24,-186.14"/>
<path fill="none" stroke="black" d="M408.24,-102.88C423.05,-95.75 423,-87.41 438.24,-81.25 549.88,-36.14 691.67,-25.64 772.66,-23.6"/>
<polygon fill="#913030" stroke="black" points="772.72,-27.1 782.65,-23.39 772.58,-20.1 772.72,-27.1"/>
</g>
<!-- intro_skipper_browser_chrome_launcher&#45;&gt;intro_skipper_chrome_executable_prompt -->
<g id="edge12" class="edge">
<title>intro_skipper_browser_chrome_launcher&#45;&gt;intro_skipper_chrome_executable_prompt</title><style>.edge>path:hover{stroke-width:8}</style>
<path fill="none" stroke="black" d="M408.24,-184.14C411.22,-154.77 435.97,-136.05 463.49,-124.24"/>
<polygon fill="#ac2b2b" stroke="black" points="464.71,-127.52 472.72,-120.59 462.14,-121.01 464.71,-127.52"/>
</g>
<!-- intro_skipper_browser_chrome_launcher&#45;&gt;intro_skipper_entry_point -->
<g id="edge13" class="edge">
<title>intro_skipper_browser_chrome_launcher&#45;&gt;intro_skipper_entry_point</title><style>.edge>path:hover{stroke-width:8}</style>
<path fill="none" stroke="black" d="M430.27,-246.21C417.81,-229.84 406.02,-208.08 408.24,-186.14"/>
<path fill="none" stroke="black" d="M408.24,-184.14C411.79,-149.09 376.5,-120.16 408.24,-104.88"/>
</g>
<!-- intro_skipper_chrome_executable_prompt&#45;&gt;intro_skipper_entry_point -->
<g id="edge14" class="edge">
<title>intro_skipper_chrome_executable_prompt&#45;&gt;intro_skipper_entry_point</title><style>.edge>path:hover{stroke-width:8}</style>
<path fill="none" stroke="black" d="M605.23,-86.17C657.7,-72.03 732.18,-51.95 782.49,-38.39"/>
<polygon fill="#a13535" stroke="black" points="783.26,-41.8 792,-35.82 781.44,-35.05 783.26,-41.8"/>
</g>
<!-- intro_skipper_command_line_arguments -->
<g id="node7" class="node">
<title>intro_skipper_command_line_arguments</title><style>.edge>path:hover{stroke-width:8}</style>
<ellipse fill="#993333" stroke="black" cx="1158.24" cy="-103.88" rx="91.92" ry="22.63"/>
<text xml:space="preserve" text-anchor="middle" x="1158.24" y="-106.38" font-family="Helvetica,sans-Serif" font-size="10.00" fill="#ffffff">intro_skipper.</text>
<text xml:space="preserve" text-anchor="middle" x="1158.24" y="-94.38" font-family="Helvetica,sans-Serif" font-size="10.00" fill="#ffffff">command_line_arguments</text>
</g>
<!-- intro_skipper_command_line_arguments&#45;&gt;intro_skipper_entry_point -->
<g id="edge15" class="edge">
<title>intro_skipper_command_line_arguments&#45;&gt;intro_skipper_entry_point</title><style>.edge>path:hover{stroke-width:8}</style>
<path fill="none" stroke="black" d="M1094.82,-87.22C1036.07,-72.72 949.51,-51.35 893.25,-37.46"/>
<polygon fill="#993333" stroke="black" points="894.44,-34.14 883.89,-35.15 892.76,-40.94 894.44,-34.14"/>
</g>
<!-- intro_skipper_helpers -->
<g id="node9" class="node">
<title>intro_skipper_helpers</title><style>.edge>path:hover{stroke-width:8}</style>
<ellipse fill="#f91010" stroke="black" cx="1155.24" cy="-569.55" rx="52.68" ry="22.63"/>
<text xml:space="preserve" text-anchor="middle" x="1155.24" y="-572.05" font-family="Helvetica,sans-Serif" font-size="10.00" fill="#ffffff">intro_skipper.</text>
<text xml:space="preserve" text-anchor="middle" x="1155.24" y="-560.05" font-family="Helvetica,sans-Serif" font-size="10.00" fill="#ffffff">helpers</text>
</g>
<!-- intro_skipper_helpers&#45;&gt;intro_skipper_application -->
<g id="edge16" class="edge">
<title>intro_skipper_helpers&#45;&gt;intro_skipper_application</title><style>.edge>path:hover{stroke-width:8}</style>
<path fill="none" stroke="black" d="M956.24,-470.33C926.99,-434.85 897.17,-414.97 918.24,-374.1"/>
</g>
<!-- intro_skipper_helpers&#45;&gt;intro_skipper_browser_chrome_connection -->
<g id="edge17" class="edge">
<title>intro_skipper_helpers&#45;&gt;intro_skipper_browser_chrome_connection</title><style>.edge>path:hover{stroke-width:8}</style>
<path fill="none" stroke="black" d="M1102.14,-568.9C939.48,-568.98 451.54,-561.62 326.24,-472.33"/>
<path fill="none" stroke="black" d="M326.24,-470.33C261.13,-423.93 225.96,-435.08 174.24,-374.1"/>
</g>
<!-- intro_skipper_helpers&#45;&gt;intro_skipper_browser_chrome_launcher -->
<g id="edge18" class="edge">
<title>intro_skipper_helpers&#45;&gt;intro_skipper_browser_chrome_launcher</title><style>.edge>path:hover{stroke-width:8}</style>
<path fill="none" stroke="black" d="M364.24,-372.1C374.74,-347.51 394.54,-325.5 413.08,-308.75"/>
<polygon fill="#f91010" stroke="black" points="415.37,-311.4 420.62,-302.2 410.78,-306.12 415.37,-311.4"/>
</g>
<!-- intro_skipper_helpers&#45;&gt;intro_skipper_chrome_executable_prompt -->
<g id="edge19" class="edge">
<title>intro_skipper_helpers&#45;&gt;intro_skipper_chrome_executable_prompt</title><style>.edge>path:hover{stroke-width:8}</style>
<path fill="none" stroke="black" d="M364.24,-372.1C401.19,-285.56 335.66,-236.15 394.24,-162.51 409.74,-143.03 432.68,-130.12 455.95,-121.58"/>
<polygon fill="#f91010" stroke="black" points="456.86,-124.97 465.2,-118.44 454.61,-118.34 456.86,-124.97"/>
<path fill="none" stroke="black" d="M326.24,-470.33C288.8,-443.64 345.46,-416.07 364.24,-374.1"/>
</g>
<!-- intro_skipper_helpers&#45;&gt;intro_skipper_command_line_arguments -->
<g id="edge20" class="edge">
<title>intro_skipper_helpers&#45;&gt;intro_skipper_command_line_arguments</title><style>.edge>path:hover{stroke-width:8}</style>
<path fill="none" stroke="black" d="M956.24,-470.33C929.04,-437.33 932.17,-409.45 956.24,-374.1"/>
</g>
<!-- intro_skipper_helpers&#45;&gt;intro_skipper_entry_point -->
<g id="edge21" class="edge">
<title>intro_skipper_helpers&#45;&gt;intro_skipper_entry_point</title><style>.edge>path:hover{stroke-width:8}</style>
<path fill="none" stroke="black" d="M326.24,-470.33C216.33,-392 119.18,-276.71 219.24,-186.14"/>
</g>
<!-- intro_skipper_logging_configuration -->
<g id="node12" class="node">
<title>intro_skipper_logging_configuration</title><style>.edge>path:hover{stroke-width:8}</style>
<ellipse fill="#b03a3a" stroke="black" cx="690.24" cy="-274.88" rx="76.01" ry="22.63"/>
<text xml:space="preserve" text-anchor="middle" x="690.24" y="-277.38" font-family="Helvetica,sans-Serif" font-size="10.00" fill="#ffffff">intro_skipper.</text>
<text xml:space="preserve" text-anchor="middle" x="690.24" y="-265.38" font-family="Helvetica,sans-Serif" font-size="10.00" fill="#ffffff">logging_configuration</text>
</g>
<!-- intro_skipper_helpers&#45;&gt;intro_skipper_logging_configuration -->
<g id="edge22" class="edge">
<title>intro_skipper_helpers&#45;&gt;intro_skipper_logging_configuration</title><style>.edge>path:hover{stroke-width:8}</style>
<path fill="none" stroke="black" d="M956.24,-470.33C896.71,-392.29 797.49,-331.51 738.53,-299.91"/>
<polygon fill="#f91010" stroke="black" points="740.53,-297.01 730.05,-295.43 737.25,-303.2 740.53,-297.01"/>
<path fill="none" stroke="black" d="M1109.18,-558.21C1063.69,-545.61 995.42,-519.85 956.24,-472.33"/>
</g>
<!-- intro_skipper_helpers&#45;&gt;intro_skipper_remote_control -->
<g id="edge23" class="edge">
<title>intro_skipper_helpers&#45;&gt;intro_skipper_remote_control</title><style>.edge>path:hover{stroke-width:8}</style>
<path fill="none" stroke="black" d="M1438.24,-470.33C1454.71,-430.38 1405.85,-304.47 1438.24,-275.88"/>
</g>
<!-- intro_skipper_services_streaming_service -->
<g id="node15" class="node">
<title>intro_skipper_services_streaming_service</title><style>.edge>path:hover{stroke-width:8}</style>
<ellipse fill="#df0b0b" stroke="black" cx="1342.24" cy="-373.1" rx="67.53" ry="31.11"/>
<text xml:space="preserve" text-anchor="middle" x="1342.24" y="-381.6" font-family="Helvetica,sans-Serif" font-size="10.00" fill="#ffffff">intro_skipper.</text>
<text xml:space="preserve" text-anchor="middle" x="1342.24" y="-369.6" font-family="Helvetica,sans-Serif" font-size="10.00" fill="#ffffff">services.</text>
<text xml:space="preserve" text-anchor="middle" x="1342.24" y="-357.6" font-family="Helvetica,sans-Serif" font-size="10.00" fill="#ffffff">streaming_service</text>
</g>
<!-- intro_skipper_helpers&#45;&gt;intro_skipper_services_streaming_service -->
<g id="edge24" class="edge">
<title>intro_skipper_helpers&#45;&gt;intro_skipper_services_streaming_service</title><style>.edge>path:hover{stroke-width:8}</style>
<path fill="none" stroke="black" d="M1438.24,-470.33C1449.71,-442.52 1425.95,-418.55 1399.21,-401.48"/>
<polygon fill="#f91010" stroke="black" points="1401.35,-398.69 1390.98,-396.52 1397.73,-404.68 1401.35,-398.69"/>
<path fill="none" stroke="black" d="M1204.25,-560.69C1280.3,-547.2 1419.94,-516.71 1438.24,-472.33"/>
</g>
<!-- intro_skipper_services_streaming_service_catalog -->
<g id="node16" class="node">
<title>intro_skipper_services_streaming_service_catalog</title><style>.edge>path:hover{stroke-width:8}</style>
<ellipse fill="#a32828" stroke="black" cx="1078.24" cy="-274.88" rx="93.51" ry="31.11"/>
<text xml:space="preserve" text-anchor="middle" x="1078.24" y="-283.38" font-family="Helvetica,sans-Serif" font-size="10.00" fill="#ffffff">intro_skipper.</text>
<text xml:space="preserve" text-anchor="middle" x="1078.24" y="-271.38" font-family="Helvetica,sans-Serif" font-size="10.00" fill="#ffffff">services.</text>
<text xml:space="preserve" text-anchor="middle" x="1078.24" y="-259.38" font-family="Helvetica,sans-Serif" font-size="10.00" fill="#ffffff">streaming_service_catalog</text>
</g>
<!-- intro_skipper_helpers&#45;&gt;intro_skipper_services_streaming_service_catalog -->
<g id="edge25" class="edge">
<title>intro_skipper_helpers&#45;&gt;intro_skipper_services_streaming_service_catalog</title><style>.edge>path:hover{stroke-width:8}</style>
<path fill="none" stroke="black" d="M956.24,-470.33C942.3,-452.05 975.89,-387.96 994.24,-374.1"/>
</g>
<!-- intro_skipper_skipping_settings -->
<g id="node17" class="node">
<title>intro_skipper_skipping_settings</title><style>.edge>path:hover{stroke-width:8}</style>
<ellipse fill="#c82323" stroke="black" cx="1531.24" cy="-274.88" rx="64.88" ry="22.63"/>
<text xml:space="preserve" text-anchor="middle" x="1531.24" y="-277.38" font-family="Helvetica,sans-Serif" font-size="10.00" fill="#ffffff">intro_skipper.</text>
<text xml:space="preserve" text-anchor="middle" x="1531.24" y="-265.38" font-family="Helvetica,sans-Serif" font-size="10.00" fill="#ffffff">skipping_settings</text>
</g>
<!-- intro_skipper_helpers&#45;&gt;intro_skipper_skipping_settings -->
<g id="edge26" class="edge">
<title>intro_skipper_helpers&#45;&gt;intro_skipper_skipping_settings</title><style>.edge>path:hover{stroke-width:8}</style>
<path fill="none" stroke="black" d="M1206.34,-563.18C1281.37,-554.33 1416.33,-534.4 1452.24,-502.44 1508.88,-452.04 1524.91,-358.8 1529.45,-309.1"/>
<polygon fill="#f91010" stroke="black" points="1532.93,-309.49 1530.24,-299.25 1525.95,-308.94 1532.93,-309.49"/>
</g>
<!-- intro_skipper_update_notification -->
<g id="node18" class="node">
<title>intro_skipper_update_notification</title><style>.edge>path:hover{stroke-width:8}</style>
<ellipse fill="#a83838" stroke="black" cx="267.24" cy="-274.88" rx="69.12" ry="22.63"/>
<text xml:space="preserve" text-anchor="middle" x="267.24" y="-277.38" font-family="Helvetica,sans-Serif" font-size="10.00" fill="#ffffff">intro_skipper.</text>
<text xml:space="preserve" text-anchor="middle" x="267.24" y="-265.38" font-family="Helvetica,sans-Serif" font-size="10.00" fill="#ffffff">update_notification</text>
</g>
<!-- intro_skipper_helpers&#45;&gt;intro_skipper_update_notification -->
<g id="edge27" class="edge">
<title>intro_skipper_helpers&#45;&gt;intro_skipper_update_notification</title><style>.edge>path:hover{stroke-width:8}</style>
<path fill="none" stroke="black" d="M326.24,-470.33C291.41,-445.51 355.34,-405.45 326.24,-374.1"/>
<path fill="none" stroke="black" d="M326.24,-372.1C308.38,-352.87 293.06,-327.42 282.51,-307.53"/>
<polygon fill="#f91010" stroke="black" points="285.68,-306.04 277.99,-298.75 279.46,-309.25 285.68,-306.04"/>
</g>
<!-- intro_skipper_helpers_constants -->
<g id="node10" class="node">
<title>intro_skipper_helpers_constants</title><style>.edge>path:hover{stroke-width:8}</style>
<ellipse fill="#f91010" stroke="black" cx="604.24" cy="-471.33" rx="52.68" ry="31.11"/>
<text xml:space="preserve" text-anchor="middle" x="604.24" y="-479.83" font-family="Helvetica,sans-Serif" font-size="10.00" fill="#ffffff">intro_skipper.</text>
<text xml:space="preserve" text-anchor="middle" x="604.24" y="-467.83" font-family="Helvetica,sans-Serif" font-size="10.00" fill="#ffffff">helpers.</text>
<text xml:space="preserve" text-anchor="middle" x="604.24" y="-455.83" font-family="Helvetica,sans-Serif" font-size="10.00" fill="#ffffff">constants</text>
</g>
<!-- intro_skipper_helpers_constants&#45;&gt;intro_skipper_application -->
<g id="edge28" class="edge">
<title>intro_skipper_helpers_constants&#45;&gt;intro_skipper_application</title><style>.edge>path:hover{stroke-width:8}</style>
<path fill="none" stroke="black" d="M655.38,-463.4C737.94,-450.91 893.84,-421.42 918.24,-374.1"/>
<path fill="none" stroke="black" d="M918.24,-372.1C937.84,-334.09 895.37,-312.01 918.24,-275.88"/>
</g>
<!-- intro_skipper_helpers_constants&#45;&gt;intro_skipper_browser_chrome_connection -->
<g id="edge29" class="edge">
<title>intro_skipper_helpers_constants&#45;&gt;intro_skipper_browser_chrome_connection</title><style>.edge>path:hover{stroke-width:8}</style>
<path fill="none" stroke="black" d="M553.2,-463.01C493.97,-453.55 393.97,-434.6 312.24,-404.22 274.86,-390.32 182.5,-339.24 123.59,-305.87"/>
<polygon fill="#f91010" stroke="black" points="125.45,-302.9 115.03,-301.01 122,-308.99 125.45,-302.9"/>
</g>
<!-- intro_skipper_helpers_constants&#45;&gt;intro_skipper_browser_chrome_launcher -->
<g id="edge30" class="edge">
<title>intro_skipper_helpers_constants&#45;&gt;intro_skipper_browser_chrome_launcher</title><style>.edge>path:hover{stroke-width:8}</style>
<path fill="none" stroke="black" d="M551.93,-467.16C508.95,-461.46 450.55,-445.96 421.24,-404.22 402.65,-377.73 414.89,-341.8 429.78,-314.69"/>
<polygon fill="#f91010" stroke="black" points="432.79,-316.48 434.8,-306.08 426.74,-312.96 432.79,-316.48"/>
</g>
<!-- intro_skipper_helpers_constants&#45;&gt;intro_skipper_chrome_executable_prompt -->
<g id="edge31" class="edge">
<title>intro_skipper_helpers_constants&#45;&gt;intro_skipper_chrome_executable_prompt</title><style>.edge>path:hover{stroke-width:8}</style>
<path fill="none" stroke="black" d="M601.67,-439.78C600.7,-420.75 600.58,-395.85 604.24,-374.1"/>
<path fill="none" stroke="black" d="M604.24,-372.1C611.46,-329.2 594.67,-318.56 586.24,-275.88"/>
<path fill="none" stroke="black" d="M586.24,-273.88C576.78,-225.98 562.18,-171.36 552.66,-137.5"/>
<polygon fill="#f91010" stroke="black" points="556.15,-136.98 550.06,-128.31 549.42,-138.89 556.15,-136.98"/>
</g>
<!-- intro_skipper_helpers_constants&#45;&gt;intro_skipper_command_line_arguments -->
<g id="edge32" class="edge">
<title>intro_skipper_helpers_constants&#45;&gt;intro_skipper_command_line_arguments</title><style>.edge>path:hover{stroke-width:8}</style>
<path fill="none" stroke="black" d="M956.24,-372.1C985.43,-322.38 945.88,-293.39 975.24,-243.76 1005.89,-191.97 1063.99,-152.98 1106.53,-129.69"/>
<polygon fill="#f91010" stroke="black" points="1107.94,-132.91 1115.11,-125.11 1104.64,-126.74 1107.94,-132.91"/>
<path fill="none" stroke="black" d="M657.39,-470.53C725.8,-468.48 846.11,-456.83 932.24,-404.22 946.85,-395.29 946.61,-388.25 956.24,-374.1"/>
</g>
<!-- intro_skipper_helpers_constants&#45;&gt;intro_skipper_entry_point -->
<g id="edge33" class="edge">
<title>intro_skipper_helpers_constants&#45;&gt;intro_skipper_entry_point</title><style>.edge>path:hover{stroke-width:8}</style>
<path fill="none" stroke="black" d="M586.24,-273.88C580.46,-235.31 559.8,-214.8 586.24,-186.14"/>
</g>
<!-- intro_skipper_helpers_constants&#45;&gt;intro_skipper_logging_configuration -->
<g id="edge34" class="edge">
<title>intro_skipper_helpers_constants&#45;&gt;intro_skipper_logging_configuration</title><style>.edge>path:hover{stroke-width:8}</style>
<path fill="none" stroke="black" d="M604.24,-372.1C609,-343.81 630.51,-319.75 650.83,-302.76"/>
<polygon fill="#f91010" stroke="black" points="652.88,-305.6 658.53,-296.63 648.53,-300.12 652.88,-305.6"/>
</g>
<!-- intro_skipper_helpers_constants&#45;&gt;intro_skipper_remote_control -->
<g id="edge35" class="edge">
<title>intro_skipper_helpers_constants&#45;&gt;intro_skipper_remote_control</title><style>.edge>path:hover{stroke-width:8}</style>
<path fill="none" stroke="black" d="M655.52,-463.36C732.48,-452.57 882.28,-430.34 1008.24,-404.22 1030.12,-399.68 1378.08,-315.63 1398.24,-305.99 1418.32,-296.39 1422.32,-291.43 1438.24,-275.88"/>
<path fill="none" stroke="black" d="M1438.24,-273.88C1450.1,-263.4 1446.95,-255.79 1457.24,-243.76 1466.59,-232.84 1478.04,-222.13 1488.75,-212.96"/>
<polygon fill="#f91010" stroke="black" points="1490.92,-215.71 1496.36,-206.62 1486.44,-210.33 1490.92,-215.71"/>
</g>
<!-- intro_skipper_helpers_constants&#45;&gt;intro_skipper_services_streaming_service_catalog -->
<g id="edge36" class="edge">
<title>intro_skipper_helpers_constants&#45;&gt;intro_skipper_services_streaming_service_catalog</title><style>.edge>path:hover{stroke-width:8}</style>
<path fill="none" stroke="black" d="M994.24,-372.1C1015.68,-355.91 1035.65,-333.49 1050.73,-314.36"/>
<polygon fill="#f91010" stroke="black" points="1053.47,-316.54 1056.8,-306.48 1047.92,-312.26 1053.47,-316.54"/>
<path fill="none" stroke="black" d="M656.26,-465.47C744.25,-456.51 917.99,-435.42 970.24,-404.22 984.93,-395.44 980.58,-384.42 994.24,-374.1"/>
</g>
<!-- intro_skipper_helpers_constants&#45;&gt;intro_skipper_update_notification -->
<g id="edge37" class="edge">
<title>intro_skipper_helpers_constants&#45;&gt;intro_skipper_update_notification</title><style>.edge>path:hover{stroke-width:8}</style>
<path fill="none" stroke="black" d="M551.75,-466.65C489.13,-459.41 385.49,-437.92 326.24,-374.1"/>
</g>
<!-- intro_skipper_helpers_enums -->
<g id="node11" class="node">
<title>intro_skipper_helpers_enums</title><style>.edge>path:hover{stroke-width:8}</style>
<ellipse fill="#e72222" stroke="black" cx="1476.24" cy="-569.55" rx="52.68" ry="31.11"/>
<text xml:space="preserve" text-anchor="middle" x="1476.24" y="-578.05" font-family="Helvetica,sans-Serif" font-size="10.00" fill="#ffffff">intro_skipper.</text>
<text xml:space="preserve" text-anchor="middle" x="1476.24" y="-566.05" font-family="Helvetica,sans-Serif" font-size="10.00" fill="#ffffff">helpers.</text>
<text xml:space="preserve" text-anchor="middle" x="1476.24" y="-554.05" font-family="Helvetica,sans-Serif" font-size="10.00" fill="#ffffff">enums</text>
</g>
<!-- intro_skipper_helpers_enums&#45;&gt;intro_skipper_remote_control -->
<g id="edge38" class="edge">
<title>intro_skipper_helpers_enums&#45;&gt;intro_skipper_remote_control</title><style>.edge>path:hover{stroke-width:8}</style>
<path fill="none" stroke="black" d="M1624.24,-372.1C1620.62,-314.56 1635.51,-292.84 1605.24,-243.76 1596.41,-229.44 1582.55,-217.72 1568.73,-208.68"/>
<polygon fill="#e72222" stroke="black" points="1570.86,-205.88 1560.51,-203.63 1567.2,-211.85 1570.86,-205.88"/>
</g>
<!-- intro_skipper_helpers_enums&#45;&gt;intro_skipper_services_streaming_service -->
<g id="edge39" class="edge">
<title>intro_skipper_helpers_enums&#45;&gt;intro_skipper_services_streaming_service</title><style>.edge>path:hover{stroke-width:8}</style>
<path fill="none" stroke="black" d="M1477.35,-538.13C1476.89,-510.29 1472.35,-469.16 1452.24,-440.22 1440.17,-422.85 1421.93,-409.27 1403.75,-399.06"/>
<polygon fill="#e72222" stroke="black" points="1405.51,-396.03 1395.04,-394.44 1402.23,-402.21 1405.51,-396.03"/>
</g>
<!-- intro_skipper_helpers_enums&#45;&gt;intro_skipper_services_streaming_service_catalog -->
<g id="edge40" class="edge">
<title>intro_skipper_helpers_enums&#45;&gt;intro_skipper_services_streaming_service_catalog</title><style>.edge>path:hover{stroke-width:8}</style>
<path fill="none" stroke="black" d="M1443.67,-544.6C1373.33,-492.87 1206.97,-370.54 1125.23,-310.43"/>
<polygon fill="#e72222" stroke="black" points="1127.51,-307.77 1117.38,-304.66 1123.37,-313.41 1127.51,-307.77"/>
</g>
<!-- intro_skipper_helpers_enums&#45;&gt;intro_skipper_skipping_settings -->
<g id="edge41" class="edge">
<title>intro_skipper_helpers_enums&#45;&gt;intro_skipper_skipping_settings</title><style>.edge>path:hover{stroke-width:8}</style>
<path fill="none" stroke="black" d="M1624.24,-372.1C1617.64,-342.75 1593.92,-318.47 1572.09,-301.64"/>
<polygon fill="#e72222" stroke="black" points="1574.26,-298.89 1564.13,-295.79 1570.11,-304.53 1574.26,-298.89"/>
<path fill="none" stroke="black" d="M1512.46,-546.74C1561.46,-514.11 1640.94,-448.4 1624.24,-374.1"/>
</g>
<!-- intro_skipper_logging_configuration&#45;&gt;intro_skipper_entry_point -->
<g id="edge42" class="edge">
<title>intro_skipper_logging_configuration&#45;&gt;intro_skipper_entry_point</title><style>.edge>path:hover{stroke-width:8}</style>
<path fill="none" stroke="black" d="M837.24,-184.14C849.09,-150.97 826.68,-138.49 837.24,-104.88"/>
<path fill="none" stroke="black" d="M733,-255.73C773.47,-237.38 829.22,-208.6 837.24,-186.14"/>
</g>
<!-- intro_skipper_remote_control&#45;&gt;intro_skipper_entry_point -->
<g id="edge43" class="edge">
<title>intro_skipper_remote_control&#45;&gt;intro_skipper_entry_point</title><style>.edge>path:hover{stroke-width:8}</style>
<path fill="none" stroke="black" d="M1505.57,-163.35C1489.56,-145.67 1464.52,-120.69 1438.24,-104.88"/>
</g>
<!-- intro_skipper_services -->
<g id="node14" class="node">
<title>intro_skipper_services</title><style>.edge>path:hover{stroke-width:8}</style>
<ellipse fill="#f31616" stroke="black" cx="1281.24" cy="-274.88" rx="52.68" ry="22.63"/>
<text xml:space="preserve" text-anchor="middle" x="1281.24" y="-277.38" font-family="Helvetica,sans-Serif" font-size="10.00" fill="#ffffff">intro_skipper.</text>
<text xml:space="preserve" text-anchor="middle" x="1281.24" y="-265.38" font-family="Helvetica,sans-Serif" font-size="10.00" fill="#ffffff">services</text>
</g>
<!-- intro_skipper_services&#45;&gt;intro_skipper_application -->
<g id="edge44" class="edge">
<title>intro_skipper_services&#45;&gt;intro_skipper_application</title><style>.edge>path:hover{stroke-width:8}</style>
<path fill="none" stroke="black" d="M1247.75,-257.01C1237.22,-252.2 1225.42,-247.31 1214.24,-243.76 1135.13,-218.66 1040.49,-202.55 979.89,-193.92"/>
<polygon fill="#f31616" stroke="black" points="980.5,-190.47 970.11,-192.55 979.53,-197.4 980.5,-190.47"/>
</g>
<!-- intro_skipper_services&#45;&gt;intro_skipper_command_line_arguments -->
<g id="edge45" class="edge">
<title>intro_skipper_services&#45;&gt;intro_skipper_command_line_arguments</title><style>.edge>path:hover{stroke-width:8}</style>
<path fill="none" stroke="black" d="M1400.24,-184.14C1389.64,-153.26 1310.71,-131.63 1245.83,-118.85"/>
<polygon fill="#f31616" stroke="black" points="1246.69,-115.45 1236.21,-117.01 1245.37,-122.33 1246.69,-115.45"/>
<path fill="none" stroke="black" d="M1315.57,-257.47C1353.17,-238.32 1407.28,-206.65 1400.24,-186.14"/>
</g>
<!-- intro_skipper_services&#45;&gt;intro_skipper_entry_point -->
<g id="edge46" class="edge">
<title>intro_skipper_services&#45;&gt;intro_skipper_entry_point</title><style>.edge>path:hover{stroke-width:8}</style>
<path fill="none" stroke="black" d="M1313.97,-256.66C1322.19,-252.39 1331.02,-247.87 1339.24,-243.76 1372.32,-227.24 1391.1,-236.6 1414.24,-207.76 1443.63,-171.14 1478.47,-129.09 1438.24,-104.88"/>
</g>
<!-- intro_skipper_services&#45;&gt;intro_skipper_remote_control -->
<g id="edge47" class="edge">
<title>intro_skipper_services&#45;&gt;intro_skipper_remote_control</title><style>.edge>path:hover{stroke-width:8}</style>
<path fill="none" stroke="black" d="M1315.72,-257.55C1326.08,-252.87 1337.54,-247.92 1348.24,-243.76 1370.46,-235.14 1426.12,-217.03 1468.75,-203.4"/>
<polygon fill="#f31616" stroke="black" points="1469.65,-206.78 1478.11,-200.41 1467.52,-200.11 1469.65,-206.78"/>
</g>
<!-- intro_skipper_services_streaming_service&#45;&gt;intro_skipper_application -->
<g id="edge48" class="edge">
<title>intro_skipper_services_streaming_service&#45;&gt;intro_skipper_application</title><style>.edge>path:hover{stroke-width:8}</style>
<path fill="none" stroke="black" d="M1291.36,-352.18C1267.54,-341.1 1239.93,-325.57 1219.24,-305.99 1195.71,-283.72 1207.63,-262.57 1181.24,-243.76 1122.75,-202.08 1039.72,-189.68 982.68,-186.42"/>
<polygon fill="#df0b0b" stroke="black" points="982.95,-182.93 972.79,-185.94 982.61,-189.92 982.95,-182.93"/>
</g>
<!-- intro_skipper_services_streaming_service&#45;&gt;intro_skipper_command_line_arguments -->
<g id="edge49" class="edge">
<title>intro_skipper_services_streaming_service&#45;&gt;intro_skipper_command_line_arguments</title><style>.edge>path:hover{stroke-width:8}</style>
<path fill="none" stroke="black" d="M1362.77,-343.27C1386.26,-306.57 1419.18,-241.31 1400.24,-186.14"/>
</g>
<!-- intro_skipper_services_streaming_service&#45;&gt;intro_skipper_entry_point -->
<g id="edge50" class="edge">
<title>intro_skipper_services_streaming_service&#45;&gt;intro_skipper_entry_point</title><style>.edge>path:hover{stroke-width:8}</style>
<path fill="none" stroke="black" d="M1409.79,-370.69C1467.55,-366.15 1549.89,-351.35 1605.24,-305.99 1650.86,-268.6 1679.46,-242.55 1662.24,-186.14"/>
</g>
<!-- intro_skipper_services_streaming_service&#45;&gt;intro_skipper_remote_control -->
<g id="edge51" class="edge">
<title>intro_skipper_services_streaming_service&#45;&gt;intro_skipper_remote_control</title><style>.edge>path:hover{stroke-width:8}</style>
<path fill="none" stroke="black" d="M1373.72,-345.12C1386.7,-333.51 1401.63,-319.52 1414.24,-305.99 1425.91,-293.47 1426,-287.84 1438.24,-275.88"/>
</g>
<!-- intro_skipper_services_streaming_service&#45;&gt;intro_skipper_services_streaming_service_catalog -->
<g id="edge52" class="edge">
<title>intro_skipper_services_streaming_service&#45;&gt;intro_skipper_services_streaming_service_catalog</title><style>.edge>path:hover{stroke-width:8}</style>
<path fill="none" stroke="black" d="M1290.2,-352.96C1280.25,-349.31 1269.93,-345.53 1260.24,-341.99 1224.34,-328.88 1184.43,-314.37 1151.15,-302.3"/>
<polygon fill="#df0b0b" stroke="black" points="1152.61,-299.1 1142.02,-298.98 1150.22,-305.68 1152.61,-299.1"/>
</g>
<!-- intro_skipper_services_streaming_service_catalog&#45;&gt;intro_skipper_command_line_arguments -->
<g id="edge53" class="edge">
<title>intro_skipper_services_streaming_service_catalog&#45;&gt;intro_skipper_command_line_arguments</title><style>.edge>path:hover{stroke-width:8}</style>
<path fill="none" stroke="black" d="M1362.24,-184.14C1377.45,-134.76 1318.94,-115.48 1260.74,-108.25"/>
<polygon fill="#a32828" stroke="black" points="1261.34,-104.79 1251.01,-107.16 1260.56,-111.75 1261.34,-104.79"/>
<path fill="none" stroke="black" d="M1155.05,-256.9C1236.97,-237.79 1355.9,-206.73 1362.24,-186.14"/>
</g>
<!-- intro_skipper_services_streaming_service_catalog&#45;&gt;intro_skipper_entry_point -->
<g id="edge54" class="edge">
<title>intro_skipper_services_streaming_service_catalog&#45;&gt;intro_skipper_entry_point</title><style>.edge>path:hover{stroke-width:8}</style>
<path fill="none" stroke="black" d="M1362.24,-184.14C1376.61,-137.5 1480.06,-130.04 1438.24,-104.88"/>
<path fill="none" stroke="black" d="M1438.24,-102.88C1348.75,-49.04 1036.8,-31.05 901.11,-25.68"/>
<polygon fill="#a32828" stroke="black" points="901.34,-22.19 891.21,-25.3 901.07,-29.18 901.34,-22.19"/>
</g>
<!-- intro_skipper_skipping_settings&#45;&gt;intro_skipper_application -->
<g id="edge55" class="edge">
<title>intro_skipper_skipping_settings&#45;&gt;intro_skipper_application</title><style>.edge>path:hover{stroke-width:8}</style>
<path fill="none" stroke="black" d="M1473.28,-264.22C1436.14,-258.13 1386.89,-250.22 1343.24,-243.76 1213.97,-224.65 1062.21,-204.66 979.54,-193.98"/>
<polygon fill="#c82323" stroke="black" points="980.21,-190.54 969.85,-192.73 979.32,-197.48 980.21,-190.54"/>
</g>
<!-- intro_skipper_skipping_settings&#45;&gt;intro_skipper_entry_point -->
<g id="edge56" class="edge">
<title>intro_skipper_skipping_settings&#45;&gt;intro_skipper_entry_point</title><style>.edge>path:hover{stroke-width:8}</style>
<path fill="none" stroke="black" d="M1584.96,-261.78C1626.24,-249.25 1674.34,-225.8 1662.24,-186.14"/>
<path fill="none" stroke="black" d="M1662.24,-184.14C1631.42,-83.13 1528.3,-160.03 1438.24,-104.88"/>
</g>
<!-- intro_skipper_skipping_settings&#45;&gt;intro_skipper_remote_control -->
<g id="edge57" class="edge">
<title>intro_skipper_skipping_settings&#45;&gt;intro_skipper_remote_control</title><style>.edge>path:hover{stroke-width:8}</style>
<path fill="none" stroke="black" d="M1529.26,-252.19C1528.37,-242.35 1527.29,-230.49 1526.29,-219.55"/>
<polygon fill="#c82323" stroke="black" points="1529.78,-219.33 1525.39,-209.69 1522.81,-219.97 1529.78,-219.33"/>
</g>
<!-- intro_skipper_update_notification&#45;&gt;intro_skipper_entry_point -->
<g id="edge58" class="edge">
<title>intro_skipper_update_notification&#45;&gt;intro_skipper_entry_point</title><style>.edge>path:hover{stroke-width:8}</style>
<path fill="none" stroke="black" d="M242.97,-253.61C222.25,-234.02 198.77,-204.66 219.24,-186.14"/>
</g>
<!-- requests -->
<g id="node19" class="node">
<title>requests</title><style>.edge>path:hover{stroke-width:8}</style>
<ellipse fill="#33cc33" stroke="black" cx="262.24" cy="-569.55" rx="32.17" ry="18"/>
<text xml:space="preserve" text-anchor="middle" x="262.24" y="-566.05" font-family="Helvetica,sans-Serif" font-size="10.00" fill="#000000">requests</text>
</g>
<!-- requests&#45;&gt;intro_skipper_browser_chrome_connection -->
<g id="edge59" class="edge">
<title>requests&#45;&gt;intro_skipper_browser_chrome_connection</title><style>.edge>path:hover{stroke-width:8}</style>
<path fill="none" stroke="black" d="M212.24,-470.33C197.9,-426.64 203.98,-409.17 174.24,-374.1"/>
<path fill="none" stroke="black" d="M251.66,-552.25C240.12,-533.67 221.99,-502.02 212.24,-472.33"/>
</g>
<!-- requests&#45;&gt;intro_skipper_update_notification -->
<g id="edge60" class="edge">
<title>requests&#45;&gt;intro_skipper_update_notification</title><style>.edge>path:hover{stroke-width:8}</style>
<path fill="none" stroke="black" d="M212.24,-470.33C192.72,-413.52 223.91,-345.73 246.71,-307.05"/>
<polygon fill="#33cc33" stroke="black" points="249.58,-309.06 251.79,-298.7 243.6,-305.42 249.58,-309.06"/>
</g>
<!-- websocket -->
<g id="node20" class="node">
<title>websocket</title><style>.edge>path:hover{stroke-width:8}</style>
<ellipse fill="#5353b6" stroke="black" cx="174.24" cy="-569.55" rx="38.03" ry="18"/>
<text xml:space="preserve" text-anchor="middle" x="174.24" y="-566.05" font-family="Helvetica,sans-Serif" font-size="10.00" fill="#ffffff">websocket</text>
</g>
<!-- websocket&#45;&gt;intro_skipper_browser_chrome_connection -->
<g id="edge61" class="edge">
<title>websocket&#45;&gt;intro_skipper_browser_chrome_connection</title><style>.edge>path:hover{stroke-width:8}</style>
<path fill="none" stroke="black" d="M174.24,-372.1C155.77,-349.76 132.33,-327.49 112.49,-310.01"/>
<polygon fill="#5353b6" stroke="black" points="114.92,-307.49 105.08,-303.57 110.33,-312.77 114.92,-307.49"/>
<path fill="none" stroke="black" d="M176.91,-551.34C183.09,-508.89 196.24,-400.7 174.24,-374.1"/>
</g>
</g>
</svg>
