<?xml version="1.0" encoding="UTF-8" standalone="no"?>
<!DOCTYPE svg PUBLIC "-//W3C//DTD SVG 1.1//EN"
 "http://www.w3.org/Graphics/SVG/1.1/DTD/svg11.dtd">
<!-- Generated by graphviz version 15.1.0 (20260618.0150)
 -->
<!-- Title: G Pages: 1 -->
<svg width="997pt" height="582pt"
 viewBox="0.00 0.00 997.00 582.00" xmlns="http://www.w3.org/2000/svg" xmlns:xlink="http://www.w3.org/1999/xlink">
<g id="graph0" class="graph" transform="scale(1 1) rotate(0) translate(4 578.44)">
<title>G</title><style>.edge>path:hover{stroke-width:8}</style>
<polygon fill="white" stroke="none" points="-4,4 -4,-578.44 992.62,-578.44 992.62,4 -4,4"/>
<!-- intro_skipper_application -->
<g id="node1" class="node">
<title>intro_skipper_application</title><style>.edge>path:hover{stroke-width:8}</style>
<ellipse fill="#913030" stroke="black" cx="632.03" cy="-103.88" rx="52.68" ry="22.63"/>
<text xml:space="preserve" text-anchor="middle" x="632.03" y="-106.38" font-family="Helvetica,sans-Serif" font-size="10.00" fill="#ffffff">intro_skipper.</text>
<text xml:space="preserve" text-anchor="middle" x="632.03" y="-94.38" font-family="Helvetica,sans-Serif" font-size="10.00" fill="#ffffff">application</text>
</g>
<!-- intro_skipper_entry_point -->
<g id="node8" class="node">
<title>intro_skipper_entry_point</title><style>.edge>path:hover{stroke-width:8}</style>
<ellipse fill="#6b2e2e" stroke="black" cx="632.03" cy="-22.63" rx="52.68" ry="22.63"/>
<text xml:space="preserve" text-anchor="middle" x="632.03" y="-25.13" font-family="Helvetica,sans-Serif" font-size="10.00" fill="#ffffff">intro_skipper.</text>
<text xml:space="preserve" text-anchor="middle" x="632.03" y="-13.13" font-family="Helvetica,sans-Serif" font-size="10.00" fill="#ffffff">entry_point</text>
</g>
<!-- intro_skipper_application&#45;&gt;intro_skipper_entry_point -->
<g id="edge1" class="edge">
<title>intro_skipper_application&#45;&gt;intro_skipper_entry_point</title><style>.edge>path:hover{stroke-width:8}</style>
<path fill="none" stroke="black" d="M632.03,-80.81C632.03,-73.42 632.03,-65.01 632.03,-56.97"/>
<polygon fill="#913030" stroke="black" points="635.53,-57.1 632.03,-47.1 628.53,-57.1 635.53,-57.1"/>
</g>
<!-- intro_skipper_browser -->
<g id="node2" class="node">
<title>intro_skipper_browser</title><style>.edge>path:hover{stroke-width:8}</style>
<ellipse fill="#f31616" stroke="black" cx="470.03" cy="-185.14" rx="52.68" ry="22.63"/>
<text xml:space="preserve" text-anchor="middle" x="470.03" y="-187.64" font-family="Helvetica,sans-Serif" font-size="10.00" fill="#ffffff">intro_skipper.</text>
<text xml:space="preserve" text-anchor="middle" x="470.03" y="-175.64" font-family="Helvetica,sans-Serif" font-size="10.00" fill="#ffffff">browser</text>
</g>
<!-- intro_skipper_browser&#45;&gt;intro_skipper_application -->
<g id="edge2" class="edge">
<title>intro_skipper_browser&#45;&gt;intro_skipper_application</title><style>.edge>path:hover{stroke-width:8}</style>
<path fill="none" stroke="black" d="M504,-167.52C528.4,-155.58 561.53,-139.37 587.98,-126.44"/>
<polygon fill="#f31616" stroke="black" points="589.31,-129.68 596.76,-122.14 586.24,-123.39 589.31,-129.68"/>
</g>
<!-- intro_skipper_chrome_executable_prompt -->
<g id="node6" class="node">
<title>intro_skipper_chrome_executable_prompt</title><style>.edge>path:hover{stroke-width:8}</style>
<ellipse fill="#a13535" stroke="black" cx="388.03" cy="-103.88" rx="96.17" ry="22.63"/>
<text xml:space="preserve" text-anchor="middle" x="388.03" y="-106.38" font-family="Helvetica,sans-Serif" font-size="10.00" fill="#ffffff">intro_skipper.</text>
<text xml:space="preserve" text-anchor="middle" x="388.03" y="-94.38" font-family="Helvetica,sans-Serif" font-size="10.00" fill="#ffffff">chrome_executable_prompt</text>
</g>
<!-- intro_skipper_browser&#45;&gt;intro_skipper_chrome_executable_prompt -->
<g id="edge3" class="edge">
<title>intro_skipper_browser&#45;&gt;intro_skipper_chrome_executable_prompt</title><style>.edge>path:hover{stroke-width:8}</style>
<path fill="none" stroke="black" d="M449.34,-164.14C439.91,-155.02 428.56,-144.05 418.2,-134.03"/>
<polygon fill="#f31616" stroke="black" points="420.87,-131.75 411.25,-127.32 416,-136.78 420.87,-131.75"/>
</g>
<!-- intro_skipper_browser&#45;&gt;intro_skipper_entry_point -->
<g id="edge4" class="edge">
<title>intro_skipper_browser&#45;&gt;intro_skipper_entry_point</title><style>.edge>path:hover{stroke-width:8}</style>
<path fill="none" stroke="black" d="M493.85,-164.8C511.27,-149.78 534.62,-127.73 551.03,-104.88"/>
<path fill="none" stroke="black" d="M551.03,-102.88C564.89,-83.61 583.68,-64.89 599.67,-50.5"/>
<polygon fill="#f31616" stroke="black" points="601.89,-53.2 607.08,-43.97 597.26,-47.95 601.89,-53.2"/>
</g>
<!-- intro_skipper_browser_browser_connection -->
<g id="node3" class="node">
<title>intro_skipper_browser_browser_connection</title><style>.edge>path:hover{stroke-width:8}</style>
<ellipse fill="#db2f2f" stroke="black" cx="326.03" cy="-373.1" rx="72.83" ry="31.11"/>
<text xml:space="preserve" text-anchor="middle" x="326.03" y="-381.6" font-family="Helvetica,sans-Serif" font-size="10.00" fill="#ffffff">intro_skipper.</text>
<text xml:space="preserve" text-anchor="middle" x="326.03" y="-369.6" font-family="Helvetica,sans-Serif" font-size="10.00" fill="#ffffff">browser.</text>
<text xml:space="preserve" text-anchor="middle" x="326.03" y="-357.6" font-family="Helvetica,sans-Serif" font-size="10.00" fill="#ffffff">browser_connection</text>
</g>
<!-- intro_skipper_browser_browser_connection&#45;&gt;intro_skipper_application -->
<g id="edge5" class="edge">
<title>intro_skipper_browser_browser_connection&#45;&gt;intro_skipper_application</title><style>.edge>path:hover{stroke-width:8}</style>
<path fill="none" stroke="black" d="M611.03,-184.14C618.61,-169.85 623.6,-152.63 626.8,-137.9"/>
<polygon fill="#db2f2f" stroke="black" points="630.21,-138.69 628.71,-128.2 623.34,-137.34 630.21,-138.69"/>
<path fill="none" stroke="black" d="M354.19,-344.01C387.71,-310.97 442.15,-258.74 466.03,-243.76 524.78,-206.92 578.56,-247.41 611.03,-186.14"/>
</g>
<!-- intro_skipper_browser_chrome_connection -->
<g id="node4" class="node">
<title>intro_skipper_browser_chrome_connection</title><style>.edge>path:hover{stroke-width:8}</style>
<ellipse fill="#913030" stroke="black" cx="126.03" cy="-274.88" rx="71.24" ry="31.11"/>
<text xml:space="preserve" text-anchor="middle" x="126.03" y="-283.38" font-family="Helvetica,sans-Serif" font-size="10.00" fill="#ffffff">intro_skipper.</text>
<text xml:space="preserve" text-anchor="middle" x="126.03" y="-271.38" font-family="Helvetica,sans-Serif" font-size="10.00" fill="#ffffff">browser.</text>
<text xml:space="preserve" text-anchor="middle" x="126.03" y="-259.38" font-family="Helvetica,sans-Serif" font-size="10.00" fill="#ffffff">chrome_connection</text>
</g>
<!-- intro_skipper_browser_browser_connection&#45;&gt;intro_skipper_browser_chrome_connection -->
<g id="edge6" class="edge">
<title>intro_skipper_browser_browser_connection&#45;&gt;intro_skipper_browser_chrome_connection</title><style>.edge>path:hover{stroke-width:8}</style>
<path fill="none" stroke="black" d="M278.38,-349.18C249.96,-335.5 213.68,-318.05 183.66,-303.6"/>
<polygon fill="#db2f2f" stroke="black" points="185.21,-300.47 174.68,-299.28 182.18,-306.77 185.21,-300.47"/>
</g>
<!-- intro_skipper_browser_chrome_launcher -->
<g id="node5" class="node">
<title>intro_skipper_browser_chrome_launcher</title><style>.edge>path:hover{stroke-width:8}</style>
<ellipse fill="#ac2b2b" stroke="black" cx="317.03" cy="-274.88" rx="63.82" ry="31.11"/>
<text xml:space="preserve" text-anchor="middle" x="317.03" y="-283.38" font-family="Helvetica,sans-Serif" font-size="10.00" fill="#ffffff">intro_skipper.</text>
<text xml:space="preserve" text-anchor="middle" x="317.03" y="-271.38" font-family="Helvetica,sans-Serif" font-size="10.00" fill="#ffffff">browser.</text>
<text xml:space="preserve" text-anchor="middle" x="317.03" y="-259.38" font-family="Helvetica,sans-Serif" font-size="10.00" fill="#ffffff">chrome_launcher</text>
</g>
<!-- intro_skipper_browser_browser_connection&#45;&gt;intro_skipper_browser_chrome_launcher -->
<g id="edge7" class="edge">
<title>intro_skipper_browser_browser_connection&#45;&gt;intro_skipper_browser_chrome_launcher</title><style>.edge>path:hover{stroke-width:8}</style>
<path fill="none" stroke="black" d="M323.19,-341.66C322.48,-334.11 321.71,-325.89 320.96,-317.9"/>
<polygon fill="#db2f2f" stroke="black" points="324.45,-317.59 320.04,-307.96 317.48,-318.25 324.45,-317.59"/>
</g>
<!-- intro_skipper_browser_chrome_connection&#45;&gt;intro_skipper_entry_point -->
<g id="edge8" class="edge">
<title>intro_skipper_browser_chrome_connection&#45;&gt;intro_skipper_entry_point</title><style>.edge>path:hover{stroke-width:8}</style>
<path fill="none" stroke="black" d="M116.53,-243.92C112.52,-224.85 111.62,-201.01 126.03,-186.14"/>
</g>
<!-- intro_skipper_browser_chrome_launcher&#45;&gt;intro_skipper_chrome_executable_prompt -->
<g id="edge9" class="edge">
<title>intro_skipper_browser_chrome_launcher&#45;&gt;intro_skipper_chrome_executable_prompt</title><style>.edge>path:hover{stroke-width:8}</style>
<path fill="none" stroke="black" d="M263.03,-184.14C264.63,-156.17 287.54,-137.65 313.32,-125.6"/>
<polygon fill="#ac2b2b" stroke="black" points="314.5,-128.9 322.3,-121.73 311.73,-122.47 314.5,-128.9"/>
</g>
<!-- intro_skipper_browser_chrome_launcher&#45;&gt;intro_skipper_entry_point -->
<g id="edge10" class="edge">
<title>intro_skipper_browser_chrome_launcher&#45;&gt;intro_skipper_entry_point</title><style>.edge>path:hover{stroke-width:8}</style>
<path fill="none" stroke="black" d="M288.73,-246.77C275.02,-230.59 261.74,-208.82 263.03,-186.14"/>
<path fill="none" stroke="black" d="M263.03,-184.14C265.04,-148.97 232.89,-123.1 263.03,-104.88"/>
</g>
<!-- intro_skipper_chrome_executable_prompt&#45;&gt;intro_skipper_entry_point -->
<g id="edge11" class="edge">
<title>intro_skipper_chrome_executable_prompt&#45;&gt;intro_skipper_entry_point</title><style>.edge>path:hover{stroke-width:8}</style>
<path fill="none" stroke="black" d="M443.1,-85C484.08,-71.68 539.66,-53.63 579.92,-40.55"/>
<polygon fill="#a13535" stroke="black" points="580.98,-43.89 589.41,-37.47 578.82,-37.23 580.98,-43.89"/>
</g>
<!-- intro_skipper_command_line_arguments -->
<g id="node7" class="node">
<title>intro_skipper_command_line_arguments</title><style>.edge>path:hover{stroke-width:8}</style>
<ellipse fill="#993333" stroke="black" cx="833.03" cy="-103.88" rx="91.92" ry="22.63"/>
<text xml:space="preserve" text-anchor="middle" x="833.03" y="-106.38" font-family="Helvetica,sans-Serif" font-size="10.00" fill="#ffffff">intro_skipper.</text>
<text xml:space="preserve" text-anchor="middle" x="833.03" y="-94.38" font-family="Helvetica,sans-Serif" font-size="10.00" fill="#ffffff">command_line_arguments</text>
</g>
<!-- intro_skipper_command_line_arguments&#45;&gt;intro_skipper_entry_point -->
<g id="edge12" class="edge">
<title>intro_skipper_command_line_arguments&#45;&gt;intro_skipper_entry_point</title><style>.edge>path:hover{stroke-width:8}</style>
<path fill="none" stroke="black" d="M785.4,-84.1C753.8,-71.64 712.44,-55.33 680.64,-42.79"/>
<polygon fill="#993333" stroke="black" points="682.25,-39.66 671.66,-39.25 679.68,-46.18 682.25,-39.66"/>
</g>
<!-- intro_skipper_helpers -->
<g id="node9" class="node">
<title>intro_skipper_helpers</title><style>.edge>path:hover{stroke-width:8}</style>
<ellipse fill="#f91010" stroke="black" cx="460.03" cy="-471.33" rx="52.68" ry="22.63"/>
<text xml:space="preserve" text-anchor="middle" x="460.03" y="-473.83" font-family="Helvetica,sans-Serif" font-size="10.00" fill="#ffffff">intro_skipper.</text>
<text xml:space="preserve" text-anchor="middle" x="460.03" y="-461.83" font-family="Helvetica,sans-Serif" font-size="10.00" fill="#ffffff">helpers</text>
</g>
<!-- intro_skipper_helpers&#45;&gt;intro_skipper_application -->
<g id="edge13" class="edge">
<title>intro_skipper_helpers&#45;&gt;intro_skipper_application</title><style>.edge>path:hover{stroke-width:8}</style>
<path fill="none" stroke="black" d="M482.74,-450.45C524.24,-413.89 610.45,-336.91 636.03,-305.99 646.12,-293.8 657.73,-291.47 655.03,-275.88"/>
<path fill="none" stroke="black" d="M655.03,-273.88C645.66,-231.27 591.95,-225.37 611.03,-186.14"/>
</g>
<!-- intro_skipper_helpers&#45;&gt;intro_skipper_browser_chrome_connection -->
<g id="edge14" class="edge">
<title>intro_skipper_helpers&#45;&gt;intro_skipper_browser_chrome_connection</title><style>.edge>path:hover{stroke-width:8}</style>
<path fill="none" stroke="black" d="M187.03,-372.1C177.61,-352.01 164.73,-331.04 153.23,-313.83"/>
<polygon fill="#f91010" stroke="black" points="156.38,-312.23 147.86,-305.93 150.59,-316.17 156.38,-312.23"/>
<path fill="none" stroke="black" d="M408.51,-466.16C355.29,-459.79 271.69,-443.85 211.03,-404.22 196.71,-394.85 194.3,-389.6 187.03,-374.1"/>
</g>
<!-- intro_skipper_helpers&#45;&gt;intro_skipper_browser_chrome_launcher -->
<g id="edge15" class="edge">
<title>intro_skipper_helpers&#45;&gt;intro_skipper_browser_chrome_launcher</title><style>.edge>path:hover{stroke-width:8}</style>
<path fill="none" stroke="black" d="M187.03,-372.1C178.23,-353.33 222.83,-324.21 262.15,-302.91"/>
<polygon fill="#f91010" stroke="black" points="263.74,-306.03 270.93,-298.25 260.45,-299.85 263.74,-306.03"/>
</g>
<!-- intro_skipper_helpers&#45;&gt;intro_skipper_chrome_executable_prompt -->
<g id="edge16" class="edge">
<title>intro_skipper_helpers&#45;&gt;intro_skipper_chrome_executable_prompt</title><style>.edge>path:hover{stroke-width:8}</style>
<path fill="none" stroke="black" d="M187.03,-372.1C186.71,-371.42 248.53,-163.07 249.03,-162.51 264.8,-144.99 286.72,-132.66 308.5,-124.04"/>
<polygon fill="#f91010" stroke="black" points="309.57,-127.37 317.73,-120.62 307.14,-120.81 309.57,-127.37"/>
</g>
<!-- intro_skipper_helpers&#45;&gt;intro_skipper_command_line_arguments -->
<g id="edge17" class="edge">
<title>intro_skipper_helpers&#45;&gt;intro_skipper_command_line_arguments</title><style>.edge>path:hover{stroke-width:8}</style>
<path fill="none" stroke="black" d="M725.03,-273.88C749.3,-222.78 786.26,-168.47 810.03,-135.61"/>
<polygon fill="#f91010" stroke="black" points="812.7,-137.9 815.77,-127.75 807.05,-133.77 812.7,-137.9"/>
<path fill="none" stroke="black" d="M493.43,-453.35C523.92,-437.65 566.53,-415.15 582.03,-404.22 616.93,-379.61 706.15,-314.17 725.03,-275.88"/>
</g>
<!-- intro_skipper_helpers&#45;&gt;intro_skipper_entry_point -->
<g id="edge18" class="edge">
<title>intro_skipper_helpers&#45;&gt;intro_skipper_entry_point</title><style>.edge>path:hover{stroke-width:8}</style>
<path fill="none" stroke="black" d="M407.24,-469.62C311.1,-465.01 111.36,-439.1 46.03,-305.99 33.85,-281.16 33.43,-268.38 46.03,-243.76 66.01,-204.76 95.54,-217.6 126.03,-186.14"/>
<path fill="none" stroke="black" d="M263.03,-102.88C274.24,-96.11 271.51,-87.46 283.03,-81.25 331.42,-55.2 482.71,-37.41 569.39,-29.06"/>
<polygon fill="#f91010" stroke="black" points="569.53,-32.57 579.15,-28.14 568.87,-25.6 569.53,-32.57"/>
<path fill="none" stroke="black" d="M126.03,-184.14C173.37,-132.1 202.83,-141.26 263.03,-104.88"/>
</g>
<!-- intro_skipper_logging_configuration -->
<g id="node11" class="node">
<title>intro_skipper_logging_configuration</title><style>.edge>path:hover{stroke-width:8}</style>
<ellipse fill="#b03a3a" stroke="black" cx="551.03" cy="-274.88" rx="76.01" ry="22.63"/>
<text xml:space="preserve" text-anchor="middle" x="551.03" y="-277.38" font-family="Helvetica,sans-Serif" font-size="10.00" fill="#ffffff">intro_skipper.</text>
<text xml:space="preserve" text-anchor="middle" x="551.03" y="-265.38" font-family="Helvetica,sans-Serif" font-size="10.00" fill="#ffffff">logging_configuration</text>
</g>
<!-- intro_skipper_helpers&#45;&gt;intro_skipper_logging_configuration -->
<g id="edge19" class="edge">
<title>intro_skipper_helpers&#45;&gt;intro_skipper_logging_configuration</title><style>.edge>path:hover{stroke-width:8}</style>
<path fill="none" stroke="black" d="M470.12,-448.78C486.14,-414.54 517.5,-347.53 536.12,-307.74"/>
<polygon fill="#f91010" stroke="black" points="539.19,-309.44 540.26,-298.9 532.85,-306.47 539.19,-309.44"/>
</g>
<!-- intro_skipper_services_streaming_service_catalog -->
<g id="node14" class="node">
<title>intro_skipper_services_streaming_service_catalog</title><style>.edge>path:hover{stroke-width:8}</style>
<ellipse fill="#ac2b2b" stroke="black" cx="847.03" cy="-274.88" rx="93.51" ry="31.11"/>
<text xml:space="preserve" text-anchor="middle" x="847.03" y="-283.38" font-family="Helvetica,sans-Serif" font-size="10.00" fill="#ffffff">intro_skipper.</text>
<text xml:space="preserve" text-anchor="middle" x="847.03" y="-271.38" font-family="Helvetica,sans-Serif" font-size="10.00" fill="#ffffff">services.</text>
<text xml:space="preserve" text-anchor="middle" x="847.03" y="-259.38" font-family="Helvetica,sans-Serif" font-size="10.00" fill="#ffffff">streaming_service_catalog</text>
</g>
<!-- intro_skipper_helpers&#45;&gt;intro_skipper_services_streaming_service_catalog -->
<g id="edge20" class="edge">
<title>intro_skipper_helpers&#45;&gt;intro_skipper_services_streaming_service_catalog</title><style>.edge>path:hover{stroke-width:8}</style>
<path fill="none" stroke="black" d="M490.86,-452.57C500.28,-447.85 510.84,-443.23 521.03,-440.22 586.9,-420.73 778.73,-452.05 828.03,-404.22 850.7,-382.23 854.24,-345.84 852.8,-317.41"/>
<polygon fill="#f91010" stroke="black" points="856.31,-317.39 852.07,-307.68 849.33,-317.92 856.31,-317.39"/>
</g>
<!-- intro_skipper_helpers_constants -->
<g id="node10" class="node">
<title>intro_skipper_helpers_constants</title><style>.edge>path:hover{stroke-width:8}</style>
<ellipse fill="#f91010" stroke="black" cx="583.03" cy="-471.33" rx="52.68" ry="31.11"/>
<text xml:space="preserve" text-anchor="middle" x="583.03" y="-479.83" font-family="Helvetica,sans-Serif" font-size="10.00" fill="#ffffff">intro_skipper.</text>
<text xml:space="preserve" text-anchor="middle" x="583.03" y="-467.83" font-family="Helvetica,sans-Serif" font-size="10.00" fill="#ffffff">helpers.</text>
<text xml:space="preserve" text-anchor="middle" x="583.03" y="-455.83" font-family="Helvetica,sans-Serif" font-size="10.00" fill="#ffffff">constants</text>
</g>
<!-- intro_skipper_helpers_constants&#45;&gt;intro_skipper_application -->
<g id="edge21" class="edge">
<title>intro_skipper_helpers_constants&#45;&gt;intro_skipper_application</title><style>.edge>path:hover{stroke-width:8}</style>
<path fill="none" stroke="black" d="M604.03,-442.48C629.43,-405.45 667.36,-337.47 655.03,-275.88"/>
</g>
<!-- intro_skipper_helpers_constants&#45;&gt;intro_skipper_browser_chrome_connection -->
<g id="edge22" class="edge">
<title>intro_skipper_helpers_constants&#45;&gt;intro_skipper_browser_chrome_connection</title><style>.edge>path:hover{stroke-width:8}</style>
<path fill="none" stroke="black" d="M545.1,-449.22C537.63,-445.75 529.72,-442.54 522.03,-440.22 402.78,-404.15 350.41,-469.06 244.03,-404.22 215.33,-386.72 223.36,-367.12 201.03,-341.99 191.11,-330.82 179.38,-319.69 168.19,-309.84"/>
<polygon fill="#f91010" stroke="black" points="170.77,-307.44 160.91,-303.56 166.2,-312.74 170.77,-307.44"/>
</g>
<!-- intro_skipper_helpers_constants&#45;&gt;intro_skipper_browser_chrome_launcher -->
<g id="edge23" class="edge">
<title>intro_skipper_helpers_constants&#45;&gt;intro_skipper_browser_chrome_launcher</title><style>.edge>path:hover{stroke-width:8}</style>
<path fill="none" stroke="black" d="M549.29,-447.11C531.28,-434.58 508.81,-418.75 489.03,-404.22 452.46,-377.32 444.4,-369.16 408.03,-341.99 392.88,-330.67 376.16,-318.44 361.23,-307.62"/>
<polygon fill="#f91010" stroke="black" points="363.58,-305 353.42,-301.98 359.47,-310.67 363.58,-305"/>
</g>
<!-- intro_skipper_helpers_constants&#45;&gt;intro_skipper_chrome_executable_prompt -->
<g id="edge24" class="edge">
<title>intro_skipper_helpers_constants&#45;&gt;intro_skipper_chrome_executable_prompt</title><style>.edge>path:hover{stroke-width:8}</style>
<path fill="none" stroke="black" d="M559.05,-443.54C520.19,-398.47 444.19,-303.03 408.03,-207.76 399.51,-185.3 394.46,-158.63 391.56,-138.07"/>
<polygon fill="#f91010" stroke="black" points="395.05,-137.72 390.29,-128.25 388.1,-138.62 395.05,-137.72"/>
</g>
<!-- intro_skipper_helpers_constants&#45;&gt;intro_skipper_command_line_arguments -->
<g id="edge25" class="edge">
<title>intro_skipper_helpers_constants&#45;&gt;intro_skipper_command_line_arguments</title><style>.edge>path:hover{stroke-width:8}</style>
<path fill="none" stroke="black" d="M969.03,-372.1C999.95,-295.37 991.57,-263.02 961.03,-186.14"/>
<path fill="none" stroke="black" d="M961.03,-184.14C947.99,-158.17 922.13,-139.81 897.05,-127.34"/>
<polygon fill="#f91010" stroke="black" points="898.68,-124.24 888.14,-123.17 895.71,-130.58 898.68,-124.24"/>
</g>
<!-- intro_skipper_helpers_constants&#45;&gt;intro_skipper_entry_point -->
<g id="edge26" class="edge">
<title>intro_skipper_helpers_constants&#45;&gt;intro_skipper_entry_point</title><style>.edge>path:hover{stroke-width:8}</style>
<path fill="none" stroke="black" d="M961.03,-184.14C945.22,-152.66 979.43,-134.92 961.03,-104.88"/>
</g>
<!-- intro_skipper_helpers_constants&#45;&gt;intro_skipper_logging_configuration -->
<g id="edge27" class="edge">
<title>intro_skipper_helpers_constants&#45;&gt;intro_skipper_logging_configuration</title><style>.edge>path:hover{stroke-width:8}</style>
<path fill="none" stroke="black" d="M578.03,-439.95C572.18,-404.38 562.52,-345.68 556.48,-308.98"/>
<polygon fill="#f91010" stroke="black" points="559.98,-308.69 554.9,-299.39 553.07,-309.83 559.98,-308.69"/>
</g>
<!-- intro_skipper_helpers_constants&#45;&gt;intro_skipper_services_streaming_service_catalog -->
<g id="edge28" class="edge">
<title>intro_skipper_helpers_constants&#45;&gt;intro_skipper_services_streaming_service_catalog</title><style>.edge>path:hover{stroke-width:8}</style>
<path fill="none" stroke="black" d="M969.03,-372.1C981.37,-341.49 954.05,-318.16 922.16,-302.14"/>
<polygon fill="#f91010" stroke="black" points="924.06,-299.17 913.52,-298.06 921.06,-305.5 924.06,-299.17"/>
<path fill="none" stroke="black" d="M635.59,-467.06C735.24,-459.46 944,-436.24 969.03,-374.1"/>
</g>
<!-- intro_skipper_logging_configuration&#45;&gt;intro_skipper_entry_point -->
<g id="edge29" class="edge">
<title>intro_skipper_logging_configuration&#45;&gt;intro_skipper_entry_point</title><style>.edge>path:hover{stroke-width:8}</style>
<path fill="none" stroke="black" d="M547.99,-252.07C542.86,-211.81 534.56,-127.81 551.03,-104.88"/>
</g>
<!-- intro_skipper_services -->
<g id="node12" class="node">
<title>intro_skipper_services</title><style>.edge>path:hover{stroke-width:8}</style>
<ellipse fill="#e72222" stroke="black" cx="692.03" cy="-185.14" rx="52.68" ry="22.63"/>
<text xml:space="preserve" text-anchor="middle" x="692.03" y="-187.64" font-family="Helvetica,sans-Serif" font-size="10.00" fill="#ffffff">intro_skipper.</text>
<text xml:space="preserve" text-anchor="middle" x="692.03" y="-175.64" font-family="Helvetica,sans-Serif" font-size="10.00" fill="#ffffff">services</text>
</g>
<!-- intro_skipper_services&#45;&gt;intro_skipper_application -->
<g id="edge30" class="edge">
<title>intro_skipper_services&#45;&gt;intro_skipper_application</title><style>.edge>path:hover{stroke-width:8}</style>
<path fill="none" stroke="black" d="M676.27,-163.31C669.71,-154.65 661.96,-144.41 654.8,-134.96"/>
<polygon fill="#e72222" stroke="black" points="657.64,-132.91 648.82,-127.05 652.06,-137.13 657.64,-132.91"/>
</g>
<!-- intro_skipper_services&#45;&gt;intro_skipper_command_line_arguments -->
<g id="edge31" class="edge">
<title>intro_skipper_services&#45;&gt;intro_skipper_command_line_arguments</title><style>.edge>path:hover{stroke-width:8}</style>
<path fill="none" stroke="black" d="M723.33,-166.55C742.08,-156.01 766.27,-142.41 787.15,-130.67"/>
<polygon fill="#e72222" stroke="black" points="788.78,-133.77 795.78,-125.82 785.35,-127.67 788.78,-133.77"/>
</g>
<!-- intro_skipper_services&#45;&gt;intro_skipper_entry_point -->
<g id="edge32" class="edge">
<title>intro_skipper_services&#45;&gt;intro_skipper_entry_point</title><style>.edge>path:hover{stroke-width:8}</style>
<path fill="none" stroke="black" d="M697.57,-162.23C701.86,-140.68 705.38,-107.29 694.03,-81.25 688.68,-68.96 679.26,-58.11 669.36,-49.23"/>
<polygon fill="#e72222" stroke="black" points="671.71,-46.63 661.78,-42.92 667.23,-52.01 671.71,-46.63"/>
</g>
<!-- intro_skipper_services_streaming_service -->
<g id="node13" class="node">
<title>intro_skipper_services_streaming_service</title><style>.edge>path:hover{stroke-width:8}</style>
<ellipse fill="#db2f2f" stroke="black" cx="751.03" cy="-373.1" rx="67.53" ry="31.11"/>
<text xml:space="preserve" text-anchor="middle" x="751.03" y="-381.6" font-family="Helvetica,sans-Serif" font-size="10.00" fill="#ffffff">intro_skipper.</text>
<text xml:space="preserve" text-anchor="middle" x="751.03" y="-369.6" font-family="Helvetica,sans-Serif" font-size="10.00" fill="#ffffff">services.</text>
<text xml:space="preserve" text-anchor="middle" x="751.03" y="-357.6" font-family="Helvetica,sans-Serif" font-size="10.00" fill="#ffffff">streaming_service</text>
</g>
<!-- intro_skipper_services_streaming_service&#45;&gt;intro_skipper_application -->
<g id="edge33" class="edge">
<title>intro_skipper_services_streaming_service&#45;&gt;intro_skipper_application</title><style>.edge>path:hover{stroke-width:8}</style>
<path fill="none" stroke="black" d="M710.11,-348.12C686.86,-331.42 661.19,-306.65 655.03,-275.88"/>
</g>
<!-- intro_skipper_services_streaming_service&#45;&gt;intro_skipper_command_line_arguments -->
<g id="edge34" class="edge">
<title>intro_skipper_services_streaming_service&#45;&gt;intro_skipper_command_line_arguments</title><style>.edge>path:hover{stroke-width:8}</style>
<path fill="none" stroke="black" d="M732.81,-342.94C723.03,-323.35 714.87,-297.29 725.03,-275.88"/>
</g>
<!-- intro_skipper_services_streaming_service&#45;&gt;intro_skipper_services_streaming_service_catalog -->
<g id="edge35" class="edge">
<title>intro_skipper_services_streaming_service&#45;&gt;intro_skipper_services_streaming_service_catalog</title><style>.edge>path:hover{stroke-width:8}</style>
<path fill="none" stroke="black" d="M778.8,-344.27C788.69,-334.36 799.97,-323.05 810.48,-312.52"/>
<polygon fill="#db2f2f" stroke="black" points="812.67,-315.27 817.26,-305.72 807.72,-310.33 812.67,-315.27"/>
</g>
<!-- intro_skipper_services_streaming_service_catalog&#45;&gt;intro_skipper_command_line_arguments -->
<g id="edge36" class="edge">
<title>intro_skipper_services_streaming_service_catalog&#45;&gt;intro_skipper_command_line_arguments</title><style>.edge>path:hover{stroke-width:8}</style>
<path fill="none" stroke="black" d="M923.03,-184.14C927.69,-160.76 910.19,-142.45 889.41,-129.34"/>
<polygon fill="#ac2b2b" stroke="black" points="891.41,-126.45 881.01,-124.44 887.89,-132.5 891.41,-126.45"/>
<path fill="none" stroke="black" d="M884.59,-245.98C901.32,-230.62 918.31,-209.85 923.03,-186.14"/>
</g>
<!-- intro_skipper_services_streaming_service_catalog&#45;&gt;intro_skipper_entry_point -->
<g id="edge37" class="edge">
<title>intro_skipper_services_streaming_service_catalog&#45;&gt;intro_skipper_entry_point</title><style>.edge>path:hover{stroke-width:8}</style>
<path fill="none" stroke="black" d="M961.03,-102.88C933.51,-57.93 782.92,-37.06 695.32,-28.59"/>
<polygon fill="#ac2b2b" stroke="black" points="695.71,-25.11 685.42,-27.67 695.05,-32.08 695.71,-25.11"/>
<path fill="none" stroke="black" d="M923.03,-184.14C930.66,-145.82 981.44,-138.2 961.03,-104.88"/>
</g>
<!-- requests -->
<g id="node15" class="node">
<title>requests</title><style>.edge>path:hover{stroke-width:8}</style>
<ellipse fill="#40c040" stroke="black" cx="126.03" cy="-556.44" rx="32.17" ry="18"/>
<text xml:space="preserve" text-anchor="middle" x="126.03" y="-552.94" font-family="Helvetica,sans-Serif" font-size="10.00" fill="#000000">requests</text>
</g>
<!-- requests&#45;&gt;intro_skipper_browser_chrome_connection -->
<g id="edge38" class="edge">
<title>requests&#45;&gt;intro_skipper_browser_chrome_connection</title><style>.edge>path:hover{stroke-width:8}</style>
<path fill="none" stroke="black" d="M123.7,-538.29C121.93,-521.28 120.61,-494.62 126.03,-472.33"/>
</g>
<!-- websocket -->
<g id="node16" class="node">
<title>websocket</title><style>.edge>path:hover{stroke-width:8}</style>
<ellipse fill="#5353b6" stroke="black" cx="38.03" cy="-556.44" rx="38.03" ry="18"/>
<text xml:space="preserve" text-anchor="middle" x="38.03" y="-552.94" font-family="Helvetica,sans-Serif" font-size="10.00" fill="#ffffff">websocket</text>
</g>
<!-- websocket&#45;&gt;intro_skipper_browser_chrome_connection -->
<g id="edge39" class="edge">
<title>websocket&#45;&gt;intro_skipper_browser_chrome_connection</title><style>.edge>path:hover{stroke-width:8}</style>
<path fill="none" stroke="black" d="M62.96,-542.67C86.1,-528.99 118.14,-504.79 126.03,-472.33"/>
<path fill="none" stroke="black" d="M126.03,-470.33C138.53,-418.94 135.73,-357.62 131.68,-317.78"/>
<polygon fill="#5353b6" stroke="black" points="135.16,-317.45 130.59,-307.89 128.21,-318.21 135.16,-317.45"/>
</g>
</g>
</svg>
