<?xml version="1.0" encoding="UTF-8" standalone="no"?>
<!DOCTYPE svg PUBLIC "-//W3C//DTD SVG 1.1//EN"
 "http://www.w3.org/Graphics/SVG/1.1/DTD/svg11.dtd">
<!-- Generated by graphviz version 15.1.0 (20260618.0150)
 -->
<!-- Title: G Pages: 1 -->
<svg width="1712pt" height="609pt"
 viewBox="0.00 0.00 1712.00 609.00" xmlns="http://www.w3.org/2000/svg" xmlns:xlink="http://www.w3.org/1999/xlink">
<g id="graph0" class="graph" transform="scale(1 1) rotate(0) translate(4 604.67)">
<title>G</title><style>.edge>path:hover{stroke-width:8}</style>
<polygon fill="white" stroke="none" points="-4,4 -4,-604.67 1708.08,-604.67 1708.08,4 -4,4"/>
<!-- intro_skipper_application -->
<g id="node1" class="node">
<title>intro_skipper_application</title><style>.edge>path:hover{stroke-width:8}</style>
<ellipse fill="#8a2e2e" stroke="black" cx="913.04" cy="-185.14" rx="52.68" ry="22.63"/>
<text xml:space="preserve" text-anchor="middle" x="913.04" y="-187.64" font-family="Helvetica,sans-Serif" font-size="10.00" fill="#ffffff">intro_skipper.</text>
<text xml:space="preserve" text-anchor="middle" x="913.04" y="-175.64" font-family="Helvetica,sans-Serif" font-size="10.00" fill="#ffffff">application</text>
</g>
<!-- intro_skipper_entry_point -->
<g id="node8" class="node">
<title>intro_skipper_entry_point</title><style>.edge>path:hover{stroke-width:8}</style>
<ellipse fill="#6b2e2e" stroke="black" cx="628.04" cy="-22.63" rx="52.68" ry="22.63"/>
<text xml:space="preserve" text-anchor="middle" x="628.04" y="-25.13" font-family="Helvetica,sans-Serif" font-size="10.00" fill="#ffffff">intro_skipper.</text>
<text xml:space="preserve" text-anchor="middle" x="628.04" y="-13.13" font-family="Helvetica,sans-Serif" font-size="10.00" fill="#ffffff">entry_point</text>
</g>
<!-- intro_skipper_application&#45;&gt;intro_skipper_entry_point -->
<g id="edge1" class="edge">
<title>intro_skipper_application&#45;&gt;intro_skipper_entry_point</title><style>.edge>path:hover{stroke-width:8}</style>
<path fill="none" stroke="black" d="M920.63,-162.57C925.49,-144.39 928.36,-119.12 913.04,-104.88"/>
</g>
<!-- intro_skipper_browser -->
<g id="node2" class="node">
<title>intro_skipper_browser</title><style>.edge>path:hover{stroke-width:8}</style>
<ellipse fill="#f91010" stroke="black" cx="837.04" cy="-274.88" rx="52.68" ry="22.63"/>
<text xml:space="preserve" text-anchor="middle" x="837.04" y="-277.38" font-family="Helvetica,sans-Serif" font-size="10.00" fill="#ffffff">intro_skipper.</text>
<text xml:space="preserve" text-anchor="middle" x="837.04" y="-265.38" font-family="Helvetica,sans-Serif" font-size="10.00" fill="#ffffff">browser</text>
</g>
<!-- intro_skipper_browser&#45;&gt;intro_skipper_application -->
<g id="edge2" class="edge">
<title>intro_skipper_browser&#45;&gt;intro_skipper_application</title><style>.edge>path:hover{stroke-width:8}</style>
<path fill="none" stroke="black" d="M854.67,-253.53C864.57,-242.09 877.1,-227.63 888.01,-215.04"/>
<polygon fill="#f91010" stroke="black" points="890.35,-217.67 894.26,-207.82 885.06,-213.09 890.35,-217.67"/>
</g>
<!-- intro_skipper_chrome_executable_prompt -->
<g id="node6" class="node">
<title>intro_skipper_chrome_executable_prompt</title><style>.edge>path:hover{stroke-width:8}</style>
<ellipse fill="#a13535" stroke="black" cx="1037.04" cy="-103.88" rx="96.17" ry="22.63"/>
<text xml:space="preserve" text-anchor="middle" x="1037.04" y="-106.38" font-family="Helvetica,sans-Serif" font-size="10.00" fill="#ffffff">intro_skipper.</text>
<text xml:space="preserve" text-anchor="middle" x="1037.04" y="-94.38" font-family="Helvetica,sans-Serif" font-size="10.00" fill="#ffffff">chrome_executable_prompt</text>
</g>
<!-- intro_skipper_browser&#45;&gt;intro_skipper_chrome_executable_prompt -->
<g id="edge3" class="edge">
<title>intro_skipper_browser&#45;&gt;intro_skipper_chrome_executable_prompt</title><style>.edge>path:hover{stroke-width:8}</style>
<path fill="none" stroke="black" d="M832.04,-184.14C835.68,-157.2 898.79,-135.69 954.03,-121.92"/>
<polygon fill="#f91010" stroke="black" points="954.59,-125.38 963.48,-119.62 952.94,-118.58 954.59,-125.38"/>
</g>
<!-- intro_skipper_browser&#45;&gt;intro_skipper_entry_point -->
<g id="edge4" class="edge">
<title>intro_skipper_browser&#45;&gt;intro_skipper_entry_point</title><style>.edge>path:hover{stroke-width:8}</style>
<path fill="none" stroke="black" d="M913.04,-102.88C852.62,-46.73 755.84,-29.84 692.1,-25.05"/>
<polygon fill="#f91010" stroke="black" points="692.71,-21.58 682.5,-24.41 692.25,-28.57 692.71,-21.58"/>
<path fill="none" stroke="black" d="M832.04,-184.14C838.79,-134.23 949.94,-139.17 913.04,-104.88"/>
</g>
<!-- intro_skipper_remote_control -->
<g id="node13" class="node">
<title>intro_skipper_remote_control</title><style>.edge>path:hover{stroke-width:8}</style>
<ellipse fill="#7a2828" stroke="black" cx="628.04" cy="-103.88" rx="56.92" ry="22.63"/>
<text xml:space="preserve" text-anchor="middle" x="628.04" y="-106.38" font-family="Helvetica,sans-Serif" font-size="10.00" fill="#ffffff">intro_skipper.</text>
<text xml:space="preserve" text-anchor="middle" x="628.04" y="-94.38" font-family="Helvetica,sans-Serif" font-size="10.00" fill="#ffffff">remote_control</text>
</g>
<!-- intro_skipper_browser&#45;&gt;intro_skipper_remote_control -->
<g id="edge5" class="edge">
<title>intro_skipper_browser&#45;&gt;intro_skipper_remote_control</title><style>.edge>path:hover{stroke-width:8}</style>
<path fill="none" stroke="black" d="M833.51,-252.15C831.16,-234.34 829.02,-208.51 832.04,-186.14"/>
<path fill="none" stroke="black" d="M832.04,-184.14C836.2,-153.39 752.01,-129.61 690.51,-116.43"/>
<polygon fill="#f91010" stroke="black" points="691.31,-113.02 680.8,-114.4 689.88,-119.87 691.31,-113.02"/>
</g>
<!-- intro_skipper_streaming_tab_finder -->
<g id="node18" class="node">
<title>intro_skipper_streaming_tab_finder</title><style>.edge>path:hover{stroke-width:8}</style>
<ellipse fill="#913030" stroke="black" cx="680.04" cy="-185.14" rx="75.48" ry="22.63"/>
<text xml:space="preserve" text-anchor="middle" x="680.04" y="-187.64" font-family="Helvetica,sans-Serif" font-size="10.00" fill="#ffffff">intro_skipper.</text>
<text xml:space="preserve" text-anchor="middle" x="680.04" y="-175.64" font-family="Helvetica,sans-Serif" font-size="10.00" fill="#ffffff">streaming_tab_finder</text>
</g>
<!-- intro_skipper_browser&#45;&gt;intro_skipper_streaming_tab_finder -->
<g id="edge6" class="edge">
<title>intro_skipper_browser&#45;&gt;intro_skipper_streaming_tab_finder</title><style>.edge>path:hover{stroke-width:8}</style>
<path fill="none" stroke="black" d="M805.65,-256.33C782.5,-243.4 750.68,-225.62 724.86,-211.19"/>
<polygon fill="#f91010" stroke="black" points="726.69,-208.2 716.25,-206.37 723.28,-214.31 726.69,-208.2"/>
</g>
<!-- intro_skipper_browser_browser_connection -->
<g id="node3" class="node">
<title>intro_skipper_browser_browser_connection</title><style>.edge>path:hover{stroke-width:8}</style>
<ellipse fill="#f91010" stroke="black" cx="819.04" cy="-373.1" rx="72.83" ry="31.11"/>
<text xml:space="preserve" text-anchor="middle" x="819.04" y="-381.6" font-family="Helvetica,sans-Serif" font-size="10.00" fill="#ffffff">intro_skipper.</text>
<text xml:space="preserve" text-anchor="middle" x="819.04" y="-369.6" font-family="Helvetica,sans-Serif" font-size="10.00" fill="#ffffff">browser.</text>
<text xml:space="preserve" text-anchor="middle" x="819.04" y="-357.6" font-family="Helvetica,sans-Serif" font-size="10.00" fill="#ffffff">browser_connection</text>
</g>
<!-- intro_skipper_browser_browser_connection&#45;&gt;intro_skipper_application -->
<g id="edge7" class="edge">
<title>intro_skipper_browser_browser_connection&#45;&gt;intro_skipper_application</title><style>.edge>path:hover{stroke-width:8}</style>
<path fill="none" stroke="black" d="M871.28,-350.97C902.28,-335.31 938.8,-310.64 956.04,-275.88"/>
<path fill="none" stroke="black" d="M956.04,-273.88C965.86,-254.08 954.55,-231.7 941.07,-214.51"/>
<polygon fill="#f91010" stroke="black" points="944.02,-212.58 934.9,-207.18 938.67,-217.09 944.02,-212.58"/>
</g>
<!-- intro_skipper_browser_chrome_connection -->
<g id="node4" class="node">
<title>intro_skipper_browser_chrome_connection</title><style>.edge>path:hover{stroke-width:8}</style>
<ellipse fill="#913030" stroke="black" cx="1603.04" cy="-274.88" rx="71.24" ry="31.11"/>
<text xml:space="preserve" text-anchor="middle" x="1603.04" y="-283.38" font-family="Helvetica,sans-Serif" font-size="10.00" fill="#ffffff">intro_skipper.</text>
<text xml:space="preserve" text-anchor="middle" x="1603.04" y="-271.38" font-family="Helvetica,sans-Serif" font-size="10.00" fill="#ffffff">browser.</text>
<text xml:space="preserve" text-anchor="middle" x="1603.04" y="-259.38" font-family="Helvetica,sans-Serif" font-size="10.00" fill="#ffffff">chrome_connection</text>
</g>
<!-- intro_skipper_browser_browser_connection&#45;&gt;intro_skipper_browser_chrome_connection -->
<g id="edge8" class="edge">
<title>intro_skipper_browser_browser_connection&#45;&gt;intro_skipper_browser_chrome_connection</title><style>.edge>path:hover{stroke-width:8}</style>
<path fill="none" stroke="black" d="M883.4,-358.26C912.75,-352.41 948.02,-346.03 980.04,-341.99 1220,-311.7 1286.65,-357.14 1523.04,-305.99 1529.36,-304.62 1535.84,-302.85 1542.26,-300.85"/>
<polygon fill="#f91010" stroke="black" points="1543.12,-304.25 1551.5,-297.77 1540.9,-297.61 1543.12,-304.25"/>
</g>
<!-- intro_skipper_browser_chrome_launcher -->
<g id="node5" class="node">
<title>intro_skipper_browser_chrome_launcher</title><style>.edge>path:hover{stroke-width:8}</style>
<ellipse fill="#ac2b2b" stroke="black" cx="1256.04" cy="-274.88" rx="63.82" ry="31.11"/>
<text xml:space="preserve" text-anchor="middle" x="1256.04" y="-283.38" font-family="Helvetica,sans-Serif" font-size="10.00" fill="#ffffff">intro_skipper.</text>
<text xml:space="preserve" text-anchor="middle" x="1256.04" y="-271.38" font-family="Helvetica,sans-Serif" font-size="10.00" fill="#ffffff">browser.</text>
<text xml:space="preserve" text-anchor="middle" x="1256.04" y="-259.38" font-family="Helvetica,sans-Serif" font-size="10.00" fill="#ffffff">chrome_launcher</text>
</g>
<!-- intro_skipper_browser_browser_connection&#45;&gt;intro_skipper_browser_chrome_launcher -->
<g id="edge9" class="edge">
<title>intro_skipper_browser_browser_connection&#45;&gt;intro_skipper_browser_chrome_launcher</title><style>.edge>path:hover{stroke-width:8}</style>
<path fill="none" stroke="black" d="M885.21,-359.58C914.29,-354.12 948.85,-347.67 980.04,-341.99 1070.19,-325.57 1095.07,-331.61 1183.04,-305.99 1188.42,-304.42 1193.93,-302.59 1199.41,-300.62"/>
<polygon fill="#f91010" stroke="black" points="1200.31,-304.02 1208.43,-297.22 1197.84,-297.47 1200.31,-304.02"/>
</g>
<!-- intro_skipper_browser_browser_connection&#45;&gt;intro_skipper_entry_point -->
<g id="edge10" class="edge">
<title>intro_skipper_browser_browser_connection&#45;&gt;intro_skipper_entry_point</title><style>.edge>path:hover{stroke-width:8}</style>
<path fill="none" stroke="black" d="M956.04,-273.88C974.92,-235.81 1014.87,-223.18 994.04,-186.14"/>
<path fill="none" stroke="black" d="M994.04,-184.14C975.61,-151.34 958.96,-152.79 932.04,-126.51 922.89,-117.57 922.41,-113.59 913.04,-104.88"/>
</g>
<!-- intro_skipper_browser_browser_connection&#45;&gt;intro_skipper_remote_control -->
<g id="edge11" class="edge">
<title>intro_skipper_browser_browser_connection&#45;&gt;intro_skipper_remote_control</title><style>.edge>path:hover{stroke-width:8}</style>
<path fill="none" stroke="black" d="M787.48,-344.73C770.68,-326.91 753.86,-302.14 756.04,-275.88"/>
</g>
<!-- intro_skipper_browser_browser_connection&#45;&gt;intro_skipper_streaming_tab_finder -->
<g id="edge12" class="edge">
<title>intro_skipper_browser_browser_connection&#45;&gt;intro_skipper_streaming_tab_finder</title><style>.edge>path:hover{stroke-width:8}</style>
<path fill="none" stroke="black" d="M780.19,-346.43C757.82,-329.32 731.54,-304.72 718.04,-275.88"/>
</g>
<!-- intro_skipper_browser_chrome_connection&#45;&gt;intro_skipper_entry_point -->
<g id="edge13" class="edge">
<title>intro_skipper_browser_chrome_connection&#45;&gt;intro_skipper_entry_point</title><style>.edge>path:hover{stroke-width:8}</style>
<path fill="none" stroke="black" d="M1606.64,-243.39C1607.76,-226.31 1607.69,-204.76 1603.04,-186.14"/>
</g>
<!-- intro_skipper_browser_chrome_launcher&#45;&gt;intro_skipper_chrome_executable_prompt -->
<g id="edge14" class="edge">
<title>intro_skipper_browser_chrome_launcher&#45;&gt;intro_skipper_chrome_executable_prompt</title><style>.edge>path:hover{stroke-width:8}</style>
<path fill="none" stroke="black" d="M1032.04,-184.14C1018.48,-173.39 1019.42,-154.13 1023.9,-137.29"/>
<polygon fill="#ac2b2b" stroke="black" points="1027.12,-138.72 1026.78,-128.13 1020.44,-136.62 1027.12,-138.72"/>
</g>
<!-- intro_skipper_browser_chrome_launcher&#45;&gt;intro_skipper_entry_point -->
<g id="edge15" class="edge">
<title>intro_skipper_browser_chrome_launcher&#45;&gt;intro_skipper_entry_point</title><style>.edge>path:hover{stroke-width:8}</style>
<path fill="none" stroke="black" d="M1032.04,-184.14C1020.79,-175.22 1019.99,-170.47 1008.04,-162.51 976.94,-141.78 961.88,-149.01 932.04,-126.51 921.83,-118.81 922.41,-113.59 913.04,-104.88"/>
<path fill="none" stroke="black" d="M1208.21,-253.93C1199.84,-250.5 1191.2,-247 1183.04,-243.76 1116.28,-217.26 1088.34,-230.75 1032.04,-186.14"/>
</g>
<!-- intro_skipper_chrome_executable_prompt&#45;&gt;intro_skipper_entry_point -->
<g id="edge16" class="edge">
<title>intro_skipper_chrome_executable_prompt&#45;&gt;intro_skipper_entry_point</title><style>.edge>path:hover{stroke-width:8}</style>
<path fill="none" stroke="black" d="M964.57,-88.59C952.05,-86.14 939.17,-83.62 927.04,-81.25 843.68,-65.03 747.2,-46.47 686.89,-34.9"/>
<polygon fill="#a13535" stroke="black" points="687.66,-31.49 677.18,-33.04 686.34,-38.36 687.66,-31.49"/>
</g>
<!-- intro_skipper_command_line_arguments -->
<g id="node7" class="node">
<title>intro_skipper_command_line_arguments</title><style>.edge>path:hover{stroke-width:8}</style>
<ellipse fill="#993333" stroke="black" cx="290.04" cy="-103.88" rx="91.92" ry="22.63"/>
<text xml:space="preserve" text-anchor="middle" x="290.04" y="-106.38" font-family="Helvetica,sans-Serif" font-size="10.00" fill="#ffffff">intro_skipper.</text>
<text xml:space="preserve" text-anchor="middle" x="290.04" y="-94.38" font-family="Helvetica,sans-Serif" font-size="10.00" fill="#ffffff">command_line_arguments</text>
</g>
<!-- intro_skipper_command_line_arguments&#45;&gt;intro_skipper_entry_point -->
<g id="edge17" class="edge">
<title>intro_skipper_command_line_arguments&#45;&gt;intro_skipper_entry_point</title><style>.edge>path:hover{stroke-width:8}</style>
<path fill="none" stroke="black" d="M355.21,-87.6C417.84,-72.92 511.52,-50.95 571.2,-36.96"/>
<polygon fill="#993333" stroke="black" points="571.88,-40.39 580.82,-34.7 570.28,-33.58 571.88,-40.39"/>
</g>
<!-- intro_skipper_helpers -->
<g id="node9" class="node">
<title>intro_skipper_helpers</title><style>.edge>path:hover{stroke-width:8}</style>
<ellipse fill="#f91010" stroke="black" cx="534.04" cy="-569.55" rx="52.68" ry="22.63"/>
<text xml:space="preserve" text-anchor="middle" x="534.04" y="-572.05" font-family="Helvetica,sans-Serif" font-size="10.00" fill="#ffffff">intro_skipper.</text>
<text xml:space="preserve" text-anchor="middle" x="534.04" y="-560.05" font-family="Helvetica,sans-Serif" font-size="10.00" fill="#ffffff">helpers</text>
</g>
<!-- intro_skipper_helpers&#45;&gt;intro_skipper_application -->
<g id="edge18" class="edge">
<title>intro_skipper_helpers&#45;&gt;intro_skipper_application</title><style>.edge>path:hover{stroke-width:8}</style>
<path fill="none" stroke="black" d="M680.04,-372.1C727.34,-282.1 814.86,-363 899.04,-305.99 912.14,-297.12 909.11,-288.94 918.04,-275.88"/>
</g>
<!-- intro_skipper_helpers&#45;&gt;intro_skipper_browser_chrome_connection -->
<g id="edge19" class="edge">
<title>intro_skipper_helpers&#45;&gt;intro_skipper_browser_chrome_connection</title><style>.edge>path:hover{stroke-width:8}</style>
<path fill="none" stroke="black" d="M1524.04,-372.1C1536.44,-350.99 1553.33,-329.73 1568.31,-312.57"/>
<polygon fill="#f91010" stroke="black" points="1570.9,-314.93 1574.93,-305.13 1565.67,-310.28 1570.9,-314.93"/>
</g>
<!-- intro_skipper_helpers&#45;&gt;intro_skipper_browser_chrome_launcher -->
<g id="edge20" class="edge">
<title>intro_skipper_helpers&#45;&gt;intro_skipper_browser_chrome_launcher</title><style>.edge>path:hover{stroke-width:8}</style>
<path fill="none" stroke="black" d="M1348.04,-470.33C1381.13,-443.24 1357.33,-415.85 1348.04,-374.1"/>
<path fill="none" stroke="black" d="M1348.04,-372.1C1342.21,-345.89 1322.71,-323.64 1303.16,-307.17"/>
<polygon fill="#f91010" stroke="black" points="1305.4,-304.48 1295.41,-300.96 1301.02,-309.94 1305.4,-304.48"/>
</g>
<!-- intro_skipper_helpers&#45;&gt;intro_skipper_chrome_executable_prompt -->
<g id="edge21" class="edge">
<title>intro_skipper_helpers&#45;&gt;intro_skipper_chrome_executable_prompt</title><style>.edge>path:hover{stroke-width:8}</style>
<path fill="none" stroke="black" d="M1348.04,-372.1C1338.75,-330.36 1353.84,-318.25 1348.04,-275.88"/>
</g>
<!-- intro_skipper_helpers&#45;&gt;intro_skipper_command_line_arguments -->
<g id="edge22" class="edge">
<title>intro_skipper_helpers&#45;&gt;intro_skipper_command_line_arguments</title><style>.edge>path:hover{stroke-width:8}</style>
<path fill="none" stroke="black" d="M332.04,-273.88C316.39,-259.51 296.77,-207.21 294.04,-186.14"/>
<path fill="none" stroke="black" d="M625.04,-470.33C630.97,-399.61 589.94,-380.05 530.04,-341.99 461.55,-298.47 417.87,-352.02 351.04,-305.99 338.01,-297.01 343.7,-286.58 332.04,-275.88"/>
</g>
<!-- intro_skipper_helpers&#45;&gt;intro_skipper_entry_point -->
<g id="edge23" class="edge">
<title>intro_skipper_helpers&#45;&gt;intro_skipper_entry_point</title><style>.edge>path:hover{stroke-width:8}</style>
<path fill="none" stroke="black" d="M170.04,-102.88C178.92,-93.67 177.75,-87.28 189.04,-81.25 252.61,-47.33 458.5,-32.19 564.18,-26.51"/>
<polygon fill="#f91010" stroke="black" points="564.31,-30.01 574.11,-25.99 563.94,-23.02 564.31,-30.01"/>
<path fill="none" stroke="black" d="M487.3,-558.76C388.55,-535.23 160.28,-465.27 69.04,-305.99 19.33,-219.2 100.64,-176.91 170.04,-104.88"/>
</g>
<!-- intro_skipper_logging_configuration -->
<g id="node12" class="node">
<title>intro_skipper_logging_configuration</title><style>.edge>path:hover{stroke-width:8}</style>
<ellipse fill="#b03a3a" stroke="black" cx="1098.04" cy="-274.88" rx="76.01" ry="22.63"/>
<text xml:space="preserve" text-anchor="middle" x="1098.04" y="-277.38" font-family="Helvetica,sans-Serif" font-size="10.00" fill="#ffffff">intro_skipper.</text>
<text xml:space="preserve" text-anchor="middle" x="1098.04" y="-265.38" font-family="Helvetica,sans-Serif" font-size="10.00" fill="#ffffff">logging_configuration</text>
</g>
<!-- intro_skipper_helpers&#45;&gt;intro_skipper_logging_configuration -->
<g id="edge24" class="edge">
<title>intro_skipper_helpers&#45;&gt;intro_skipper_logging_configuration</title><style>.edge>path:hover{stroke-width:8}</style>
<path fill="none" stroke="black" d="M1348.04,-470.33C1388.97,-437.1 1228.32,-344.55 1145.11,-300.19"/>
<polygon fill="#f91010" stroke="black" points="1146.94,-297.2 1136.46,-295.61 1143.66,-303.39 1146.94,-297.2"/>
<path fill="none" stroke="black" d="M586.33,-565.62C756.8,-555.6 1288.96,-520.69 1348.04,-472.33"/>
</g>
<!-- intro_skipper_helpers&#45;&gt;intro_skipper_remote_control -->
<g id="edge25" class="edge">
<title>intro_skipper_helpers&#45;&gt;intro_skipper_remote_control</title><style>.edge>path:hover{stroke-width:8}</style>
<path fill="none" stroke="black" d="M680.04,-273.88C667.8,-227.97 633.05,-237.56 596.04,-207.76 586.08,-199.74 572.37,-198.05 577.04,-186.14"/>
<path fill="none" stroke="black" d="M680.04,-372.1C699.94,-334.25 691.06,-317.2 680.04,-275.88"/>
</g>
<!-- intro_skipper_services_streaming_service -->
<g id="node15" class="node">
<title>intro_skipper_services_streaming_service</title><style>.edge>path:hover{stroke-width:8}</style>
<ellipse fill="#e50505" stroke="black" cx="453.04" cy="-373.1" rx="67.53" ry="31.11"/>
<text xml:space="preserve" text-anchor="middle" x="453.04" y="-381.6" font-family="Helvetica,sans-Serif" font-size="10.00" fill="#ffffff">intro_skipper.</text>
<text xml:space="preserve" text-anchor="middle" x="453.04" y="-369.6" font-family="Helvetica,sans-Serif" font-size="10.00" fill="#ffffff">services.</text>
<text xml:space="preserve" text-anchor="middle" x="453.04" y="-357.6" font-family="Helvetica,sans-Serif" font-size="10.00" fill="#ffffff">streaming_service</text>
</g>
<!-- intro_skipper_helpers&#45;&gt;intro_skipper_services_streaming_service -->
<g id="edge26" class="edge">
<title>intro_skipper_helpers&#45;&gt;intro_skipper_services_streaming_service</title><style>.edge>path:hover{stroke-width:8}</style>
<path fill="none" stroke="black" d="M565.45,-551.06C590.59,-534.55 622.12,-507.16 625.04,-472.33"/>
<path fill="none" stroke="black" d="M625.04,-470.33C626.16,-456.97 561.46,-423.91 511.1,-400.27"/>
<polygon fill="#f91010" stroke="black" points="512.84,-397.22 502.3,-396.17 509.88,-403.57 512.84,-397.22"/>
</g>
<!-- intro_skipper_services_streaming_service_catalog -->
<g id="node16" class="node">
<title>intro_skipper_services_streaming_service_catalog</title><style>.edge>path:hover{stroke-width:8}</style>
<ellipse fill="#a32828" stroke="black" cx="172.04" cy="-274.88" rx="93.51" ry="31.11"/>
<text xml:space="preserve" text-anchor="middle" x="172.04" y="-283.38" font-family="Helvetica,sans-Serif" font-size="10.00" fill="#ffffff">intro_skipper.</text>
<text xml:space="preserve" text-anchor="middle" x="172.04" y="-271.38" font-family="Helvetica,sans-Serif" font-size="10.00" fill="#ffffff">services.</text>
<text xml:space="preserve" text-anchor="middle" x="172.04" y="-259.38" font-family="Helvetica,sans-Serif" font-size="10.00" fill="#ffffff">streaming_service_catalog</text>
</g>
<!-- intro_skipper_helpers&#45;&gt;intro_skipper_services_streaming_service_catalog -->
<g id="edge27" class="edge">
<title>intro_skipper_helpers&#45;&gt;intro_skipper_services_streaming_service_catalog</title><style>.edge>path:hover{stroke-width:8}</style>
<path fill="none" stroke="black" d="M512.15,-548.53C480.23,-518.77 419.96,-460.31 376.04,-404.22 366.29,-391.76 371.42,-380.72 357.04,-374.1"/>
<path fill="none" stroke="black" d="M357.04,-372.1C312.69,-352.93 264.31,-327.6 228.15,-307.74"/>
<polygon fill="#f91010" stroke="black" points="230.06,-304.79 219.61,-303.02 226.67,-310.92 230.06,-304.79"/>
</g>
<!-- intro_skipper_skipping_settings -->
<g id="node17" class="node">
<title>intro_skipper_skipping_settings</title><style>.edge>path:hover{stroke-width:8}</style>
<ellipse fill="#c82323" stroke="black" cx="587.04" cy="-274.88" rx="64.88" ry="22.63"/>
<text xml:space="preserve" text-anchor="middle" x="587.04" y="-277.38" font-family="Helvetica,sans-Serif" font-size="10.00" fill="#ffffff">intro_skipper.</text>
<text xml:space="preserve" text-anchor="middle" x="587.04" y="-265.38" font-family="Helvetica,sans-Serif" font-size="10.00" fill="#ffffff">skipping_settings</text>
</g>
<!-- intro_skipper_helpers&#45;&gt;intro_skipper_skipping_settings -->
<g id="edge28" class="edge">
<title>intro_skipper_helpers&#45;&gt;intro_skipper_skipping_settings</title><style>.edge>path:hover{stroke-width:8}</style>
<path fill="none" stroke="black" d="M625.04,-470.33C629.16,-421.24 657.13,-417.71 680.04,-374.1"/>
<path fill="none" stroke="black" d="M680.04,-372.1C695.35,-342.97 665.24,-316.61 635.28,-298.88"/>
<polygon fill="#f91010" stroke="black" points="637.37,-296.04 626.94,-294.18 633.93,-302.14 637.37,-296.04"/>
</g>
<!-- intro_skipper_helpers&#45;&gt;intro_skipper_streaming_tab_finder -->
<g id="edge29" class="edge">
<title>intro_skipper_helpers&#45;&gt;intro_skipper_streaming_tab_finder</title><style>.edge>path:hover{stroke-width:8}</style>
<path fill="none" stroke="black" d="M680.04,-273.88C675.37,-256.35 675.04,-236.14 676.03,-219.54"/>
<polygon fill="#f91010" stroke="black" points="679.51,-219.93 676.82,-209.69 672.53,-219.38 679.51,-219.93"/>
</g>
<!-- intro_skipper_update_notification -->
<g id="node19" class="node">
<title>intro_skipper_update_notification</title><style>.edge>path:hover{stroke-width:8}</style>
<ellipse fill="#a83838" stroke="black" cx="1445.04" cy="-274.88" rx="69.12" ry="22.63"/>
<text xml:space="preserve" text-anchor="middle" x="1445.04" y="-277.38" font-family="Helvetica,sans-Serif" font-size="10.00" fill="#ffffff">intro_skipper.</text>
<text xml:space="preserve" text-anchor="middle" x="1445.04" y="-265.38" font-family="Helvetica,sans-Serif" font-size="10.00" fill="#ffffff">update_notification</text>
</g>
<!-- intro_skipper_helpers&#45;&gt;intro_skipper_update_notification -->
<g id="edge30" class="edge">
<title>intro_skipper_helpers&#45;&gt;intro_skipper_update_notification</title><style>.edge>path:hover{stroke-width:8}</style>
<path fill="none" stroke="black" d="M1348.04,-470.33C1417.03,-413.86 1478.91,-450.98 1524.04,-374.1"/>
<path fill="none" stroke="black" d="M1524.04,-372.1C1539.29,-346.12 1514.52,-319.91 1488.78,-301.42"/>
<polygon fill="#f91010" stroke="black" points="1490.81,-298.56 1480.58,-295.82 1486.87,-304.35 1490.81,-298.56"/>
</g>
<!-- intro_skipper_helpers_constants -->
<g id="node10" class="node">
<title>intro_skipper_helpers_constants</title><style>.edge>path:hover{stroke-width:8}</style>
<ellipse fill="#f91010" stroke="black" cx="856.04" cy="-471.33" rx="52.68" ry="31.11"/>
<text xml:space="preserve" text-anchor="middle" x="856.04" y="-479.83" font-family="Helvetica,sans-Serif" font-size="10.00" fill="#ffffff">intro_skipper.</text>
<text xml:space="preserve" text-anchor="middle" x="856.04" y="-467.83" font-family="Helvetica,sans-Serif" font-size="10.00" fill="#ffffff">helpers.</text>
<text xml:space="preserve" text-anchor="middle" x="856.04" y="-455.83" font-family="Helvetica,sans-Serif" font-size="10.00" fill="#ffffff">constants</text>
</g>
<!-- intro_skipper_helpers_constants&#45;&gt;intro_skipper_application -->
<g id="edge31" class="edge">
<title>intro_skipper_helpers_constants&#45;&gt;intro_skipper_application</title><style>.edge>path:hover{stroke-width:8}</style>
<path fill="none" stroke="black" d="M718.04,-372.1C708.39,-359.56 724.1,-351.1 737.04,-341.99 797.36,-299.54 838.73,-348.44 899.04,-305.99 911.98,-296.88 909.11,-288.94 918.04,-275.88"/>
</g>
<!-- intro_skipper_helpers_constants&#45;&gt;intro_skipper_browser_chrome_connection -->
<g id="edge32" class="edge">
<title>intro_skipper_helpers_constants&#45;&gt;intro_skipper_browser_chrome_connection</title><style>.edge>path:hover{stroke-width:8}</style>
<path fill="none" stroke="black" d="M1465.04,-372.1C1495.98,-351.16 1530.46,-327.13 1557.21,-308.31"/>
<polygon fill="#f91010" stroke="black" points="1558.93,-311.38 1565.1,-302.76 1554.9,-305.66 1558.93,-311.38"/>
</g>
<!-- intro_skipper_helpers_constants&#45;&gt;intro_skipper_browser_chrome_launcher -->
<g id="edge33" class="edge">
<title>intro_skipper_helpers_constants&#45;&gt;intro_skipper_browser_chrome_launcher</title><style>.edge>path:hover{stroke-width:8}</style>
<path fill="none" stroke="black" d="M908.49,-467.59C1017.54,-460.64 1262.58,-438.08 1310.04,-374.1"/>
<path fill="none" stroke="black" d="M1310.04,-372.1C1324.29,-352.89 1311.79,-329.52 1295.25,-310.63"/>
<polygon fill="#f91010" stroke="black" points="1297.87,-308.31 1288.48,-303.4 1292.76,-313.09 1297.87,-308.31"/>
</g>
<!-- intro_skipper_helpers_constants&#45;&gt;intro_skipper_chrome_executable_prompt -->
<g id="edge34" class="edge">
<title>intro_skipper_helpers_constants&#45;&gt;intro_skipper_chrome_executable_prompt</title><style>.edge>path:hover{stroke-width:8}</style>
<path fill="none" stroke="black" d="M1348.04,-273.88C1357.6,-174.14 1228.83,-132.9 1134.06,-116.1"/>
<polygon fill="#f91010" stroke="black" points="1134.91,-112.69 1124.46,-114.47 1133.74,-119.59 1134.91,-112.69"/>
<path fill="none" stroke="black" d="M1310.04,-372.1C1337.44,-335.17 1354.28,-321.43 1348.04,-275.88"/>
</g>
<!-- intro_skipper_helpers_constants&#45;&gt;intro_skipper_command_line_arguments -->
<g id="edge35" class="edge">
<title>intro_skipper_helpers_constants&#45;&gt;intro_skipper_command_line_arguments</title><style>.edge>path:hover{stroke-width:8}</style>
<path fill="none" stroke="black" d="M813.03,-452.86C788.77,-441.53 759.02,-425 737.04,-404.22 725.54,-393.34 727.7,-386.64 718.04,-374.1"/>
<path fill="none" stroke="black" d="M718.04,-372.1C707.6,-358.54 709.05,-350.21 694.04,-341.99 559.61,-268.34 481.21,-386.92 351.04,-305.99 337.6,-297.63 343.7,-286.58 332.04,-275.88"/>
</g>
<!-- intro_skipper_helpers_constants&#45;&gt;intro_skipper_entry_point -->
<g id="edge36" class="edge">
<title>intro_skipper_helpers_constants&#45;&gt;intro_skipper_entry_point</title><style>.edge>path:hover{stroke-width:8}</style>
<path fill="none" stroke="black" d="M994.04,-372.1C1021.28,-341.02 1014.29,-222.16 994.04,-186.14"/>
<path fill="none" stroke="black" d="M894.46,-449.56C924.14,-432.18 964.93,-405.27 994.04,-374.1"/>
</g>
<!-- intro_skipper_helpers_constants&#45;&gt;intro_skipper_logging_configuration -->
<g id="edge37" class="edge">
<title>intro_skipper_helpers_constants&#45;&gt;intro_skipper_logging_configuration</title><style>.edge>path:hover{stroke-width:8}</style>
<path fill="none" stroke="black" d="M994.04,-372.1C1015.6,-347.5 1042.83,-322.49 1064.02,-304.13"/>
<polygon fill="#f91010" stroke="black" points="1066.23,-306.84 1071.55,-297.68 1061.68,-301.53 1066.23,-306.84"/>
</g>
<!-- intro_skipper_helpers_constants&#45;&gt;intro_skipper_remote_control -->
<g id="edge38" class="edge">
<title>intro_skipper_helpers_constants&#45;&gt;intro_skipper_remote_control</title><style>.edge>path:hover{stroke-width:8}</style>
<path fill="none" stroke="black" d="M756.04,-273.88C760.15,-224.42 791.44,-203.88 764.04,-162.51 747.8,-137.99 718.81,-123.87 691.76,-115.76"/>
<polygon fill="#f91010" stroke="black" points="692.76,-112.4 682.19,-113.14 690.91,-119.15 692.76,-112.4"/>
<path fill="none" stroke="black" d="M718.04,-372.1C689.99,-335.67 755.5,-321.85 756.04,-275.88"/>
</g>
<!-- intro_skipper_helpers_constants&#45;&gt;intro_skipper_services_streaming_service_catalog -->
<g id="edge39" class="edge">
<title>intro_skipper_helpers_constants&#45;&gt;intro_skipper_services_streaming_service_catalog</title><style>.edge>path:hover{stroke-width:8}</style>
<path fill="none" stroke="black" d="M804.75,-463.18C760.78,-457.06 695.75,-448.03 639.04,-440.22 580.6,-432.16 425.64,-436.15 376.04,-404.22 362.74,-395.65 371.42,-380.72 357.04,-374.1"/>
</g>
<!-- intro_skipper_helpers_constants&#45;&gt;intro_skipper_streaming_tab_finder -->
<g id="edge40" class="edge">
<title>intro_skipper_helpers_constants&#45;&gt;intro_skipper_streaming_tab_finder</title><style>.edge>path:hover{stroke-width:8}</style>
<path fill="none" stroke="black" d="M718.04,-372.1C691.95,-338.22 736.17,-314.61 718.04,-275.88"/>
<path fill="none" stroke="black" d="M718.04,-273.88C709.5,-255.62 700.51,-234.95 693.42,-218.26"/>
<polygon fill="#f91010" stroke="black" points="696.77,-217.17 689.65,-209.32 690.32,-219.9 696.77,-217.17"/>
</g>
<!-- intro_skipper_helpers_constants&#45;&gt;intro_skipper_update_notification -->
<g id="edge41" class="edge">
<title>intro_skipper_helpers_constants&#45;&gt;intro_skipper_update_notification</title><style>.edge>path:hover{stroke-width:8}</style>
<path fill="none" stroke="black" d="M1465.04,-372.1C1485.38,-358.34 1476.52,-329.63 1464.87,-307.13"/>
<polygon fill="#f91010" stroke="black" points="1468.07,-305.67 1460.15,-298.63 1461.95,-309.07 1468.07,-305.67"/>
<path fill="none" stroke="black" d="M908.58,-467.69C1039.13,-460.25 1374.28,-435.52 1465.04,-374.1"/>
</g>
<!-- intro_skipper_helpers_enums -->
<g id="node11" class="node">
<title>intro_skipper_helpers_enums</title><style>.edge>path:hover{stroke-width:8}</style>
<ellipse fill="#e72222" stroke="black" cx="319.04" cy="-569.55" rx="52.68" ry="31.11"/>
<text xml:space="preserve" text-anchor="middle" x="319.04" y="-578.05" font-family="Helvetica,sans-Serif" font-size="10.00" fill="#ffffff">intro_skipper.</text>
<text xml:space="preserve" text-anchor="middle" x="319.04" y="-566.05" font-family="Helvetica,sans-Serif" font-size="10.00" fill="#ffffff">helpers.</text>
<text xml:space="preserve" text-anchor="middle" x="319.04" y="-554.05" font-family="Helvetica,sans-Serif" font-size="10.00" fill="#ffffff">enums</text>
</g>
<!-- intro_skipper_helpers_enums&#45;&gt;intro_skipper_remote_control -->
<g id="edge42" class="edge">
<title>intro_skipper_helpers_enums&#45;&gt;intro_skipper_remote_control</title><style>.edge>path:hover{stroke-width:8}</style>
<path fill="none" stroke="black" d="M12.04,-372.1C30.96,-312.63 22.66,-285.52 69.04,-243.76 142.07,-178.02 432.4,-131.37 563.36,-113.24"/>
<polygon fill="#e72222" stroke="black" points="563.47,-116.76 572.9,-111.94 562.52,-109.83 563.47,-116.76"/>
</g>
<!-- intro_skipper_helpers_enums&#45;&gt;intro_skipper_services_streaming_service -->
<g id="edge43" class="edge">
<title>intro_skipper_helpers_enums&#45;&gt;intro_skipper_services_streaming_service</title><style>.edge>path:hover{stroke-width:8}</style>
<path fill="none" stroke="black" d="M338.53,-540.28C361.81,-506.49 400.88,-449.8 426.8,-412.18"/>
<polygon fill="#e72222" stroke="black" points="429.44,-414.51 432.24,-404.29 423.68,-410.54 429.44,-414.51"/>
</g>
<!-- intro_skipper_helpers_enums&#45;&gt;intro_skipper_services_streaming_service_catalog -->
<g id="edge44" class="edge">
<title>intro_skipper_helpers_enums&#45;&gt;intro_skipper_services_streaming_service_catalog</title><style>.edge>path:hover{stroke-width:8}</style>
<path fill="none" stroke="black" d="M267.02,-563.17C194.23,-554.56 67.38,-535.21 36.04,-502.44 -4.06,-460.5 -7.41,-428.77 12.04,-374.1"/>
<path fill="none" stroke="black" d="M12.04,-372.1C23.26,-336.83 56.3,-313.88 89.47,-299.28"/>
<polygon fill="#e72222" stroke="black" points="90.45,-302.66 98.35,-295.59 87.77,-296.19 90.45,-302.66"/>
</g>
<!-- intro_skipper_helpers_enums&#45;&gt;intro_skipper_skipping_settings -->
<g id="edge45" class="edge">
<title>intro_skipper_helpers_enums&#45;&gt;intro_skipper_skipping_settings</title><style>.edge>path:hover{stroke-width:8}</style>
<path fill="none" stroke="black" d="M356.4,-547.41C402.51,-519.69 480.85,-467.13 530.04,-404.22 552.74,-375.18 568.51,-335.68 577.61,-308.21"/>
<polygon fill="#e72222" stroke="black" points="580.84,-309.62 580.54,-299.03 574.17,-307.5 580.84,-309.62"/>
</g>
<!-- intro_skipper_logging_configuration&#45;&gt;intro_skipper_entry_point -->
<g id="edge46" class="edge">
<title>intro_skipper_logging_configuration&#45;&gt;intro_skipper_entry_point</title><style>.edge>path:hover{stroke-width:8}</style>
<path fill="none" stroke="black" d="M1063.82,-254.25C1040.25,-238.84 1010.36,-215.17 994.04,-186.14"/>
</g>
<!-- intro_skipper_remote_control&#45;&gt;intro_skipper_entry_point -->
<g id="edge47" class="edge">
<title>intro_skipper_remote_control&#45;&gt;intro_skipper_entry_point</title><style>.edge>path:hover{stroke-width:8}</style>
<path fill="none" stroke="black" d="M628.04,-80.81C628.04,-73.42 628.04,-65.01 628.04,-56.97"/>
<polygon fill="#7a2828" stroke="black" points="631.54,-57.1 628.04,-47.1 624.54,-57.1 631.54,-57.1"/>
</g>
<!-- intro_skipper_services -->
<g id="node14" class="node">
<title>intro_skipper_services</title><style>.edge>path:hover{stroke-width:8}</style>
<ellipse fill="#f91010" stroke="black" cx="413.04" cy="-274.88" rx="52.68" ry="22.63"/>
<text xml:space="preserve" text-anchor="middle" x="413.04" y="-277.38" font-family="Helvetica,sans-Serif" font-size="10.00" fill="#ffffff">intro_skipper.</text>
<text xml:space="preserve" text-anchor="middle" x="413.04" y="-265.38" font-family="Helvetica,sans-Serif" font-size="10.00" fill="#ffffff">services</text>
</g>
<!-- intro_skipper_services&#45;&gt;intro_skipper_application -->
<g id="edge48" class="edge">
<title>intro_skipper_services&#45;&gt;intro_skipper_application</title><style>.edge>path:hover{stroke-width:8}</style>
<path fill="none" stroke="black" d="M453.55,-260.17C471.59,-254.46 493.21,-248.15 513.04,-243.76 623.08,-219.45 652.5,-223.86 764.04,-207.76 793.02,-203.58 825.16,-198.92 852.15,-195"/>
<polygon fill="#f91010" stroke="black" points="852.49,-198.49 861.88,-193.58 851.48,-191.56 852.49,-198.49"/>
</g>
<!-- intro_skipper_services&#45;&gt;intro_skipper_command_line_arguments -->
<g id="edge49" class="edge">
<title>intro_skipper_services&#45;&gt;intro_skipper_command_line_arguments</title><style>.edge>path:hover{stroke-width:8}</style>
<path fill="none" stroke="black" d="M334.04,-184.14C329.49,-167.26 320.6,-150.12 312,-136.11"/>
<polygon fill="#f91010" stroke="black" points="315.02,-134.32 306.68,-127.79 309.12,-138.09 315.02,-134.32"/>
<path fill="none" stroke="black" d="M386.14,-255.2C366.44,-239.5 341.84,-215.03 334.04,-186.14"/>
</g>
<!-- intro_skipper_services&#45;&gt;intro_skipper_entry_point -->
<g id="edge50" class="edge">
<title>intro_skipper_services&#45;&gt;intro_skipper_entry_point</title><style>.edge>path:hover{stroke-width:8}</style>
<path fill="none" stroke="black" d="M334.04,-184.14C331.06,-173.08 340.46,-171.09 348.04,-162.51 364.55,-143.84 373.21,-143.92 391.04,-126.51 400.2,-117.57 401.05,-113.98 410.04,-104.88"/>
<path fill="none" stroke="black" d="M410.04,-102.88C451.85,-60.59 517.96,-40.72 566.42,-31.48"/>
<polygon fill="#f91010" stroke="black" points="567,-34.93 576.23,-29.72 565.76,-28.04 567,-34.93"/>
</g>
<!-- intro_skipper_services&#45;&gt;intro_skipper_remote_control -->
<g id="edge51" class="edge">
<title>intro_skipper_services&#45;&gt;intro_skipper_remote_control</title><style>.edge>path:hover{stroke-width:8}</style>
<path fill="none" stroke="black" d="M577.04,-184.14C583.84,-166.81 594.66,-149.23 604.6,-135.05"/>
<polygon fill="#f91010" stroke="black" points="607.36,-137.2 610.38,-127.04 601.69,-133.1 607.36,-137.2"/>
<path fill="none" stroke="black" d="M448.76,-257.77C495.42,-236.29 571.82,-199.44 577.04,-186.14"/>
</g>
<!-- intro_skipper_services&#45;&gt;intro_skipper_streaming_tab_finder -->
<g id="edge52" class="edge">
<title>intro_skipper_services&#45;&gt;intro_skipper_streaming_tab_finder</title><style>.edge>path:hover{stroke-width:8}</style>
<path fill="none" stroke="black" d="M447.43,-257.3C457.79,-252.61 469.27,-247.72 480.04,-243.76 523.21,-227.94 572.87,-213.61 611.91,-203.19"/>
<polygon fill="#f91010" stroke="black" points="612.65,-206.62 621.42,-200.68 610.86,-199.85 612.65,-206.62"/>
</g>
<!-- intro_skipper_services_streaming_service&#45;&gt;intro_skipper_application -->
<g id="edge53" class="edge">
<title>intro_skipper_services_streaming_service&#45;&gt;intro_skipper_application</title><style>.edge>path:hover{stroke-width:8}</style>
<path fill="none" stroke="black" d="M918.04,-273.88C928.85,-258.07 927.86,-236.67 924.04,-218.97"/>
<polygon fill="#e50505" stroke="black" points="927.47,-218.24 921.59,-209.43 920.69,-219.98 927.47,-218.24"/>
<path fill="none" stroke="black" d="M517.2,-362.94C639.68,-345.4 895.06,-308.59 899.04,-305.99 912.3,-297.35 909.11,-288.94 918.04,-275.88"/>
</g>
<!-- intro_skipper_services_streaming_service&#45;&gt;intro_skipper_command_line_arguments -->
<g id="edge54" class="edge">
<title>intro_skipper_services_streaming_service&#45;&gt;intro_skipper_command_line_arguments</title><style>.edge>path:hover{stroke-width:8}</style>
<path fill="none" stroke="black" d="M294.04,-184.14C292.09,-169.09 291.08,-152.31 290.56,-138.09"/>
<polygon fill="#e50505" stroke="black" points="294.06,-138.24 290.27,-128.34 287.07,-138.44 294.06,-138.24"/>
<path fill="none" stroke="black" d="M294.04,-273.88C274.54,-240.11 299.05,-224.81 294.04,-186.14"/>
</g>
<!-- intro_skipper_services_streaming_service&#45;&gt;intro_skipper_entry_point -->
<g id="edge55" class="edge">
<title>intro_skipper_services_streaming_service&#45;&gt;intro_skipper_entry_point</title><style>.edge>path:hover{stroke-width:8}</style>
<path fill="none" stroke="black" d="M294.04,-273.88C286.63,-259.9 284.04,-256.78 275.04,-243.76 253.03,-211.94 142.75,-132.31 170.04,-104.88"/>
<path fill="none" stroke="black" d="M400.88,-352.97C374.43,-341.75 342.76,-325.84 318.04,-305.99 304.7,-295.27 301.84,-291.11 294.04,-275.88"/>
</g>
<!-- intro_skipper_services_streaming_service&#45;&gt;intro_skipper_remote_control -->
<g id="edge56" class="edge">
<title>intro_skipper_services_streaming_service&#45;&gt;intro_skipper_remote_control</title><style>.edge>path:hover{stroke-width:8}</style>
<path fill="none" stroke="black" d="M294.04,-273.88C262.73,-219.64 467.87,-151.29 571.18,-120.81"/>
<polygon fill="#e50505" stroke="black" points="571.98,-124.22 580.6,-118.06 570.02,-117.5 571.98,-124.22"/>
</g>
<!-- intro_skipper_services_streaming_service&#45;&gt;intro_skipper_services_streaming_service_catalog -->
<g id="edge57" class="edge">
<title>intro_skipper_services_streaming_service&#45;&gt;intro_skipper_services_streaming_service_catalog</title><style>.edge>path:hover{stroke-width:8}</style>
<path fill="none" stroke="black" d="M401.07,-352.74C391.12,-349.11 380.78,-345.39 371.04,-341.99 330.85,-327.94 285.85,-312.93 248.82,-300.76"/>
<polygon fill="#e50505" stroke="black" points="250.13,-297.51 239.54,-297.72 247.95,-304.16 250.13,-297.51"/>
</g>
<!-- intro_skipper_services_streaming_service&#45;&gt;intro_skipper_streaming_tab_finder -->
<g id="edge58" class="edge">
<title>intro_skipper_services_streaming_service&#45;&gt;intro_skipper_streaming_tab_finder</title><style>.edge>path:hover{stroke-width:8}</style>
<path fill="none" stroke="black" d="M463.99,-341.93C476.64,-308.54 497.69,-257.59 513.04,-243.76 528.3,-230.03 573.29,-214.89 612.74,-203.58"/>
<polygon fill="#e50505" stroke="black" points="613.55,-206.99 622.23,-200.91 611.65,-200.25 613.55,-206.99"/>
</g>
<!-- intro_skipper_services_streaming_service_catalog&#45;&gt;intro_skipper_command_line_arguments -->
<g id="edge59" class="edge">
<title>intro_skipper_services_streaming_service_catalog&#45;&gt;intro_skipper_command_line_arguments</title><style>.edge>path:hover{stroke-width:8}</style>
<path fill="none" stroke="black" d="M170.04,-184.14C178.32,-158 201.58,-139.7 225.44,-127.33"/>
<polygon fill="#a32828" stroke="black" points="226.82,-130.55 234.3,-123.04 223.77,-124.25 226.82,-130.55"/>
</g>
<!-- intro_skipper_services_streaming_service_catalog&#45;&gt;intro_skipper_entry_point -->
<g id="edge60" class="edge">
<title>intro_skipper_services_streaming_service_catalog&#45;&gt;intro_skipper_entry_point</title><style>.edge>path:hover{stroke-width:8}</style>
<path fill="none" stroke="black" d="M166.58,-243.54C164.64,-226.32 164.2,-204.58 170.04,-186.14"/>
<path fill="none" stroke="black" d="M170.04,-184.14C180.68,-150.56 145.2,-129.85 170.04,-104.88"/>
</g>
<!-- intro_skipper_skipping_settings&#45;&gt;intro_skipper_application -->
<g id="edge61" class="edge">
<title>intro_skipper_skipping_settings&#45;&gt;intro_skipper_application</title><style>.edge>path:hover{stroke-width:8}</style>
<path fill="none" stroke="black" d="M628.09,-257.03C640.19,-252.39 653.55,-247.58 666.04,-243.76 729.66,-224.32 804.21,-207.75 854.64,-197.44"/>
<polygon fill="#c82323" stroke="black" points="855.06,-200.93 864.16,-195.51 853.67,-194.07 855.06,-200.93"/>
</g>
<!-- intro_skipper_skipping_settings&#45;&gt;intro_skipper_entry_point -->
<g id="edge62" class="edge">
<title>intro_skipper_skipping_settings&#45;&gt;intro_skipper_entry_point</title><style>.edge>path:hover{stroke-width:8}</style>
<path fill="none" stroke="black" d="M545.98,-256.88C476.95,-226.19 350.71,-159.61 410.04,-104.88"/>
</g>
<!-- intro_skipper_skipping_settings&#45;&gt;intro_skipper_remote_control -->
<g id="edge63" class="edge">
<title>intro_skipper_skipping_settings&#45;&gt;intro_skipper_remote_control</title><style>.edge>path:hover{stroke-width:8}</style>
<path fill="none" stroke="black" d="M579,-252.22C573.52,-233.99 568.64,-207.55 577.04,-186.14"/>
</g>
<!-- intro_skipper_streaming_tab_finder&#45;&gt;intro_skipper_remote_control -->
<g id="edge64" class="edge">
<title>intro_skipper_streaming_tab_finder&#45;&gt;intro_skipper_remote_control</title><style>.edge>path:hover{stroke-width:8}</style>
<path fill="none" stroke="black" d="M665.83,-162.48C660.4,-154.2 654.1,-144.59 648.21,-135.63"/>
<polygon fill="#913030" stroke="black" points="651.3,-133.94 642.88,-127.5 645.44,-137.78 651.3,-133.94"/>
</g>
<!-- intro_skipper_update_notification&#45;&gt;intro_skipper_entry_point -->
<g id="edge65" class="edge">
<title>intro_skipper_update_notification&#45;&gt;intro_skipper_entry_point</title><style>.edge>path:hover{stroke-width:8}</style>
<path fill="none" stroke="black" d="M1488.87,-257.02C1532.43,-239.09 1594.01,-210.06 1603.04,-186.14"/>
<path fill="none" stroke="black" d="M1603.04,-184.14C1635.89,-97.12 913.37,-42.34 691.72,-27.63"/>
<polygon fill="#a83838" stroke="black" points="692.03,-24.15 681.82,-26.98 691.57,-31.13 692.03,-24.15"/>
</g>
<!-- requests -->
<g id="node20" class="node">
<title>requests</title><style>.edge>path:hover{stroke-width:8}</style>
<ellipse fill="#33cc33" stroke="black" cx="1578.04" cy="-569.55" rx="32.17" ry="18"/>
<text xml:space="preserve" text-anchor="middle" x="1578.04" y="-566.05" font-family="Helvetica,sans-Serif" font-size="10.00" fill="#000000">requests</text>
</g>
<!-- requests&#45;&gt;intro_skipper_browser_chrome_connection -->
<g id="edge66" class="edge">
<title>requests&#45;&gt;intro_skipper_browser_chrome_connection</title><style>.edge>path:hover{stroke-width:8}</style>
<path fill="none" stroke="black" d="M1603.04,-372.1C1597,-354.95 1596.1,-334.98 1597.05,-317.69"/>
<polygon fill="#33cc33" stroke="black" points="1600.54,-317.98 1597.85,-307.73 1593.56,-317.42 1600.54,-317.98"/>
</g>
<!-- requests&#45;&gt;intro_skipper_update_notification -->
<g id="edge67" class="edge">
<title>requests&#45;&gt;intro_skipper_update_notification</title><style>.edge>path:hover{stroke-width:8}</style>
<path fill="none" stroke="black" d="M1585.27,-551.62C1598.91,-517.17 1625.15,-436.86 1603.04,-374.1"/>
<path fill="none" stroke="black" d="M1603.04,-372.1C1594.42,-348.87 1538.81,-318.7 1495.97,-298.38"/>
<polygon fill="#33cc33" stroke="black" points="1497.58,-295.27 1487.04,-294.21 1494.62,-301.61 1497.58,-295.27"/>
</g>
<!-- websocket -->
<g id="node21" class="node">
<title>websocket</title><style>.edge>path:hover{stroke-width:8}</style>
<ellipse fill="#5353b6" stroke="black" cx="1666.04" cy="-569.55" rx="38.03" ry="18"/>
<text xml:space="preserve" text-anchor="middle" x="1666.04" y="-566.05" font-family="Helvetica,sans-Serif" font-size="10.00" fill="#ffffff">websocket</text>
</g>
<!-- websocket&#45;&gt;intro_skipper_browser_chrome_connection -->
<g id="edge68" class="edge">
<title>websocket&#45;&gt;intro_skipper_browser_chrome_connection</title><style>.edge>path:hover{stroke-width:8}</style>
<path fill="none" stroke="black" d="M1662.38,-551.55C1652.67,-506.44 1626.03,-382.68 1611.98,-317.42"/>
<polygon fill="#5353b6" stroke="black" points="1615.44,-316.85 1609.91,-307.81 1608.6,-318.32 1615.44,-316.85"/>
</g>
</g>
</svg>
