<?xml version="1.0" encoding="UTF-8" standalone="no"?>
<!DOCTYPE svg PUBLIC "-//W3C//DTD SVG 1.1//EN"
 "http://www.w3.org/Graphics/SVG/1.1/DTD/svg11.dtd">
<!-- Generated by graphviz version 15.1.0 (20260618.0150)
 -->
<!-- Title: G Pages: 1 -->
<svg width="866pt" height="420pt"
 viewBox="0.00 0.00 866.00 420.00" xmlns="http://www.w3.org/2000/svg" xmlns:xlink="http://www.w3.org/1999/xlink">
<g id="graph0" class="graph" transform="scale(1 1) rotate(0) translate(4 415.93)">
<title>G</title><style>.edge>path:hover{stroke-width:8}</style>
<polygon fill="white" stroke="none" points="-4,4 -4,-415.93 862.43,-415.93 862.43,4 -4,4"/>
<!-- intro_skipper_application -->
<g id="node1" class="node">
<title>intro_skipper_application</title><style>.edge>path:hover{stroke-width:8}</style>
<ellipse fill="#883a3a" stroke="black" cx="380.19" cy="-22.63" rx="52.68" ry="22.63"/>
<text xml:space="preserve" text-anchor="middle" x="380.19" y="-25.13" font-family="Helvetica,sans-Serif" font-size="10.00" fill="#ffffff">intro_skipper.</text>
<text xml:space="preserve" text-anchor="middle" x="380.19" y="-13.13" font-family="Helvetica,sans-Serif" font-size="10.00" fill="#ffffff">application</text>
</g>
<!-- intro_skipper_browser -->
<g id="node2" class="node">
<title>intro_skipper_browser</title><style>.edge>path:hover{stroke-width:8}</style>
<ellipse fill="#db2f2f" stroke="black" cx="645.19" cy="-112.37" rx="52.68" ry="22.63"/>
<text xml:space="preserve" text-anchor="middle" x="645.19" y="-114.87" font-family="Helvetica,sans-Serif" font-size="10.00" fill="#ffffff">intro_skipper.</text>
<text xml:space="preserve" text-anchor="middle" x="645.19" y="-102.87" font-family="Helvetica,sans-Serif" font-size="10.00" fill="#ffffff">browser</text>
</g>
<!-- intro_skipper_browser&#45;&gt;intro_skipper_application -->
<g id="edge1" class="edge">
<title>intro_skipper_browser&#45;&gt;intro_skipper_application</title><style>.edge>path:hover{stroke-width:8}</style>
<path fill="none" stroke="black" d="M610.8,-94.81C600.44,-90.12 588.96,-85.22 578.19,-81.25 531.15,-63.93 476.34,-48.32 436.33,-37.73"/>
<polygon fill="#db2f2f" stroke="black" points="437.22,-34.35 426.66,-35.2 435.45,-41.12 437.22,-34.35"/>
</g>
<!-- intro_skipper_browser_browser_connection -->
<g id="node3" class="node">
<title>intro_skipper_browser_browser_connection</title><style>.edge>path:hover{stroke-width:8}</style>
<ellipse fill="#db2f2f" stroke="black" cx="472.19" cy="-210.59" rx="72.83" ry="31.11"/>
<text xml:space="preserve" text-anchor="middle" x="472.19" y="-219.09" font-family="Helvetica,sans-Serif" font-size="10.00" fill="#ffffff">intro_skipper.</text>
<text xml:space="preserve" text-anchor="middle" x="472.19" y="-207.09" font-family="Helvetica,sans-Serif" font-size="10.00" fill="#ffffff">browser.</text>
<text xml:space="preserve" text-anchor="middle" x="472.19" y="-195.09" font-family="Helvetica,sans-Serif" font-size="10.00" fill="#ffffff">browser_connection</text>
</g>
<!-- intro_skipper_browser_browser_connection&#45;&gt;intro_skipper_application -->
<g id="edge2" class="edge">
<title>intro_skipper_browser_browser_connection&#45;&gt;intro_skipper_application</title><style>.edge>path:hover{stroke-width:8}</style>
<path fill="none" stroke="black" d="M519.72,-186.58C548.91,-168.97 578.25,-142.77 564.19,-113.37"/>
<path fill="none" stroke="black" d="M564.19,-111.37C557.37,-97.09 557.58,-91.11 545.19,-81.25 514.79,-57.07 473.53,-42.66 439.87,-34.3"/>
<polygon fill="#db2f2f" stroke="black" points="440.79,-30.92 430.25,-32.04 439.19,-37.74 440.79,-30.92"/>
</g>
<!-- intro_skipper_browser_chrome_connection -->
<g id="node4" class="node">
<title>intro_skipper_browser_chrome_connection</title><style>.edge>path:hover{stroke-width:8}</style>
<ellipse fill="#883a3a" stroke="black" cx="787.19" cy="-112.37" rx="71.24" ry="31.11"/>
<text xml:space="preserve" text-anchor="middle" x="787.19" y="-120.87" font-family="Helvetica,sans-Serif" font-size="10.00" fill="#ffffff">intro_skipper.</text>
<text xml:space="preserve" text-anchor="middle" x="787.19" y="-108.87" font-family="Helvetica,sans-Serif" font-size="10.00" fill="#ffffff">browser.</text>
<text xml:space="preserve" text-anchor="middle" x="787.19" y="-96.87" font-family="Helvetica,sans-Serif" font-size="10.00" fill="#ffffff">chrome_connection</text>
</g>
<!-- intro_skipper_browser_browser_connection&#45;&gt;intro_skipper_browser_chrome_connection -->
<g id="edge3" class="edge">
<title>intro_skipper_browser_browser_connection&#45;&gt;intro_skipper_browser_chrome_connection</title><style>.edge>path:hover{stroke-width:8}</style>
<path fill="none" stroke="black" d="M527.17,-189.68C537.74,-186.11 548.76,-182.55 559.19,-179.48 624.14,-160.39 642.51,-163.44 707.19,-143.48 712.86,-141.73 718.72,-139.79 724.56,-137.77"/>
<polygon fill="#db2f2f" stroke="black" points="725.33,-141.2 733.58,-134.56 722.99,-134.61 725.33,-141.2"/>
</g>
<!-- intro_skipper_browser_chrome_launcher -->
<g id="node5" class="node">
<title>intro_skipper_browser_chrome_launcher</title><style>.edge>path:hover{stroke-width:8}</style>
<ellipse fill="#964040" stroke="black" cx="472.19" cy="-112.37" rx="63.82" ry="31.11"/>
<text xml:space="preserve" text-anchor="middle" x="472.19" y="-120.87" font-family="Helvetica,sans-Serif" font-size="10.00" fill="#ffffff">intro_skipper.</text>
<text xml:space="preserve" text-anchor="middle" x="472.19" y="-108.87" font-family="Helvetica,sans-Serif" font-size="10.00" fill="#ffffff">browser.</text>
<text xml:space="preserve" text-anchor="middle" x="472.19" y="-96.87" font-family="Helvetica,sans-Serif" font-size="10.00" fill="#ffffff">chrome_launcher</text>
</g>
<!-- intro_skipper_browser_browser_connection&#45;&gt;intro_skipper_browser_chrome_launcher -->
<g id="edge4" class="edge">
<title>intro_skipper_browser_browser_connection&#45;&gt;intro_skipper_browser_chrome_launcher</title><style>.edge>path:hover{stroke-width:8}</style>
<path fill="none" stroke="black" d="M472.19,-179.15C472.19,-171.6 472.19,-163.38 472.19,-155.39"/>
<polygon fill="#db2f2f" stroke="black" points="475.69,-155.46 472.19,-145.46 468.69,-155.46 475.69,-155.46"/>
</g>
<!-- intro_skipper_helpers -->
<g id="node6" class="node">
<title>intro_skipper_helpers</title><style>.edge>path:hover{stroke-width:8}</style>
<ellipse fill="#e72222" stroke="black" cx="371.19" cy="-308.82" rx="52.68" ry="22.63"/>
<text xml:space="preserve" text-anchor="middle" x="371.19" y="-311.32" font-family="Helvetica,sans-Serif" font-size="10.00" fill="#ffffff">intro_skipper.</text>
<text xml:space="preserve" text-anchor="middle" x="371.19" y="-299.32" font-family="Helvetica,sans-Serif" font-size="10.00" fill="#ffffff">helpers</text>
</g>
<!-- intro_skipper_helpers&#45;&gt;intro_skipper_application -->
<g id="edge5" class="edge">
<title>intro_skipper_helpers&#45;&gt;intro_skipper_application</title><style>.edge>path:hover{stroke-width:8}</style>
<path fill="none" stroke="black" d="M611.19,-209.59C620.38,-202.03 569.32,-124.1 564.19,-113.37"/>
<path fill="none" stroke="black" d="M421.92,-302.16C469.24,-294.78 539.88,-278.2 590.19,-241.71 603.4,-232.13 598.6,-221.97 611.19,-211.59"/>
</g>
<!-- intro_skipper_helpers&#45;&gt;intro_skipper_browser_chrome_connection -->
<g id="edge6" class="edge">
<title>intro_skipper_helpers&#45;&gt;intro_skipper_browser_chrome_connection</title><style>.edge>path:hover{stroke-width:8}</style>
<path fill="none" stroke="black" d="M611.19,-209.59C646.05,-180.87 690.76,-156.56 726.4,-139.55"/>
<polygon fill="#e72222" stroke="black" points="727.73,-142.79 735.3,-135.38 724.76,-136.46 727.73,-142.79"/>
</g>
<!-- intro_skipper_helpers&#45;&gt;intro_skipper_browser_chrome_launcher -->
<g id="edge7" class="edge">
<title>intro_skipper_helpers&#45;&gt;intro_skipper_browser_chrome_launcher</title><style>.edge>path:hover{stroke-width:8}</style>
<path fill="none" stroke="black" d="M364.11,-286.14C358.6,-264.78 354.4,-232.39 371.19,-211.59"/>
</g>
<!-- intro_skipper_services_streaming_service_catalog -->
<g id="node10" class="node">
<title>intro_skipper_services_streaming_service_catalog</title><style>.edge>path:hover{stroke-width:8}</style>
<ellipse fill="#964040" stroke="black" cx="135.19" cy="-112.37" rx="93.51" ry="31.11"/>
<text xml:space="preserve" text-anchor="middle" x="135.19" y="-120.87" font-family="Helvetica,sans-Serif" font-size="10.00" fill="#ffffff">intro_skipper.</text>
<text xml:space="preserve" text-anchor="middle" x="135.19" y="-108.87" font-family="Helvetica,sans-Serif" font-size="10.00" fill="#ffffff">services.</text>
<text xml:space="preserve" text-anchor="middle" x="135.19" y="-96.87" font-family="Helvetica,sans-Serif" font-size="10.00" fill="#ffffff">streaming_service_catalog</text>
</g>
<!-- intro_skipper_helpers&#45;&gt;intro_skipper_services_streaming_service_catalog -->
<g id="edge8" class="edge">
<title>intro_skipper_helpers&#45;&gt;intro_skipper_services_streaming_service_catalog</title><style>.edge>path:hover{stroke-width:8}</style>
<path fill="none" stroke="black" d="M339.51,-290.45C330.25,-285.85 319.98,-281.2 310.19,-277.71 243.17,-253.8 202.46,-293.99 154.19,-241.71 133.07,-218.83 129.22,-183.23 130.15,-155.32"/>
<polygon fill="#e72222" stroke="black" points="133.64,-155.59 130.71,-145.41 126.65,-155.19 133.64,-155.59"/>
</g>
<!-- intro_skipper_helpers_constants -->
<g id="node7" class="node">
<title>intro_skipper_helpers_constants</title><style>.edge>path:hover{stroke-width:8}</style>
<ellipse fill="#e72222" stroke="black" cx="248.19" cy="-308.82" rx="52.68" ry="31.11"/>
<text xml:space="preserve" text-anchor="middle" x="248.19" y="-317.32" font-family="Helvetica,sans-Serif" font-size="10.00" fill="#ffffff">intro_skipper.</text>
<text xml:space="preserve" text-anchor="middle" x="248.19" y="-305.32" font-family="Helvetica,sans-Serif" font-size="10.00" fill="#ffffff">helpers.</text>
<text xml:space="preserve" text-anchor="middle" x="248.19" y="-293.32" font-family="Helvetica,sans-Serif" font-size="10.00" fill="#ffffff">constants</text>
</g>
<!-- intro_skipper_helpers_constants&#45;&gt;intro_skipper_application -->
<g id="edge9" class="edge">
<title>intro_skipper_helpers_constants&#45;&gt;intro_skipper_application</title><style>.edge>path:hover{stroke-width:8}</style>
<path fill="none" stroke="black" d="M13.19,-209.59C-4.37,-154.67 -8.23,-122.37 32.19,-81.25 70.75,-42.03 226.53,-29.48 316.05,-25.48"/>
<polygon fill="#e72222" stroke="black" points="316.07,-28.98 325.91,-25.07 315.77,-21.99 316.07,-28.98"/>
<path fill="none" stroke="black" d="M195.13,-306.83C133.01,-302.3 35.73,-283.53 13.19,-211.59"/>
</g>
<!-- intro_skipper_helpers_constants&#45;&gt;intro_skipper_browser_chrome_connection -->
<g id="edge10" class="edge">
<title>intro_skipper_helpers_constants&#45;&gt;intro_skipper_browser_chrome_connection</title><style>.edge>path:hover{stroke-width:8}</style>
<path fill="none" stroke="black" d="M286.16,-286.82C293.63,-283.34 301.53,-280.1 309.19,-277.71 414.26,-244.95 460.71,-299.79 554.19,-241.71 582.75,-223.96 570.25,-199.59 597.19,-179.48 638.42,-148.71 658.66,-160.55 707.19,-143.48 712.57,-141.59 718.13,-139.59 723.7,-137.55"/>
<polygon fill="#e72222" stroke="black" points="724.79,-140.88 732.96,-134.14 722.37,-134.32 724.79,-140.88"/>
</g>
<!-- intro_skipper_helpers_constants&#45;&gt;intro_skipper_browser_chrome_launcher -->
<g id="edge11" class="edge">
<title>intro_skipper_helpers_constants&#45;&gt;intro_skipper_browser_chrome_launcher</title><style>.edge>path:hover{stroke-width:8}</style>
<path fill="none" stroke="black" d="M371.19,-209.59C381.13,-197.28 379.67,-191.3 390.19,-179.48 401.06,-167.28 414.32,-155.55 426.99,-145.44"/>
<polygon fill="#e72222" stroke="black" points="429.12,-148.21 434.87,-139.31 424.83,-142.69 429.12,-148.21"/>
<path fill="none" stroke="black" d="M284.41,-285.94C311.06,-268.43 346.75,-241.86 371.19,-211.59"/>
</g>
<!-- intro_skipper_helpers_constants&#45;&gt;intro_skipper_services_streaming_service_catalog -->
<g id="edge12" class="edge">
<title>intro_skipper_helpers_constants&#45;&gt;intro_skipper_services_streaming_service_catalog</title><style>.edge>path:hover{stroke-width:8}</style>
<path fill="none" stroke="black" d="M13.19,-209.59C3.33,-178.76 29.53,-155.69 60.14,-139.88"/>
<polygon fill="#e72222" stroke="black" points="61.36,-143.17 68.83,-135.66 58.31,-136.87 61.36,-143.17"/>
</g>
<!-- intro_skipper_services -->
<g id="node8" class="node">
<title>intro_skipper_services</title><style>.edge>path:hover{stroke-width:8}</style>
<ellipse fill="#ce3b3b" stroke="black" cx="299.19" cy="-112.37" rx="52.68" ry="22.63"/>
<text xml:space="preserve" text-anchor="middle" x="299.19" y="-114.87" font-family="Helvetica,sans-Serif" font-size="10.00" fill="#ffffff">intro_skipper.</text>
<text xml:space="preserve" text-anchor="middle" x="299.19" y="-102.87" font-family="Helvetica,sans-Serif" font-size="10.00" fill="#ffffff">services</text>
</g>
<!-- intro_skipper_services&#45;&gt;intro_skipper_application -->
<g id="edge13" class="edge">
<title>intro_skipper_services&#45;&gt;intro_skipper_application</title><style>.edge>path:hover{stroke-width:8}</style>
<path fill="none" stroke="black" d="M317.98,-91.02C328.54,-79.58 341.89,-65.12 353.51,-52.53"/>
<polygon fill="#ce3b3b" stroke="black" points="355.99,-55 360.2,-45.28 350.85,-50.26 355.99,-55"/>
</g>
<!-- intro_skipper_services_streaming_service -->
<g id="node9" class="node">
<title>intro_skipper_services_streaming_service</title><style>.edge>path:hover{stroke-width:8}</style>
<ellipse fill="#ce3b3b" stroke="black" cx="231.19" cy="-210.59" rx="67.53" ry="31.11"/>
<text xml:space="preserve" text-anchor="middle" x="231.19" y="-219.09" font-family="Helvetica,sans-Serif" font-size="10.00" fill="#ffffff">intro_skipper.</text>
<text xml:space="preserve" text-anchor="middle" x="231.19" y="-207.09" font-family="Helvetica,sans-Serif" font-size="10.00" fill="#ffffff">services.</text>
<text xml:space="preserve" text-anchor="middle" x="231.19" y="-195.09" font-family="Helvetica,sans-Serif" font-size="10.00" fill="#ffffff">streaming_service</text>
</g>
<!-- intro_skipper_services_streaming_service&#45;&gt;intro_skipper_application -->
<g id="edge14" class="edge">
<title>intro_skipper_services_streaming_service&#45;&gt;intro_skipper_application</title><style>.edge>path:hover{stroke-width:8}</style>
<path fill="none" stroke="black" d="M288.47,-193.74C314.63,-183.58 343.62,-167.64 361.19,-143.48 379.38,-118.47 382.96,-82.75 382.7,-56.82"/>
<polygon fill="#ce3b3b" stroke="black" points="386.2,-56.71 382.38,-46.82 379.2,-56.93 386.2,-56.71"/>
</g>
<!-- intro_skipper_services_streaming_service&#45;&gt;intro_skipper_services_streaming_service_catalog -->
<g id="edge15" class="edge">
<title>intro_skipper_services_streaming_service&#45;&gt;intro_skipper_services_streaming_service_catalog</title><style>.edge>path:hover{stroke-width:8}</style>
<path fill="none" stroke="black" d="M203.43,-181.76C193.54,-171.85 182.25,-160.54 171.75,-150.01"/>
<polygon fill="#ce3b3b" stroke="black" points="174.51,-147.82 164.97,-143.21 169.55,-152.76 174.51,-147.82"/>
</g>
<!-- requests -->
<g id="node11" class="node">
<title>requests</title><style>.edge>path:hover{stroke-width:8}</style>
<ellipse fill="#40c040" stroke="black" cx="787.19" cy="-393.93" rx="32.17" ry="18"/>
<text xml:space="preserve" text-anchor="middle" x="787.19" y="-390.43" font-family="Helvetica,sans-Serif" font-size="10.00" fill="#000000">requests</text>
</g>
<!-- requests&#45;&gt;intro_skipper_browser_chrome_connection -->
<g id="edge16" class="edge">
<title>requests&#45;&gt;intro_skipper_browser_chrome_connection</title><style>.edge>path:hover{stroke-width:8}</style>
<path fill="none" stroke="black" d="M784.86,-375.78C783.08,-358.77 781.77,-332.11 787.19,-309.82"/>
</g>
<!-- websocket -->
<g id="node12" class="node">
<title>websocket</title><style>.edge>path:hover{stroke-width:8}</style>
<ellipse fill="#5353b6" stroke="black" cx="699.19" cy="-393.93" rx="38.03" ry="18"/>
<text xml:space="preserve" text-anchor="middle" x="699.19" y="-390.43" font-family="Helvetica,sans-Serif" font-size="10.00" fill="#ffffff">websocket</text>
</g>
<!-- websocket&#45;&gt;intro_skipper_browser_chrome_connection -->
<g id="edge17" class="edge">
<title>websocket&#45;&gt;intro_skipper_browser_chrome_connection</title><style>.edge>path:hover{stroke-width:8}</style>
<path fill="none" stroke="black" d="M787.19,-307.82C799.69,-256.43 796.89,-195.11 792.84,-155.27"/>
<polygon fill="#5353b6" stroke="black" points="796.32,-154.94 791.75,-145.38 789.36,-155.7 796.32,-154.94"/>
<path fill="none" stroke="black" d="M723.52,-380C746.2,-366.2 777.9,-341.91 787.19,-309.82"/>
</g>
</g>
</svg>
